G04 #@! TF.GenerationSoftware,KiCad,Pcbnew,5.1.9+dfsg1-1~bpo10+1*
G04 #@! TF.CreationDate,2021-07-02T19:43:39+00:00*
G04 #@! TF.ProjectId,klima,6b6c696d-612e-46b6-9963-61645f706362,rev?*
G04 #@! TF.SameCoordinates,Original*
G04 #@! TF.FileFunction,Copper,L1,Top*
G04 #@! TF.FilePolarity,Positive*
%FSLAX46Y46*%
G04 Gerber Fmt 4.6, Leading zero omitted, Abs format (unit mm)*
G04 Created by KiCad (PCBNEW 5.1.9+dfsg1-1~bpo10+1) date 2021-07-02 19:43:39*
%MOMM*%
%LPD*%
G01*
G04 APERTURE LIST*
G04 #@! TA.AperFunction,NonConductor*
%ADD10C,0.300000*%
G04 #@! TD*
G04 #@! TA.AperFunction,EtchedComponent*
%ADD11C,0.010000*%
G04 #@! TD*
G04 #@! TA.AperFunction,ComponentPad*
%ADD12C,2.000000*%
G04 #@! TD*
G04 #@! TA.AperFunction,ComponentPad*
%ADD13R,1.700000X1.700000*%
G04 #@! TD*
G04 #@! TA.AperFunction,ComponentPad*
%ADD14O,1.700000X1.700000*%
G04 #@! TD*
G04 #@! TA.AperFunction,ComponentPad*
%ADD15C,1.600000*%
G04 #@! TD*
G04 #@! TA.AperFunction,ComponentPad*
%ADD16R,2.200000X2.200000*%
G04 #@! TD*
G04 #@! TA.AperFunction,ComponentPad*
%ADD17O,2.200000X2.200000*%
G04 #@! TD*
G04 #@! TA.AperFunction,ComponentPad*
%ADD18C,5.600000*%
G04 #@! TD*
G04 #@! TA.AperFunction,ComponentPad*
%ADD19R,3.000000X1.500000*%
G04 #@! TD*
G04 #@! TA.AperFunction,ComponentPad*
%ADD20O,3.000000X1.500000*%
G04 #@! TD*
G04 #@! TA.AperFunction,ComponentPad*
%ADD21R,1.500000X1.500000*%
G04 #@! TD*
G04 #@! TA.AperFunction,ComponentPad*
%ADD22C,1.500000*%
G04 #@! TD*
G04 #@! TA.AperFunction,ComponentPad*
%ADD23O,1.600000X1.600000*%
G04 #@! TD*
G04 #@! TA.AperFunction,ViaPad*
%ADD24C,0.800000*%
G04 #@! TD*
G04 #@! TA.AperFunction,Conductor*
%ADD25C,0.500000*%
G04 #@! TD*
G04 #@! TA.AperFunction,Conductor*
%ADD26C,0.250000*%
G04 #@! TD*
G04 #@! TA.AperFunction,Conductor*
%ADD27C,1.000000*%
G04 #@! TD*
G04 #@! TA.AperFunction,Conductor*
%ADD28C,0.254000*%
G04 #@! TD*
G04 #@! TA.AperFunction,Conductor*
%ADD29C,0.100000*%
G04 #@! TD*
G04 APERTURE END LIST*
D10*
X160107142Y-98142857D02*
X160107142Y-97000000D01*
X160678571Y-97571428D02*
X159535714Y-97571428D01*
X160678571Y-95500000D02*
X160678571Y-96357142D01*
X160678571Y-95928571D02*
X159178571Y-95928571D01*
X159392857Y-96071428D01*
X159535714Y-96214285D01*
X159607142Y-96357142D01*
X159321428Y-94928571D02*
X159250000Y-94857142D01*
X159178571Y-94714285D01*
X159178571Y-94357142D01*
X159250000Y-94214285D01*
X159321428Y-94142857D01*
X159464285Y-94071428D01*
X159607142Y-94071428D01*
X159821428Y-94142857D01*
X160678571Y-95000000D01*
X160678571Y-94071428D01*
X159178571Y-93642857D02*
X160678571Y-93142857D01*
X159178571Y-92642857D01*
X110107142Y-77142857D02*
X110107142Y-76000000D01*
X110678571Y-76571428D02*
X109535714Y-76571428D01*
X110678571Y-74500000D02*
X110678571Y-75357142D01*
X110678571Y-74928571D02*
X109178571Y-74928571D01*
X109392857Y-75071428D01*
X109535714Y-75214285D01*
X109607142Y-75357142D01*
X109321428Y-73928571D02*
X109250000Y-73857142D01*
X109178571Y-73714285D01*
X109178571Y-73357142D01*
X109250000Y-73214285D01*
X109321428Y-73142857D01*
X109464285Y-73071428D01*
X109607142Y-73071428D01*
X109821428Y-73142857D01*
X110678571Y-74000000D01*
X110678571Y-73071428D01*
X109178571Y-72642857D02*
X110678571Y-72142857D01*
X109178571Y-71642857D01*
D11*
G36*
X117778134Y-99278134D02*
G01*
X108721867Y-99278134D01*
X108721867Y-97297075D01*
X109004875Y-97297075D01*
X109004875Y-98995126D01*
X110702925Y-98995126D01*
X110702925Y-98570613D01*
X110985933Y-98570613D01*
X111009666Y-98663190D01*
X111105590Y-98704106D01*
X111268942Y-98712117D01*
X111450090Y-98705309D01*
X111530583Y-98657652D01*
X111551270Y-98528298D01*
X111551950Y-98429109D01*
X111563816Y-98243955D01*
X111611778Y-98162123D01*
X111693454Y-98146100D01*
X111811703Y-98196130D01*
X111834958Y-98287605D01*
X111884988Y-98405853D01*
X111976463Y-98429109D01*
X112069040Y-98405376D01*
X112109955Y-98309452D01*
X112117967Y-98146100D01*
X112106100Y-97960946D01*
X112058138Y-97879115D01*
X111976463Y-97863092D01*
X111858214Y-97813063D01*
X111834958Y-97721588D01*
X111784929Y-97603339D01*
X111693454Y-97580084D01*
X111600877Y-97603817D01*
X111559962Y-97699740D01*
X111551950Y-97863092D01*
X111540084Y-98048246D01*
X111492122Y-98130078D01*
X111410446Y-98146100D01*
X111292197Y-98196130D01*
X111268942Y-98287605D01*
X111218912Y-98405853D01*
X111127438Y-98429109D01*
X111009189Y-98479138D01*
X110985933Y-98570613D01*
X110702925Y-98570613D01*
X110702925Y-97721588D01*
X110985933Y-97721588D01*
X111035963Y-97839836D01*
X111127438Y-97863092D01*
X111245686Y-97813063D01*
X111268942Y-97721588D01*
X111218912Y-97603339D01*
X111127438Y-97580084D01*
X111009189Y-97630113D01*
X110985933Y-97721588D01*
X110702925Y-97721588D01*
X110702925Y-97297075D01*
X109004875Y-97297075D01*
X108721867Y-97297075D01*
X108721867Y-96165042D01*
X109287883Y-96165042D01*
X109299750Y-96350196D01*
X109347712Y-96432027D01*
X109429387Y-96448050D01*
X109521965Y-96424318D01*
X109562880Y-96328394D01*
X109570892Y-96165042D01*
X109559025Y-95979888D01*
X109511063Y-95898057D01*
X109429387Y-95882034D01*
X109853900Y-95882034D01*
X109853900Y-97014067D01*
X110419917Y-97014067D01*
X110419917Y-95882034D01*
X109853900Y-95882034D01*
X109429387Y-95882034D01*
X109336810Y-95905766D01*
X109295895Y-96001690D01*
X109287883Y-96165042D01*
X108721867Y-96165042D01*
X108721867Y-93900975D01*
X109004875Y-93900975D01*
X109004875Y-95599025D01*
X110702925Y-95599025D01*
X110702925Y-97297075D01*
X112400975Y-97297075D01*
X112400975Y-98995126D01*
X114099025Y-98995126D01*
X114099025Y-98004596D01*
X114382034Y-98004596D01*
X114387197Y-98241695D01*
X114409878Y-98369811D01*
X114460863Y-98421304D01*
X114523538Y-98429109D01*
X114641786Y-98479138D01*
X114665042Y-98570613D01*
X114688775Y-98663190D01*
X114784699Y-98704106D01*
X114948050Y-98712117D01*
X115231059Y-98712117D01*
X115231059Y-98146100D01*
X115228104Y-97864087D01*
X115214498Y-97695069D01*
X115183123Y-97610583D01*
X115126863Y-97582167D01*
X115089555Y-97580084D01*
X114971306Y-97630113D01*
X114948050Y-97721588D01*
X114898021Y-97839836D01*
X114806546Y-97863092D01*
X114688298Y-97813063D01*
X114665042Y-97721588D01*
X114615013Y-97603339D01*
X114523538Y-97580084D01*
X114444505Y-97595573D01*
X114401800Y-97663616D01*
X114384635Y-97816572D01*
X114382034Y-98004596D01*
X114099025Y-98004596D01*
X114099025Y-97297075D01*
X115797075Y-97297075D01*
X115797075Y-98995126D01*
X117495126Y-98995126D01*
X117495126Y-97297075D01*
X115797075Y-97297075D01*
X115797075Y-96165042D01*
X116080084Y-96165042D01*
X116086892Y-96346190D01*
X116134549Y-96426683D01*
X116263903Y-96447370D01*
X116363092Y-96448050D01*
X116548246Y-96459917D01*
X116630078Y-96507879D01*
X116646100Y-96589555D01*
X116596071Y-96707803D01*
X116504596Y-96731059D01*
X116386348Y-96781088D01*
X116363092Y-96872563D01*
X116386825Y-96965140D01*
X116482749Y-97006056D01*
X116646100Y-97014067D01*
X116827249Y-97007259D01*
X116907742Y-96959602D01*
X116928428Y-96830248D01*
X116929109Y-96731059D01*
X116940975Y-96545904D01*
X116988937Y-96464073D01*
X117070613Y-96448050D01*
X117188862Y-96398021D01*
X117212117Y-96306546D01*
X117162088Y-96188298D01*
X117070613Y-96165042D01*
X116952365Y-96115013D01*
X116929109Y-96023538D01*
X116879080Y-95905289D01*
X116787605Y-95882034D01*
X116669356Y-95932063D01*
X116646100Y-96023538D01*
X116596071Y-96141786D01*
X116504596Y-96165042D01*
X116386348Y-96115013D01*
X116363092Y-96023538D01*
X116313063Y-95905289D01*
X116221588Y-95882034D01*
X116129011Y-95905766D01*
X116088095Y-96001690D01*
X116080084Y-96165042D01*
X115797075Y-96165042D01*
X115797075Y-95599025D01*
X117495126Y-95599025D01*
X117495126Y-93900975D01*
X115797075Y-93900975D01*
X115797075Y-92627438D01*
X116080084Y-92627438D01*
X116130113Y-92745686D01*
X116221588Y-92768942D01*
X116339836Y-92818971D01*
X116363092Y-92910446D01*
X116313063Y-93028694D01*
X116221588Y-93051950D01*
X116103339Y-93101979D01*
X116080084Y-93193454D01*
X116130113Y-93311703D01*
X116221588Y-93334958D01*
X116339836Y-93284929D01*
X116363092Y-93193454D01*
X116413121Y-93075206D01*
X116504596Y-93051950D01*
X116597173Y-93075683D01*
X116638089Y-93171607D01*
X116646100Y-93334958D01*
X116652909Y-93516107D01*
X116700565Y-93596600D01*
X116829920Y-93617286D01*
X116929109Y-93617967D01*
X117212117Y-93617967D01*
X117212117Y-93051950D01*
X117209163Y-92769936D01*
X117195556Y-92600918D01*
X117164181Y-92516433D01*
X117107922Y-92488016D01*
X117070613Y-92485933D01*
X116978036Y-92509666D01*
X116937120Y-92605590D01*
X116929109Y-92768942D01*
X116917242Y-92954096D01*
X116869281Y-93035927D01*
X116787605Y-93051950D01*
X116669356Y-93001921D01*
X116646100Y-92910446D01*
X116596071Y-92792197D01*
X116504596Y-92768942D01*
X116386348Y-92718912D01*
X116363092Y-92627438D01*
X116313063Y-92509189D01*
X116221588Y-92485933D01*
X116103339Y-92535963D01*
X116080084Y-92627438D01*
X115797075Y-92627438D01*
X115797075Y-92202925D01*
X114099025Y-92202925D01*
X114099025Y-91070892D01*
X114382034Y-91070892D01*
X114382034Y-91353900D01*
X115514067Y-91353900D01*
X115514067Y-91070892D01*
X115507259Y-90889743D01*
X115459602Y-90809250D01*
X115330248Y-90788564D01*
X115231059Y-90787883D01*
X115045904Y-90799750D01*
X114964073Y-90847712D01*
X114948050Y-90929387D01*
X114898021Y-91047636D01*
X114806546Y-91070892D01*
X114688298Y-91020862D01*
X114665042Y-90929387D01*
X114615013Y-90811139D01*
X114523538Y-90787883D01*
X114430961Y-90811616D01*
X114390045Y-90907540D01*
X114382034Y-91070892D01*
X114099025Y-91070892D01*
X114099025Y-90504875D01*
X115797075Y-90504875D01*
X115797075Y-92202925D01*
X117495126Y-92202925D01*
X117495126Y-90504875D01*
X115797075Y-90504875D01*
X114099025Y-90504875D01*
X112400975Y-90504875D01*
X112400975Y-92202925D01*
X110702925Y-92202925D01*
X110702925Y-93900975D01*
X109004875Y-93900975D01*
X108721867Y-93900975D01*
X108721867Y-93334958D01*
X109287883Y-93334958D01*
X109299750Y-93520113D01*
X109347712Y-93601944D01*
X109429387Y-93617967D01*
X109521965Y-93594234D01*
X109562880Y-93498310D01*
X109570892Y-93334958D01*
X109561823Y-93193454D01*
X109853900Y-93193454D01*
X109853900Y-93617967D01*
X110136908Y-93617967D01*
X110322063Y-93606100D01*
X110403894Y-93558138D01*
X110419917Y-93476463D01*
X110369887Y-93358214D01*
X110278412Y-93334958D01*
X110160164Y-93284929D01*
X110136908Y-93193454D01*
X110186938Y-93075206D01*
X110278412Y-93051950D01*
X110370990Y-93028217D01*
X110411905Y-92932293D01*
X110419917Y-92768942D01*
X110408050Y-92583787D01*
X110360088Y-92501956D01*
X110278412Y-92485933D01*
X110160164Y-92535963D01*
X110136908Y-92627438D01*
X110086879Y-92745686D01*
X109995404Y-92768942D01*
X109916371Y-92784431D01*
X109873666Y-92852474D01*
X109856501Y-93005430D01*
X109853900Y-93193454D01*
X109561823Y-93193454D01*
X109559025Y-93149804D01*
X109511063Y-93067973D01*
X109429387Y-93051950D01*
X109336810Y-93075683D01*
X109295895Y-93171607D01*
X109287883Y-93334958D01*
X108721867Y-93334958D01*
X108721867Y-92627438D01*
X109287883Y-92627438D01*
X109337912Y-92745686D01*
X109429387Y-92768942D01*
X109547636Y-92718912D01*
X109570892Y-92627438D01*
X109520862Y-92509189D01*
X109429387Y-92485933D01*
X109311139Y-92535963D01*
X109287883Y-92627438D01*
X108721867Y-92627438D01*
X108721867Y-90504875D01*
X109004875Y-90504875D01*
X109004875Y-92202925D01*
X110702925Y-92202925D01*
X110702925Y-91070892D01*
X110985933Y-91070892D01*
X110985933Y-91353900D01*
X112117967Y-91353900D01*
X112117967Y-91070892D01*
X112111159Y-90889743D01*
X112063502Y-90809250D01*
X111934147Y-90788564D01*
X111834958Y-90787883D01*
X111649804Y-90799750D01*
X111567973Y-90847712D01*
X111551950Y-90929387D01*
X111501921Y-91047636D01*
X111410446Y-91070892D01*
X111292197Y-91020862D01*
X111268942Y-90929387D01*
X111218912Y-90811139D01*
X111127438Y-90787883D01*
X111034860Y-90811616D01*
X110993945Y-90907540D01*
X110985933Y-91070892D01*
X110702925Y-91070892D01*
X110702925Y-90504875D01*
X109004875Y-90504875D01*
X108721867Y-90504875D01*
X108721867Y-90221867D01*
X117778134Y-90221867D01*
X117778134Y-99278134D01*
G37*
X117778134Y-99278134D02*
X108721867Y-99278134D01*
X108721867Y-97297075D01*
X109004875Y-97297075D01*
X109004875Y-98995126D01*
X110702925Y-98995126D01*
X110702925Y-98570613D01*
X110985933Y-98570613D01*
X111009666Y-98663190D01*
X111105590Y-98704106D01*
X111268942Y-98712117D01*
X111450090Y-98705309D01*
X111530583Y-98657652D01*
X111551270Y-98528298D01*
X111551950Y-98429109D01*
X111563816Y-98243955D01*
X111611778Y-98162123D01*
X111693454Y-98146100D01*
X111811703Y-98196130D01*
X111834958Y-98287605D01*
X111884988Y-98405853D01*
X111976463Y-98429109D01*
X112069040Y-98405376D01*
X112109955Y-98309452D01*
X112117967Y-98146100D01*
X112106100Y-97960946D01*
X112058138Y-97879115D01*
X111976463Y-97863092D01*
X111858214Y-97813063D01*
X111834958Y-97721588D01*
X111784929Y-97603339D01*
X111693454Y-97580084D01*
X111600877Y-97603817D01*
X111559962Y-97699740D01*
X111551950Y-97863092D01*
X111540084Y-98048246D01*
X111492122Y-98130078D01*
X111410446Y-98146100D01*
X111292197Y-98196130D01*
X111268942Y-98287605D01*
X111218912Y-98405853D01*
X111127438Y-98429109D01*
X111009189Y-98479138D01*
X110985933Y-98570613D01*
X110702925Y-98570613D01*
X110702925Y-97721588D01*
X110985933Y-97721588D01*
X111035963Y-97839836D01*
X111127438Y-97863092D01*
X111245686Y-97813063D01*
X111268942Y-97721588D01*
X111218912Y-97603339D01*
X111127438Y-97580084D01*
X111009189Y-97630113D01*
X110985933Y-97721588D01*
X110702925Y-97721588D01*
X110702925Y-97297075D01*
X109004875Y-97297075D01*
X108721867Y-97297075D01*
X108721867Y-96165042D01*
X109287883Y-96165042D01*
X109299750Y-96350196D01*
X109347712Y-96432027D01*
X109429387Y-96448050D01*
X109521965Y-96424318D01*
X109562880Y-96328394D01*
X109570892Y-96165042D01*
X109559025Y-95979888D01*
X109511063Y-95898057D01*
X109429387Y-95882034D01*
X109853900Y-95882034D01*
X109853900Y-97014067D01*
X110419917Y-97014067D01*
X110419917Y-95882034D01*
X109853900Y-95882034D01*
X109429387Y-95882034D01*
X109336810Y-95905766D01*
X109295895Y-96001690D01*
X109287883Y-96165042D01*
X108721867Y-96165042D01*
X108721867Y-93900975D01*
X109004875Y-93900975D01*
X109004875Y-95599025D01*
X110702925Y-95599025D01*
X110702925Y-97297075D01*
X112400975Y-97297075D01*
X112400975Y-98995126D01*
X114099025Y-98995126D01*
X114099025Y-98004596D01*
X114382034Y-98004596D01*
X114387197Y-98241695D01*
X114409878Y-98369811D01*
X114460863Y-98421304D01*
X114523538Y-98429109D01*
X114641786Y-98479138D01*
X114665042Y-98570613D01*
X114688775Y-98663190D01*
X114784699Y-98704106D01*
X114948050Y-98712117D01*
X115231059Y-98712117D01*
X115231059Y-98146100D01*
X115228104Y-97864087D01*
X115214498Y-97695069D01*
X115183123Y-97610583D01*
X115126863Y-97582167D01*
X115089555Y-97580084D01*
X114971306Y-97630113D01*
X114948050Y-97721588D01*
X114898021Y-97839836D01*
X114806546Y-97863092D01*
X114688298Y-97813063D01*
X114665042Y-97721588D01*
X114615013Y-97603339D01*
X114523538Y-97580084D01*
X114444505Y-97595573D01*
X114401800Y-97663616D01*
X114384635Y-97816572D01*
X114382034Y-98004596D01*
X114099025Y-98004596D01*
X114099025Y-97297075D01*
X115797075Y-97297075D01*
X115797075Y-98995126D01*
X117495126Y-98995126D01*
X117495126Y-97297075D01*
X115797075Y-97297075D01*
X115797075Y-96165042D01*
X116080084Y-96165042D01*
X116086892Y-96346190D01*
X116134549Y-96426683D01*
X116263903Y-96447370D01*
X116363092Y-96448050D01*
X116548246Y-96459917D01*
X116630078Y-96507879D01*
X116646100Y-96589555D01*
X116596071Y-96707803D01*
X116504596Y-96731059D01*
X116386348Y-96781088D01*
X116363092Y-96872563D01*
X116386825Y-96965140D01*
X116482749Y-97006056D01*
X116646100Y-97014067D01*
X116827249Y-97007259D01*
X116907742Y-96959602D01*
X116928428Y-96830248D01*
X116929109Y-96731059D01*
X116940975Y-96545904D01*
X116988937Y-96464073D01*
X117070613Y-96448050D01*
X117188862Y-96398021D01*
X117212117Y-96306546D01*
X117162088Y-96188298D01*
X117070613Y-96165042D01*
X116952365Y-96115013D01*
X116929109Y-96023538D01*
X116879080Y-95905289D01*
X116787605Y-95882034D01*
X116669356Y-95932063D01*
X116646100Y-96023538D01*
X116596071Y-96141786D01*
X116504596Y-96165042D01*
X116386348Y-96115013D01*
X116363092Y-96023538D01*
X116313063Y-95905289D01*
X116221588Y-95882034D01*
X116129011Y-95905766D01*
X116088095Y-96001690D01*
X116080084Y-96165042D01*
X115797075Y-96165042D01*
X115797075Y-95599025D01*
X117495126Y-95599025D01*
X117495126Y-93900975D01*
X115797075Y-93900975D01*
X115797075Y-92627438D01*
X116080084Y-92627438D01*
X116130113Y-92745686D01*
X116221588Y-92768942D01*
X116339836Y-92818971D01*
X116363092Y-92910446D01*
X116313063Y-93028694D01*
X116221588Y-93051950D01*
X116103339Y-93101979D01*
X116080084Y-93193454D01*
X116130113Y-93311703D01*
X116221588Y-93334958D01*
X116339836Y-93284929D01*
X116363092Y-93193454D01*
X116413121Y-93075206D01*
X116504596Y-93051950D01*
X116597173Y-93075683D01*
X116638089Y-93171607D01*
X116646100Y-93334958D01*
X116652909Y-93516107D01*
X116700565Y-93596600D01*
X116829920Y-93617286D01*
X116929109Y-93617967D01*
X117212117Y-93617967D01*
X117212117Y-93051950D01*
X117209163Y-92769936D01*
X117195556Y-92600918D01*
X117164181Y-92516433D01*
X117107922Y-92488016D01*
X117070613Y-92485933D01*
X116978036Y-92509666D01*
X116937120Y-92605590D01*
X116929109Y-92768942D01*
X116917242Y-92954096D01*
X116869281Y-93035927D01*
X116787605Y-93051950D01*
X116669356Y-93001921D01*
X116646100Y-92910446D01*
X116596071Y-92792197D01*
X116504596Y-92768942D01*
X116386348Y-92718912D01*
X116363092Y-92627438D01*
X116313063Y-92509189D01*
X116221588Y-92485933D01*
X116103339Y-92535963D01*
X116080084Y-92627438D01*
X115797075Y-92627438D01*
X115797075Y-92202925D01*
X114099025Y-92202925D01*
X114099025Y-91070892D01*
X114382034Y-91070892D01*
X114382034Y-91353900D01*
X115514067Y-91353900D01*
X115514067Y-91070892D01*
X115507259Y-90889743D01*
X115459602Y-90809250D01*
X115330248Y-90788564D01*
X115231059Y-90787883D01*
X115045904Y-90799750D01*
X114964073Y-90847712D01*
X114948050Y-90929387D01*
X114898021Y-91047636D01*
X114806546Y-91070892D01*
X114688298Y-91020862D01*
X114665042Y-90929387D01*
X114615013Y-90811139D01*
X114523538Y-90787883D01*
X114430961Y-90811616D01*
X114390045Y-90907540D01*
X114382034Y-91070892D01*
X114099025Y-91070892D01*
X114099025Y-90504875D01*
X115797075Y-90504875D01*
X115797075Y-92202925D01*
X117495126Y-92202925D01*
X117495126Y-90504875D01*
X115797075Y-90504875D01*
X114099025Y-90504875D01*
X112400975Y-90504875D01*
X112400975Y-92202925D01*
X110702925Y-92202925D01*
X110702925Y-93900975D01*
X109004875Y-93900975D01*
X108721867Y-93900975D01*
X108721867Y-93334958D01*
X109287883Y-93334958D01*
X109299750Y-93520113D01*
X109347712Y-93601944D01*
X109429387Y-93617967D01*
X109521965Y-93594234D01*
X109562880Y-93498310D01*
X109570892Y-93334958D01*
X109561823Y-93193454D01*
X109853900Y-93193454D01*
X109853900Y-93617967D01*
X110136908Y-93617967D01*
X110322063Y-93606100D01*
X110403894Y-93558138D01*
X110419917Y-93476463D01*
X110369887Y-93358214D01*
X110278412Y-93334958D01*
X110160164Y-93284929D01*
X110136908Y-93193454D01*
X110186938Y-93075206D01*
X110278412Y-93051950D01*
X110370990Y-93028217D01*
X110411905Y-92932293D01*
X110419917Y-92768942D01*
X110408050Y-92583787D01*
X110360088Y-92501956D01*
X110278412Y-92485933D01*
X110160164Y-92535963D01*
X110136908Y-92627438D01*
X110086879Y-92745686D01*
X109995404Y-92768942D01*
X109916371Y-92784431D01*
X109873666Y-92852474D01*
X109856501Y-93005430D01*
X109853900Y-93193454D01*
X109561823Y-93193454D01*
X109559025Y-93149804D01*
X109511063Y-93067973D01*
X109429387Y-93051950D01*
X109336810Y-93075683D01*
X109295895Y-93171607D01*
X109287883Y-93334958D01*
X108721867Y-93334958D01*
X108721867Y-92627438D01*
X109287883Y-92627438D01*
X109337912Y-92745686D01*
X109429387Y-92768942D01*
X109547636Y-92718912D01*
X109570892Y-92627438D01*
X109520862Y-92509189D01*
X109429387Y-92485933D01*
X109311139Y-92535963D01*
X109287883Y-92627438D01*
X108721867Y-92627438D01*
X108721867Y-90504875D01*
X109004875Y-90504875D01*
X109004875Y-92202925D01*
X110702925Y-92202925D01*
X110702925Y-91070892D01*
X110985933Y-91070892D01*
X110985933Y-91353900D01*
X112117967Y-91353900D01*
X112117967Y-91070892D01*
X112111159Y-90889743D01*
X112063502Y-90809250D01*
X111934147Y-90788564D01*
X111834958Y-90787883D01*
X111649804Y-90799750D01*
X111567973Y-90847712D01*
X111551950Y-90929387D01*
X111501921Y-91047636D01*
X111410446Y-91070892D01*
X111292197Y-91020862D01*
X111268942Y-90929387D01*
X111218912Y-90811139D01*
X111127438Y-90787883D01*
X111034860Y-90811616D01*
X110993945Y-90907540D01*
X110985933Y-91070892D01*
X110702925Y-91070892D01*
X110702925Y-90504875D01*
X109004875Y-90504875D01*
X108721867Y-90504875D01*
X108721867Y-90221867D01*
X117778134Y-90221867D01*
X117778134Y-99278134D01*
G36*
X110039054Y-97591950D02*
G01*
X110120885Y-97639912D01*
X110136908Y-97721588D01*
X110186938Y-97839836D01*
X110278412Y-97863092D01*
X110370990Y-97886825D01*
X110411905Y-97982749D01*
X110419917Y-98146100D01*
X110408050Y-98331255D01*
X110360088Y-98413086D01*
X110278412Y-98429109D01*
X110160164Y-98479138D01*
X110136908Y-98570613D01*
X110113175Y-98663190D01*
X110017252Y-98704106D01*
X109853900Y-98712117D01*
X109668746Y-98700251D01*
X109586915Y-98652289D01*
X109570892Y-98570613D01*
X109520862Y-98452365D01*
X109429387Y-98429109D01*
X109336810Y-98405376D01*
X109295895Y-98309452D01*
X109287883Y-98146100D01*
X109570892Y-98146100D01*
X109577700Y-98327249D01*
X109625357Y-98407742D01*
X109754711Y-98428428D01*
X109853900Y-98429109D01*
X110039054Y-98417242D01*
X110120885Y-98369281D01*
X110136908Y-98287605D01*
X110086879Y-98169356D01*
X109995404Y-98146100D01*
X109877156Y-98096071D01*
X109853900Y-98004596D01*
X109803871Y-97886348D01*
X109712396Y-97863092D01*
X109619819Y-97886825D01*
X109578903Y-97982749D01*
X109570892Y-98146100D01*
X109287883Y-98146100D01*
X109299750Y-97960946D01*
X109347712Y-97879115D01*
X109429387Y-97863092D01*
X109547636Y-97813063D01*
X109570892Y-97721588D01*
X109594624Y-97629011D01*
X109690548Y-97588095D01*
X109853900Y-97580084D01*
X110039054Y-97591950D01*
G37*
X110039054Y-97591950D02*
X110120885Y-97639912D01*
X110136908Y-97721588D01*
X110186938Y-97839836D01*
X110278412Y-97863092D01*
X110370990Y-97886825D01*
X110411905Y-97982749D01*
X110419917Y-98146100D01*
X110408050Y-98331255D01*
X110360088Y-98413086D01*
X110278412Y-98429109D01*
X110160164Y-98479138D01*
X110136908Y-98570613D01*
X110113175Y-98663190D01*
X110017252Y-98704106D01*
X109853900Y-98712117D01*
X109668746Y-98700251D01*
X109586915Y-98652289D01*
X109570892Y-98570613D01*
X109520862Y-98452365D01*
X109429387Y-98429109D01*
X109336810Y-98405376D01*
X109295895Y-98309452D01*
X109287883Y-98146100D01*
X109570892Y-98146100D01*
X109577700Y-98327249D01*
X109625357Y-98407742D01*
X109754711Y-98428428D01*
X109853900Y-98429109D01*
X110039054Y-98417242D01*
X110120885Y-98369281D01*
X110136908Y-98287605D01*
X110086879Y-98169356D01*
X109995404Y-98146100D01*
X109877156Y-98096071D01*
X109853900Y-98004596D01*
X109803871Y-97886348D01*
X109712396Y-97863092D01*
X109619819Y-97886825D01*
X109578903Y-97982749D01*
X109570892Y-98146100D01*
X109287883Y-98146100D01*
X109299750Y-97960946D01*
X109347712Y-97879115D01*
X109429387Y-97863092D01*
X109547636Y-97813063D01*
X109570892Y-97721588D01*
X109594624Y-97629011D01*
X109690548Y-97588095D01*
X109853900Y-97580084D01*
X110039054Y-97591950D01*
G36*
X113435155Y-97591950D02*
G01*
X113516986Y-97639912D01*
X113533009Y-97721588D01*
X113583038Y-97839836D01*
X113674513Y-97863092D01*
X113767090Y-97886825D01*
X113808005Y-97982749D01*
X113816017Y-98146100D01*
X113804151Y-98331255D01*
X113756189Y-98413086D01*
X113674513Y-98429109D01*
X113581936Y-98405376D01*
X113541020Y-98309452D01*
X113533009Y-98146100D01*
X113521142Y-97960946D01*
X113473180Y-97879115D01*
X113391504Y-97863092D01*
X113312471Y-97878582D01*
X113269766Y-97946624D01*
X113252602Y-98099580D01*
X113250000Y-98287605D01*
X113244837Y-98524704D01*
X113222156Y-98652819D01*
X113171171Y-98704313D01*
X113108496Y-98712117D01*
X112990248Y-98662088D01*
X112966992Y-98570613D01*
X112916963Y-98452365D01*
X112825488Y-98429109D01*
X112707239Y-98379080D01*
X112683983Y-98287605D01*
X112734013Y-98169356D01*
X112825488Y-98146100D01*
X112918065Y-98122368D01*
X112958980Y-98026444D01*
X112966992Y-97863092D01*
X112973800Y-97681944D01*
X113021457Y-97601451D01*
X113150811Y-97580764D01*
X113250000Y-97580084D01*
X113435155Y-97591950D01*
G37*
X113435155Y-97591950D02*
X113516986Y-97639912D01*
X113533009Y-97721588D01*
X113583038Y-97839836D01*
X113674513Y-97863092D01*
X113767090Y-97886825D01*
X113808005Y-97982749D01*
X113816017Y-98146100D01*
X113804151Y-98331255D01*
X113756189Y-98413086D01*
X113674513Y-98429109D01*
X113581936Y-98405376D01*
X113541020Y-98309452D01*
X113533009Y-98146100D01*
X113521142Y-97960946D01*
X113473180Y-97879115D01*
X113391504Y-97863092D01*
X113312471Y-97878582D01*
X113269766Y-97946624D01*
X113252602Y-98099580D01*
X113250000Y-98287605D01*
X113244837Y-98524704D01*
X113222156Y-98652819D01*
X113171171Y-98704313D01*
X113108496Y-98712117D01*
X112990248Y-98662088D01*
X112966992Y-98570613D01*
X112916963Y-98452365D01*
X112825488Y-98429109D01*
X112707239Y-98379080D01*
X112683983Y-98287605D01*
X112734013Y-98169356D01*
X112825488Y-98146100D01*
X112918065Y-98122368D01*
X112958980Y-98026444D01*
X112966992Y-97863092D01*
X112973800Y-97681944D01*
X113021457Y-97601451D01*
X113150811Y-97580764D01*
X113250000Y-97580084D01*
X113435155Y-97591950D01*
G36*
X117024704Y-97585247D02*
G01*
X117152819Y-97607928D01*
X117204313Y-97658913D01*
X117212117Y-97721588D01*
X117162088Y-97839836D01*
X117070613Y-97863092D01*
X116952365Y-97913121D01*
X116929109Y-98004596D01*
X116979138Y-98122845D01*
X117070613Y-98146100D01*
X117163190Y-98169833D01*
X117204106Y-98265757D01*
X117212117Y-98429109D01*
X117212117Y-98712117D01*
X116080084Y-98712117D01*
X116080084Y-98287605D01*
X116083165Y-98146100D01*
X116363092Y-98146100D01*
X116374959Y-98331255D01*
X116422920Y-98413086D01*
X116504596Y-98429109D01*
X116597173Y-98405376D01*
X116638089Y-98309452D01*
X116646100Y-98146100D01*
X116634234Y-97960946D01*
X116586272Y-97879115D01*
X116504596Y-97863092D01*
X116412019Y-97886825D01*
X116371104Y-97982749D01*
X116363092Y-98146100D01*
X116083165Y-98146100D01*
X116085247Y-98050506D01*
X116107928Y-97922390D01*
X116158913Y-97870896D01*
X116221588Y-97863092D01*
X116339836Y-97813063D01*
X116363092Y-97721588D01*
X116378582Y-97642555D01*
X116446624Y-97599850D01*
X116599580Y-97582685D01*
X116787605Y-97580084D01*
X117024704Y-97585247D01*
G37*
X117024704Y-97585247D02*
X117152819Y-97607928D01*
X117204313Y-97658913D01*
X117212117Y-97721588D01*
X117162088Y-97839836D01*
X117070613Y-97863092D01*
X116952365Y-97913121D01*
X116929109Y-98004596D01*
X116979138Y-98122845D01*
X117070613Y-98146100D01*
X117163190Y-98169833D01*
X117204106Y-98265757D01*
X117212117Y-98429109D01*
X117212117Y-98712117D01*
X116080084Y-98712117D01*
X116080084Y-98287605D01*
X116083165Y-98146100D01*
X116363092Y-98146100D01*
X116374959Y-98331255D01*
X116422920Y-98413086D01*
X116504596Y-98429109D01*
X116597173Y-98405376D01*
X116638089Y-98309452D01*
X116646100Y-98146100D01*
X116634234Y-97960946D01*
X116586272Y-97879115D01*
X116504596Y-97863092D01*
X116412019Y-97886825D01*
X116371104Y-97982749D01*
X116363092Y-98146100D01*
X116083165Y-98146100D01*
X116085247Y-98050506D01*
X116107928Y-97922390D01*
X116158913Y-97870896D01*
X116221588Y-97863092D01*
X116339836Y-97813063D01*
X116363092Y-97721588D01*
X116378582Y-97642555D01*
X116446624Y-97599850D01*
X116599580Y-97582685D01*
X116787605Y-97580084D01*
X117024704Y-97585247D01*
G36*
X115797075Y-93900975D02*
G01*
X115797075Y-95599025D01*
X114099025Y-95599025D01*
X114099025Y-97297075D01*
X112400975Y-97297075D01*
X112400975Y-96023538D01*
X112966992Y-96023538D01*
X113017021Y-96141786D01*
X113108496Y-96165042D01*
X113226745Y-96215071D01*
X113250000Y-96306546D01*
X113273733Y-96399123D01*
X113369657Y-96440039D01*
X113533009Y-96448050D01*
X113718163Y-96436184D01*
X113799994Y-96388222D01*
X113816017Y-96306546D01*
X113765988Y-96188298D01*
X113674513Y-96165042D01*
X113556264Y-96115013D01*
X113533009Y-96023538D01*
X113509276Y-95930961D01*
X113413352Y-95890045D01*
X113250000Y-95882034D01*
X113064846Y-95893900D01*
X112983015Y-95941862D01*
X112966992Y-96023538D01*
X112400975Y-96023538D01*
X112400975Y-95599025D01*
X110702925Y-95599025D01*
X110702925Y-94891504D01*
X110985933Y-94891504D01*
X110991097Y-95128603D01*
X111013777Y-95256719D01*
X111064763Y-95308213D01*
X111127438Y-95316017D01*
X111245686Y-95265988D01*
X111268942Y-95174513D01*
X111292675Y-95081936D01*
X111388598Y-95041020D01*
X111551950Y-95033009D01*
X111737104Y-95044875D01*
X111818935Y-95092837D01*
X111834958Y-95174513D01*
X111884988Y-95292761D01*
X111976463Y-95316017D01*
X112094711Y-95265988D01*
X112117967Y-95174513D01*
X112067937Y-95056264D01*
X111976463Y-95033009D01*
X111858214Y-94982979D01*
X111834958Y-94891504D01*
X111884988Y-94773256D01*
X111976463Y-94750000D01*
X112094711Y-94699971D01*
X112117967Y-94608496D01*
X112094234Y-94515919D01*
X111998310Y-94475003D01*
X111834958Y-94466992D01*
X111649804Y-94455125D01*
X111567973Y-94407164D01*
X111551950Y-94325488D01*
X111501921Y-94207239D01*
X111410446Y-94183983D01*
X111292197Y-94234013D01*
X111268942Y-94325488D01*
X111218912Y-94443736D01*
X111127438Y-94466992D01*
X111048405Y-94482481D01*
X111005699Y-94550524D01*
X110988535Y-94703480D01*
X110985933Y-94891504D01*
X110702925Y-94891504D01*
X110702925Y-93900975D01*
X112400975Y-93900975D01*
X112400975Y-95599025D01*
X114099025Y-95599025D01*
X114099025Y-94891504D01*
X114382034Y-94891504D01*
X114432063Y-95009753D01*
X114523538Y-95033009D01*
X114641786Y-95083038D01*
X114665042Y-95174513D01*
X114715071Y-95292761D01*
X114806546Y-95316017D01*
X114924795Y-95265988D01*
X114948050Y-95174513D01*
X114898021Y-95056264D01*
X114806546Y-95033009D01*
X114688298Y-94982979D01*
X114665042Y-94891504D01*
X114715071Y-94773256D01*
X114806546Y-94750000D01*
X114924795Y-94699971D01*
X114948050Y-94608496D01*
X114998080Y-94490248D01*
X115089555Y-94466992D01*
X115207803Y-94416963D01*
X115231059Y-94325488D01*
X115207326Y-94232911D01*
X115111402Y-94191995D01*
X114948050Y-94183983D01*
X114766902Y-94190792D01*
X114686409Y-94238448D01*
X114665723Y-94367803D01*
X114665042Y-94466992D01*
X114653176Y-94652146D01*
X114605214Y-94733977D01*
X114523538Y-94750000D01*
X114405289Y-94800029D01*
X114382034Y-94891504D01*
X114099025Y-94891504D01*
X114099025Y-93900975D01*
X112400975Y-93900975D01*
X112400975Y-93476463D01*
X112683983Y-93476463D01*
X112734013Y-93594711D01*
X112825488Y-93617967D01*
X112943736Y-93567937D01*
X112966992Y-93476463D01*
X113250000Y-93476463D01*
X113300029Y-93594711D01*
X113391504Y-93617967D01*
X113509753Y-93567937D01*
X113533009Y-93476463D01*
X113482979Y-93358214D01*
X113391504Y-93334958D01*
X113273256Y-93384988D01*
X113250000Y-93476463D01*
X112966992Y-93476463D01*
X112916963Y-93358214D01*
X112825488Y-93334958D01*
X112707239Y-93384988D01*
X112683983Y-93476463D01*
X112400975Y-93476463D01*
X112400975Y-92627438D01*
X112966992Y-92627438D01*
X113017021Y-92745686D01*
X113108496Y-92768942D01*
X113533009Y-92768942D01*
X113544875Y-92954096D01*
X113592837Y-93035927D01*
X113674513Y-93051950D01*
X113767090Y-93028217D01*
X113808005Y-92932293D01*
X113816017Y-92768942D01*
X113804151Y-92583787D01*
X113756189Y-92501956D01*
X113674513Y-92485933D01*
X113581936Y-92509666D01*
X113541020Y-92605590D01*
X113533009Y-92768942D01*
X113108496Y-92768942D01*
X113226745Y-92718912D01*
X113250000Y-92627438D01*
X113199971Y-92509189D01*
X113108496Y-92485933D01*
X112990248Y-92535963D01*
X112966992Y-92627438D01*
X112400975Y-92627438D01*
X112400975Y-92202925D01*
X114099025Y-92202925D01*
X114099025Y-93900975D01*
X115797075Y-93900975D01*
G37*
X115797075Y-93900975D02*
X115797075Y-95599025D01*
X114099025Y-95599025D01*
X114099025Y-97297075D01*
X112400975Y-97297075D01*
X112400975Y-96023538D01*
X112966992Y-96023538D01*
X113017021Y-96141786D01*
X113108496Y-96165042D01*
X113226745Y-96215071D01*
X113250000Y-96306546D01*
X113273733Y-96399123D01*
X113369657Y-96440039D01*
X113533009Y-96448050D01*
X113718163Y-96436184D01*
X113799994Y-96388222D01*
X113816017Y-96306546D01*
X113765988Y-96188298D01*
X113674513Y-96165042D01*
X113556264Y-96115013D01*
X113533009Y-96023538D01*
X113509276Y-95930961D01*
X113413352Y-95890045D01*
X113250000Y-95882034D01*
X113064846Y-95893900D01*
X112983015Y-95941862D01*
X112966992Y-96023538D01*
X112400975Y-96023538D01*
X112400975Y-95599025D01*
X110702925Y-95599025D01*
X110702925Y-94891504D01*
X110985933Y-94891504D01*
X110991097Y-95128603D01*
X111013777Y-95256719D01*
X111064763Y-95308213D01*
X111127438Y-95316017D01*
X111245686Y-95265988D01*
X111268942Y-95174513D01*
X111292675Y-95081936D01*
X111388598Y-95041020D01*
X111551950Y-95033009D01*
X111737104Y-95044875D01*
X111818935Y-95092837D01*
X111834958Y-95174513D01*
X111884988Y-95292761D01*
X111976463Y-95316017D01*
X112094711Y-95265988D01*
X112117967Y-95174513D01*
X112067937Y-95056264D01*
X111976463Y-95033009D01*
X111858214Y-94982979D01*
X111834958Y-94891504D01*
X111884988Y-94773256D01*
X111976463Y-94750000D01*
X112094711Y-94699971D01*
X112117967Y-94608496D01*
X112094234Y-94515919D01*
X111998310Y-94475003D01*
X111834958Y-94466992D01*
X111649804Y-94455125D01*
X111567973Y-94407164D01*
X111551950Y-94325488D01*
X111501921Y-94207239D01*
X111410446Y-94183983D01*
X111292197Y-94234013D01*
X111268942Y-94325488D01*
X111218912Y-94443736D01*
X111127438Y-94466992D01*
X111048405Y-94482481D01*
X111005699Y-94550524D01*
X110988535Y-94703480D01*
X110985933Y-94891504D01*
X110702925Y-94891504D01*
X110702925Y-93900975D01*
X112400975Y-93900975D01*
X112400975Y-95599025D01*
X114099025Y-95599025D01*
X114099025Y-94891504D01*
X114382034Y-94891504D01*
X114432063Y-95009753D01*
X114523538Y-95033009D01*
X114641786Y-95083038D01*
X114665042Y-95174513D01*
X114715071Y-95292761D01*
X114806546Y-95316017D01*
X114924795Y-95265988D01*
X114948050Y-95174513D01*
X114898021Y-95056264D01*
X114806546Y-95033009D01*
X114688298Y-94982979D01*
X114665042Y-94891504D01*
X114715071Y-94773256D01*
X114806546Y-94750000D01*
X114924795Y-94699971D01*
X114948050Y-94608496D01*
X114998080Y-94490248D01*
X115089555Y-94466992D01*
X115207803Y-94416963D01*
X115231059Y-94325488D01*
X115207326Y-94232911D01*
X115111402Y-94191995D01*
X114948050Y-94183983D01*
X114766902Y-94190792D01*
X114686409Y-94238448D01*
X114665723Y-94367803D01*
X114665042Y-94466992D01*
X114653176Y-94652146D01*
X114605214Y-94733977D01*
X114523538Y-94750000D01*
X114405289Y-94800029D01*
X114382034Y-94891504D01*
X114099025Y-94891504D01*
X114099025Y-93900975D01*
X112400975Y-93900975D01*
X112400975Y-93476463D01*
X112683983Y-93476463D01*
X112734013Y-93594711D01*
X112825488Y-93617967D01*
X112943736Y-93567937D01*
X112966992Y-93476463D01*
X113250000Y-93476463D01*
X113300029Y-93594711D01*
X113391504Y-93617967D01*
X113509753Y-93567937D01*
X113533009Y-93476463D01*
X113482979Y-93358214D01*
X113391504Y-93334958D01*
X113273256Y-93384988D01*
X113250000Y-93476463D01*
X112966992Y-93476463D01*
X112916963Y-93358214D01*
X112825488Y-93334958D01*
X112707239Y-93384988D01*
X112683983Y-93476463D01*
X112400975Y-93476463D01*
X112400975Y-92627438D01*
X112966992Y-92627438D01*
X113017021Y-92745686D01*
X113108496Y-92768942D01*
X113533009Y-92768942D01*
X113544875Y-92954096D01*
X113592837Y-93035927D01*
X113674513Y-93051950D01*
X113767090Y-93028217D01*
X113808005Y-92932293D01*
X113816017Y-92768942D01*
X113804151Y-92583787D01*
X113756189Y-92501956D01*
X113674513Y-92485933D01*
X113581936Y-92509666D01*
X113541020Y-92605590D01*
X113533009Y-92768942D01*
X113108496Y-92768942D01*
X113226745Y-92718912D01*
X113250000Y-92627438D01*
X113199971Y-92509189D01*
X113108496Y-92485933D01*
X112990248Y-92535963D01*
X112966992Y-92627438D01*
X112400975Y-92627438D01*
X112400975Y-92202925D01*
X114099025Y-92202925D01*
X114099025Y-93900975D01*
X115797075Y-93900975D01*
G36*
X111206470Y-95897523D02*
G01*
X111249176Y-95965566D01*
X111266340Y-96118522D01*
X111268942Y-96306546D01*
X111274105Y-96543645D01*
X111296786Y-96671761D01*
X111347771Y-96723254D01*
X111410446Y-96731059D01*
X111503023Y-96707326D01*
X111543939Y-96611402D01*
X111551950Y-96448050D01*
X111563816Y-96262896D01*
X111611778Y-96181065D01*
X111693454Y-96165042D01*
X111811703Y-96215071D01*
X111834958Y-96306546D01*
X111884988Y-96424795D01*
X111976463Y-96448050D01*
X112094711Y-96498080D01*
X112117967Y-96589555D01*
X112067937Y-96707803D01*
X111976463Y-96731059D01*
X111858214Y-96781088D01*
X111834958Y-96872563D01*
X111811226Y-96965140D01*
X111715302Y-97006056D01*
X111551950Y-97014067D01*
X111366796Y-97002201D01*
X111284965Y-96954239D01*
X111268942Y-96872563D01*
X111218912Y-96754314D01*
X111127438Y-96731059D01*
X111048405Y-96715569D01*
X111005699Y-96647527D01*
X110988535Y-96494571D01*
X110985933Y-96306546D01*
X110991097Y-96069447D01*
X111013777Y-95941332D01*
X111064763Y-95889838D01*
X111127438Y-95882034D01*
X111206470Y-95897523D01*
G37*
X111206470Y-95897523D02*
X111249176Y-95965566D01*
X111266340Y-96118522D01*
X111268942Y-96306546D01*
X111274105Y-96543645D01*
X111296786Y-96671761D01*
X111347771Y-96723254D01*
X111410446Y-96731059D01*
X111503023Y-96707326D01*
X111543939Y-96611402D01*
X111551950Y-96448050D01*
X111563816Y-96262896D01*
X111611778Y-96181065D01*
X111693454Y-96165042D01*
X111811703Y-96215071D01*
X111834958Y-96306546D01*
X111884988Y-96424795D01*
X111976463Y-96448050D01*
X112094711Y-96498080D01*
X112117967Y-96589555D01*
X112067937Y-96707803D01*
X111976463Y-96731059D01*
X111858214Y-96781088D01*
X111834958Y-96872563D01*
X111811226Y-96965140D01*
X111715302Y-97006056D01*
X111551950Y-97014067D01*
X111366796Y-97002201D01*
X111284965Y-96954239D01*
X111268942Y-96872563D01*
X111218912Y-96754314D01*
X111127438Y-96731059D01*
X111048405Y-96715569D01*
X111005699Y-96647527D01*
X110988535Y-96494571D01*
X110985933Y-96306546D01*
X110991097Y-96069447D01*
X111013777Y-95941332D01*
X111064763Y-95889838D01*
X111127438Y-95882034D01*
X111206470Y-95897523D01*
G36*
X115207803Y-96215071D02*
G01*
X115231059Y-96306546D01*
X115181029Y-96424795D01*
X115089555Y-96448050D01*
X114971306Y-96498080D01*
X114948050Y-96589555D01*
X114998080Y-96707803D01*
X115089555Y-96731059D01*
X115207803Y-96781088D01*
X115231059Y-96872563D01*
X115181029Y-96990811D01*
X115089555Y-97014067D01*
X114971306Y-96964038D01*
X114948050Y-96872563D01*
X114898021Y-96754314D01*
X114806546Y-96731059D01*
X114688298Y-96781088D01*
X114665042Y-96872563D01*
X114615013Y-96990811D01*
X114523538Y-97014067D01*
X114430961Y-96990334D01*
X114390045Y-96894410D01*
X114382034Y-96731059D01*
X114388842Y-96549910D01*
X114436499Y-96469417D01*
X114565853Y-96448731D01*
X114665042Y-96448050D01*
X114850196Y-96436184D01*
X114932027Y-96388222D01*
X114948050Y-96306546D01*
X114998080Y-96188298D01*
X115089555Y-96165042D01*
X115207803Y-96215071D01*
G37*
X115207803Y-96215071D02*
X115231059Y-96306546D01*
X115181029Y-96424795D01*
X115089555Y-96448050D01*
X114971306Y-96498080D01*
X114948050Y-96589555D01*
X114998080Y-96707803D01*
X115089555Y-96731059D01*
X115207803Y-96781088D01*
X115231059Y-96872563D01*
X115181029Y-96990811D01*
X115089555Y-97014067D01*
X114971306Y-96964038D01*
X114948050Y-96872563D01*
X114898021Y-96754314D01*
X114806546Y-96731059D01*
X114688298Y-96781088D01*
X114665042Y-96872563D01*
X114615013Y-96990811D01*
X114523538Y-97014067D01*
X114430961Y-96990334D01*
X114390045Y-96894410D01*
X114382034Y-96731059D01*
X114388842Y-96549910D01*
X114436499Y-96469417D01*
X114565853Y-96448731D01*
X114665042Y-96448050D01*
X114850196Y-96436184D01*
X114932027Y-96388222D01*
X114948050Y-96306546D01*
X114998080Y-96188298D01*
X115089555Y-96165042D01*
X115207803Y-96215071D01*
G36*
X114641786Y-95932063D02*
G01*
X114665042Y-96023538D01*
X114615013Y-96141786D01*
X114523538Y-96165042D01*
X114405289Y-96115013D01*
X114382034Y-96023538D01*
X114432063Y-95905289D01*
X114523538Y-95882034D01*
X114641786Y-95932063D01*
G37*
X114641786Y-95932063D02*
X114665042Y-96023538D01*
X114615013Y-96141786D01*
X114523538Y-96165042D01*
X114405289Y-96115013D01*
X114382034Y-96023538D01*
X114432063Y-95905289D01*
X114523538Y-95882034D01*
X114641786Y-95932063D01*
G36*
X109830644Y-94234013D02*
G01*
X109853900Y-94325488D01*
X109803871Y-94443736D01*
X109712396Y-94466992D01*
X109594147Y-94517021D01*
X109570892Y-94608496D01*
X109620921Y-94726745D01*
X109712396Y-94750000D01*
X109830644Y-94800029D01*
X109853900Y-94891504D01*
X109903929Y-95009753D01*
X109995404Y-95033009D01*
X110113653Y-95083038D01*
X110136908Y-95174513D01*
X110086879Y-95292761D01*
X109995404Y-95316017D01*
X109877156Y-95265988D01*
X109853900Y-95174513D01*
X109803871Y-95056264D01*
X109712396Y-95033009D01*
X109594147Y-95083038D01*
X109570892Y-95174513D01*
X109520862Y-95292761D01*
X109429387Y-95316017D01*
X109350354Y-95300527D01*
X109307649Y-95232485D01*
X109290485Y-95079529D01*
X109287883Y-94891504D01*
X109293046Y-94654406D01*
X109315727Y-94526290D01*
X109366713Y-94474796D01*
X109429387Y-94466992D01*
X109547636Y-94416963D01*
X109570892Y-94325488D01*
X109620921Y-94207239D01*
X109712396Y-94183983D01*
X109830644Y-94234013D01*
G37*
X109830644Y-94234013D02*
X109853900Y-94325488D01*
X109803871Y-94443736D01*
X109712396Y-94466992D01*
X109594147Y-94517021D01*
X109570892Y-94608496D01*
X109620921Y-94726745D01*
X109712396Y-94750000D01*
X109830644Y-94800029D01*
X109853900Y-94891504D01*
X109903929Y-95009753D01*
X109995404Y-95033009D01*
X110113653Y-95083038D01*
X110136908Y-95174513D01*
X110086879Y-95292761D01*
X109995404Y-95316017D01*
X109877156Y-95265988D01*
X109853900Y-95174513D01*
X109803871Y-95056264D01*
X109712396Y-95033009D01*
X109594147Y-95083038D01*
X109570892Y-95174513D01*
X109520862Y-95292761D01*
X109429387Y-95316017D01*
X109350354Y-95300527D01*
X109307649Y-95232485D01*
X109290485Y-95079529D01*
X109287883Y-94891504D01*
X109293046Y-94654406D01*
X109315727Y-94526290D01*
X109366713Y-94474796D01*
X109429387Y-94466992D01*
X109547636Y-94416963D01*
X109570892Y-94325488D01*
X109620921Y-94207239D01*
X109712396Y-94183983D01*
X109830644Y-94234013D01*
G36*
X116597173Y-94207716D02*
G01*
X116638089Y-94303640D01*
X116646100Y-94466992D01*
X116652909Y-94648140D01*
X116700565Y-94728633D01*
X116829920Y-94749320D01*
X116929109Y-94750000D01*
X117110257Y-94756808D01*
X117190750Y-94804465D01*
X117211437Y-94933820D01*
X117212117Y-95033009D01*
X117212117Y-95316017D01*
X116646100Y-95316017D01*
X116364087Y-95313063D01*
X116195069Y-95299456D01*
X116110583Y-95268081D01*
X116082167Y-95211821D01*
X116080084Y-95174513D01*
X116130113Y-95056264D01*
X116221588Y-95033009D01*
X116339836Y-94982979D01*
X116363092Y-94891504D01*
X116313063Y-94773256D01*
X116221588Y-94750000D01*
X116103339Y-94699971D01*
X116080084Y-94608496D01*
X116130113Y-94490248D01*
X116221588Y-94466992D01*
X116339836Y-94416963D01*
X116363092Y-94325488D01*
X116413121Y-94207239D01*
X116504596Y-94183983D01*
X116597173Y-94207716D01*
G37*
X116597173Y-94207716D02*
X116638089Y-94303640D01*
X116646100Y-94466992D01*
X116652909Y-94648140D01*
X116700565Y-94728633D01*
X116829920Y-94749320D01*
X116929109Y-94750000D01*
X117110257Y-94756808D01*
X117190750Y-94804465D01*
X117211437Y-94933820D01*
X117212117Y-95033009D01*
X117212117Y-95316017D01*
X116646100Y-95316017D01*
X116364087Y-95313063D01*
X116195069Y-95299456D01*
X116110583Y-95268081D01*
X116082167Y-95211821D01*
X116080084Y-95174513D01*
X116130113Y-95056264D01*
X116221588Y-95033009D01*
X116339836Y-94982979D01*
X116363092Y-94891504D01*
X116313063Y-94773256D01*
X116221588Y-94750000D01*
X116103339Y-94699971D01*
X116080084Y-94608496D01*
X116130113Y-94490248D01*
X116221588Y-94466992D01*
X116339836Y-94416963D01*
X116363092Y-94325488D01*
X116413121Y-94207239D01*
X116504596Y-94183983D01*
X116597173Y-94207716D01*
G36*
X112117967Y-93617967D02*
G01*
X111693454Y-93617967D01*
X111456355Y-93612804D01*
X111328240Y-93590123D01*
X111276746Y-93539137D01*
X111268942Y-93476463D01*
X111218912Y-93358214D01*
X111127438Y-93334958D01*
X111048405Y-93319469D01*
X111005699Y-93251427D01*
X110999194Y-93193454D01*
X111268942Y-93193454D01*
X111292675Y-93286031D01*
X111388598Y-93326947D01*
X111551950Y-93334958D01*
X111737104Y-93323092D01*
X111818935Y-93275130D01*
X111834958Y-93193454D01*
X111811226Y-93100877D01*
X111715302Y-93059962D01*
X111551950Y-93051950D01*
X111366796Y-93063816D01*
X111284965Y-93111778D01*
X111268942Y-93193454D01*
X110999194Y-93193454D01*
X110988535Y-93098470D01*
X110985933Y-92910446D01*
X110991097Y-92673347D01*
X111013777Y-92545231D01*
X111064763Y-92493738D01*
X111127438Y-92485933D01*
X111245686Y-92535963D01*
X111268942Y-92627438D01*
X111318971Y-92745686D01*
X111410446Y-92768942D01*
X111528694Y-92718912D01*
X111551950Y-92627438D01*
X111575683Y-92534860D01*
X111671607Y-92493945D01*
X111834958Y-92485933D01*
X112117967Y-92485933D01*
X112117967Y-93617967D01*
G37*
X112117967Y-93617967D02*
X111693454Y-93617967D01*
X111456355Y-93612804D01*
X111328240Y-93590123D01*
X111276746Y-93539137D01*
X111268942Y-93476463D01*
X111218912Y-93358214D01*
X111127438Y-93334958D01*
X111048405Y-93319469D01*
X111005699Y-93251427D01*
X110999194Y-93193454D01*
X111268942Y-93193454D01*
X111292675Y-93286031D01*
X111388598Y-93326947D01*
X111551950Y-93334958D01*
X111737104Y-93323092D01*
X111818935Y-93275130D01*
X111834958Y-93193454D01*
X111811226Y-93100877D01*
X111715302Y-93059962D01*
X111551950Y-93051950D01*
X111366796Y-93063816D01*
X111284965Y-93111778D01*
X111268942Y-93193454D01*
X110999194Y-93193454D01*
X110988535Y-93098470D01*
X110985933Y-92910446D01*
X110991097Y-92673347D01*
X111013777Y-92545231D01*
X111064763Y-92493738D01*
X111127438Y-92485933D01*
X111245686Y-92535963D01*
X111268942Y-92627438D01*
X111318971Y-92745686D01*
X111410446Y-92768942D01*
X111528694Y-92718912D01*
X111551950Y-92627438D01*
X111575683Y-92534860D01*
X111671607Y-92493945D01*
X111834958Y-92485933D01*
X112117967Y-92485933D01*
X112117967Y-93617967D01*
G36*
X114594041Y-92497750D02*
G01*
X114636296Y-92552177D01*
X114657417Y-92677678D01*
X114664521Y-92902715D01*
X114665042Y-93051950D01*
X114662088Y-93333964D01*
X114648481Y-93502982D01*
X114617106Y-93587467D01*
X114560846Y-93615884D01*
X114523538Y-93617967D01*
X114453034Y-93606150D01*
X114410780Y-93551723D01*
X114389659Y-93426223D01*
X114382554Y-93201185D01*
X114382034Y-93051950D01*
X114384988Y-92769936D01*
X114398595Y-92600918D01*
X114429970Y-92516433D01*
X114486229Y-92488016D01*
X114523538Y-92485933D01*
X114594041Y-92497750D01*
G37*
X114594041Y-92497750D02*
X114636296Y-92552177D01*
X114657417Y-92677678D01*
X114664521Y-92902715D01*
X114665042Y-93051950D01*
X114662088Y-93333964D01*
X114648481Y-93502982D01*
X114617106Y-93587467D01*
X114560846Y-93615884D01*
X114523538Y-93617967D01*
X114453034Y-93606150D01*
X114410780Y-93551723D01*
X114389659Y-93426223D01*
X114382554Y-93201185D01*
X114382034Y-93051950D01*
X114384988Y-92769936D01*
X114398595Y-92600918D01*
X114429970Y-92516433D01*
X114486229Y-92488016D01*
X114523538Y-92485933D01*
X114594041Y-92497750D01*
G36*
X115207803Y-93384988D02*
G01*
X115231059Y-93476463D01*
X115181029Y-93594711D01*
X115089555Y-93617967D01*
X114971306Y-93567937D01*
X114948050Y-93476463D01*
X114998080Y-93358214D01*
X115089555Y-93334958D01*
X115207803Y-93384988D01*
G37*
X115207803Y-93384988D02*
X115231059Y-93476463D01*
X115181029Y-93594711D01*
X115089555Y-93617967D01*
X114971306Y-93567937D01*
X114948050Y-93476463D01*
X114998080Y-93358214D01*
X115089555Y-93334958D01*
X115207803Y-93384988D01*
G36*
X115207803Y-92535963D02*
G01*
X115231059Y-92627438D01*
X115281088Y-92745686D01*
X115372563Y-92768942D01*
X115490811Y-92818971D01*
X115514067Y-92910446D01*
X115490334Y-93003023D01*
X115394410Y-93043939D01*
X115231059Y-93051950D01*
X115049910Y-93045142D01*
X114969417Y-92997485D01*
X114948731Y-92868131D01*
X114948050Y-92768942D01*
X114959917Y-92583787D01*
X115007879Y-92501956D01*
X115089555Y-92485933D01*
X115207803Y-92535963D01*
G37*
X115207803Y-92535963D02*
X115231059Y-92627438D01*
X115281088Y-92745686D01*
X115372563Y-92768942D01*
X115490811Y-92818971D01*
X115514067Y-92910446D01*
X115490334Y-93003023D01*
X115394410Y-93043939D01*
X115231059Y-93051950D01*
X115049910Y-93045142D01*
X114969417Y-92997485D01*
X114948731Y-92868131D01*
X114948050Y-92768942D01*
X114959917Y-92583787D01*
X115007879Y-92501956D01*
X115089555Y-92485933D01*
X115207803Y-92535963D01*
G36*
X110039054Y-90799750D02*
G01*
X110120885Y-90847712D01*
X110136908Y-90929387D01*
X110186938Y-91047636D01*
X110278412Y-91070892D01*
X110396661Y-91120921D01*
X110419917Y-91212396D01*
X110369887Y-91330644D01*
X110278412Y-91353900D01*
X110160164Y-91403929D01*
X110136908Y-91495404D01*
X110186938Y-91613653D01*
X110278412Y-91636908D01*
X110396661Y-91686938D01*
X110419917Y-91778412D01*
X110396184Y-91870990D01*
X110300260Y-91911905D01*
X110136908Y-91919917D01*
X109951754Y-91908050D01*
X109869923Y-91860088D01*
X109853900Y-91778412D01*
X109803871Y-91660164D01*
X109712396Y-91636908D01*
X109594147Y-91586879D01*
X109570892Y-91495404D01*
X109520862Y-91377156D01*
X109429387Y-91353900D01*
X109311139Y-91303871D01*
X109287883Y-91212396D01*
X109337912Y-91094147D01*
X109429387Y-91070892D01*
X109547636Y-91020862D01*
X109570892Y-90929387D01*
X109594624Y-90836810D01*
X109690548Y-90795895D01*
X109853900Y-90787883D01*
X110039054Y-90799750D01*
G37*
X110039054Y-90799750D02*
X110120885Y-90847712D01*
X110136908Y-90929387D01*
X110186938Y-91047636D01*
X110278412Y-91070892D01*
X110396661Y-91120921D01*
X110419917Y-91212396D01*
X110369887Y-91330644D01*
X110278412Y-91353900D01*
X110160164Y-91403929D01*
X110136908Y-91495404D01*
X110186938Y-91613653D01*
X110278412Y-91636908D01*
X110396661Y-91686938D01*
X110419917Y-91778412D01*
X110396184Y-91870990D01*
X110300260Y-91911905D01*
X110136908Y-91919917D01*
X109951754Y-91908050D01*
X109869923Y-91860088D01*
X109853900Y-91778412D01*
X109803871Y-91660164D01*
X109712396Y-91636908D01*
X109594147Y-91586879D01*
X109570892Y-91495404D01*
X109520862Y-91377156D01*
X109429387Y-91353900D01*
X109311139Y-91303871D01*
X109287883Y-91212396D01*
X109337912Y-91094147D01*
X109429387Y-91070892D01*
X109547636Y-91020862D01*
X109570892Y-90929387D01*
X109594624Y-90836810D01*
X109690548Y-90795895D01*
X109853900Y-90787883D01*
X110039054Y-90799750D01*
G36*
X113816017Y-91919917D02*
G01*
X112683983Y-91919917D01*
X112683983Y-91353900D01*
X113816017Y-91353900D01*
X113816017Y-91919917D01*
G37*
X113816017Y-91919917D02*
X112683983Y-91919917D01*
X112683983Y-91353900D01*
X113816017Y-91353900D01*
X113816017Y-91919917D01*
G36*
X116831255Y-90799750D02*
G01*
X116913086Y-90847712D01*
X116929109Y-90929387D01*
X116979138Y-91047636D01*
X117070613Y-91070892D01*
X117149646Y-91086381D01*
X117192351Y-91154423D01*
X117209516Y-91307380D01*
X117212117Y-91495404D01*
X117212117Y-91919917D01*
X116080084Y-91919917D01*
X116080084Y-91495404D01*
X116085247Y-91258305D01*
X116107928Y-91130189D01*
X116158913Y-91078696D01*
X116221588Y-91070892D01*
X116339836Y-91020862D01*
X116363092Y-90929387D01*
X116386825Y-90836810D01*
X116482749Y-90795895D01*
X116646100Y-90787883D01*
X116831255Y-90799750D01*
G37*
X116831255Y-90799750D02*
X116913086Y-90847712D01*
X116929109Y-90929387D01*
X116979138Y-91047636D01*
X117070613Y-91070892D01*
X117149646Y-91086381D01*
X117192351Y-91154423D01*
X117209516Y-91307380D01*
X117212117Y-91495404D01*
X117212117Y-91919917D01*
X116080084Y-91919917D01*
X116080084Y-91495404D01*
X116085247Y-91258305D01*
X116107928Y-91130189D01*
X116158913Y-91078696D01*
X116221588Y-91070892D01*
X116339836Y-91020862D01*
X116363092Y-90929387D01*
X116386825Y-90836810D01*
X116482749Y-90795895D01*
X116646100Y-90787883D01*
X116831255Y-90799750D01*
G36*
X113226745Y-90837912D02*
G01*
X113250000Y-90929387D01*
X113199971Y-91047636D01*
X113108496Y-91070892D01*
X112990248Y-91020862D01*
X112966992Y-90929387D01*
X113017021Y-90811139D01*
X113108496Y-90787883D01*
X113226745Y-90837912D01*
G37*
X113226745Y-90837912D02*
X113250000Y-90929387D01*
X113199971Y-91047636D01*
X113108496Y-91070892D01*
X112990248Y-91020862D01*
X112966992Y-90929387D01*
X113017021Y-90811139D01*
X113108496Y-90787883D01*
X113226745Y-90837912D01*
G36*
X116905853Y-96215071D02*
G01*
X116929109Y-96306546D01*
X116879080Y-96424795D01*
X116787605Y-96448050D01*
X116669356Y-96398021D01*
X116646100Y-96306546D01*
X116696130Y-96188298D01*
X116787605Y-96165042D01*
X116905853Y-96215071D01*
G37*
X116905853Y-96215071D02*
X116929109Y-96306546D01*
X116879080Y-96424795D01*
X116787605Y-96448050D01*
X116669356Y-96398021D01*
X116646100Y-96306546D01*
X116696130Y-96188298D01*
X116787605Y-96165042D01*
X116905853Y-96215071D01*
G36*
X113152146Y-94195850D02*
G01*
X113233977Y-94243812D01*
X113250000Y-94325488D01*
X113273733Y-94418065D01*
X113369657Y-94458980D01*
X113533009Y-94466992D01*
X113718163Y-94478858D01*
X113799994Y-94526820D01*
X113816017Y-94608496D01*
X113765988Y-94726745D01*
X113674513Y-94750000D01*
X113556264Y-94800029D01*
X113533009Y-94891504D01*
X113517519Y-94970537D01*
X113449477Y-95013243D01*
X113296520Y-95030407D01*
X113108496Y-95033009D01*
X112683983Y-95033009D01*
X112683983Y-94608496D01*
X112966992Y-94608496D01*
X113017021Y-94726745D01*
X113108496Y-94750000D01*
X113226745Y-94699971D01*
X113250000Y-94608496D01*
X113199971Y-94490248D01*
X113108496Y-94466992D01*
X112990248Y-94517021D01*
X112966992Y-94608496D01*
X112683983Y-94608496D01*
X112683983Y-94183983D01*
X112966992Y-94183983D01*
X113152146Y-94195850D01*
G37*
X113152146Y-94195850D02*
X113233977Y-94243812D01*
X113250000Y-94325488D01*
X113273733Y-94418065D01*
X113369657Y-94458980D01*
X113533009Y-94466992D01*
X113718163Y-94478858D01*
X113799994Y-94526820D01*
X113816017Y-94608496D01*
X113765988Y-94726745D01*
X113674513Y-94750000D01*
X113556264Y-94800029D01*
X113533009Y-94891504D01*
X113517519Y-94970537D01*
X113449477Y-95013243D01*
X113296520Y-95030407D01*
X113108496Y-95033009D01*
X112683983Y-95033009D01*
X112683983Y-94608496D01*
X112966992Y-94608496D01*
X113017021Y-94726745D01*
X113108496Y-94750000D01*
X113226745Y-94699971D01*
X113250000Y-94608496D01*
X113199971Y-94490248D01*
X113108496Y-94466992D01*
X112990248Y-94517021D01*
X112966992Y-94608496D01*
X112683983Y-94608496D01*
X112683983Y-94183983D01*
X112966992Y-94183983D01*
X113152146Y-94195850D01*
D12*
X137500000Y-98000000D03*
X133000000Y-98000000D03*
X137500000Y-91500000D03*
X133000000Y-91500000D03*
D13*
X139000000Y-73000000D03*
D14*
X136460000Y-73000000D03*
X133920000Y-73000000D03*
D15*
X148500000Y-88500000D03*
X143500000Y-88500000D03*
X143500000Y-72500000D03*
X148500000Y-72500000D03*
D16*
X152500000Y-90000000D03*
D17*
X152500000Y-79840000D03*
D18*
X105000000Y-95000000D03*
X165000000Y-95000000D03*
X165000000Y-75000000D03*
X105000000Y-75000000D03*
D19*
X110000000Y-82500000D03*
D20*
X110000000Y-87500000D03*
X160000000Y-82500000D03*
D19*
X160000000Y-87500000D03*
D12*
X148500000Y-83040000D03*
X148500000Y-80500000D03*
X148500000Y-77960000D03*
D21*
X135500000Y-79000000D03*
D22*
X135500000Y-81540000D03*
X135500000Y-84080000D03*
X135500000Y-86620000D03*
D13*
X120000000Y-95500000D03*
D14*
X120000000Y-92960000D03*
X122540000Y-95500000D03*
X122540000Y-92960000D03*
X125080000Y-95500000D03*
X125080000Y-92960000D03*
X127620000Y-95500000D03*
X127620000Y-92960000D03*
D13*
X142500000Y-94000000D03*
D14*
X142500000Y-96540000D03*
X145040000Y-94000000D03*
X145040000Y-96540000D03*
X147580000Y-94000000D03*
X147580000Y-96540000D03*
X150120000Y-94000000D03*
X150120000Y-96540000D03*
D15*
X140250000Y-78000000D03*
D23*
X140250000Y-85620000D03*
D24*
X127250000Y-98250000D03*
X130000000Y-98250000D03*
X120750000Y-98250000D03*
X123500000Y-98250000D03*
X133500000Y-83250000D03*
X130500000Y-86250000D03*
X127250000Y-89500000D03*
X126000000Y-90750000D03*
X141000000Y-74000000D03*
X141250000Y-88000000D03*
X141250000Y-91000000D03*
X130000000Y-93000000D03*
D25*
X150000000Y-90000000D02*
X148500000Y-88500000D01*
X152500000Y-90000000D02*
X150000000Y-90000000D01*
X148500000Y-88500000D02*
X148500000Y-83040000D01*
X140290000Y-77960000D02*
X140250000Y-78000000D01*
X148500000Y-77960000D02*
X140290000Y-77960000D01*
X136500000Y-78000000D02*
X135500000Y-79000000D01*
X140250000Y-78000000D02*
X136500000Y-78000000D01*
X135500000Y-79000000D02*
X135500000Y-79258002D01*
D26*
X127620000Y-95500000D02*
X127795001Y-95324999D01*
D25*
X147049999Y-90929999D02*
X150120000Y-94000000D01*
X147049999Y-79410001D02*
X147049999Y-90929999D01*
X148500000Y-77960000D02*
X147049999Y-79410001D01*
X128920001Y-94199999D02*
X127620000Y-95500000D01*
X128920001Y-84329999D02*
X128920001Y-94199999D01*
X134250000Y-79000000D02*
X128920001Y-84329999D01*
X135500000Y-79000000D02*
X134250000Y-79000000D01*
D27*
X150475633Y-76259999D02*
X152500000Y-78284366D01*
X116240001Y-76259999D02*
X150475633Y-76259999D01*
X152500000Y-78284366D02*
X152500000Y-79840000D01*
X110000000Y-82500000D02*
X116240001Y-76259999D01*
X160000000Y-87340000D02*
X160000000Y-87500000D01*
X152500000Y-79840000D02*
X160000000Y-87340000D01*
D26*
X148944999Y-95364999D02*
X150120000Y-96540000D01*
X148944999Y-93638185D02*
X148944999Y-95364999D01*
X148131813Y-92824999D02*
X148944999Y-93638185D01*
X141389999Y-92824999D02*
X148131813Y-92824999D01*
X141214998Y-93000000D02*
X141389999Y-92824999D01*
X130000000Y-93000000D02*
X141214998Y-93000000D01*
X125080000Y-93596410D02*
X125080000Y-92960000D01*
X146404999Y-97715001D02*
X147580000Y-96540000D01*
X141935999Y-97715001D02*
X146404999Y-97715001D01*
X140895997Y-96674999D02*
X141935999Y-97715001D01*
X134325001Y-96674999D02*
X140895997Y-96674999D01*
X133000000Y-98000000D02*
X134325001Y-96674999D01*
X136170000Y-81540000D02*
X135500000Y-81540000D01*
X140250000Y-85620000D02*
X136170000Y-81540000D01*
X146404999Y-95175001D02*
X147580000Y-94000000D01*
X133863997Y-95175001D02*
X146404999Y-95175001D01*
X126255001Y-96675001D02*
X132363997Y-96675001D01*
X132363997Y-96675001D02*
X133863997Y-95175001D01*
X125080000Y-95500000D02*
X126255001Y-96675001D01*
D28*
X169340000Y-71032418D02*
X169340001Y-71032428D01*
X169340000Y-99340000D01*
X133937470Y-99340000D01*
X134042252Y-99269987D01*
X134269987Y-99042252D01*
X134448918Y-98774463D01*
X134572168Y-98476912D01*
X134635000Y-98161033D01*
X134635000Y-97838967D01*
X134572168Y-97523088D01*
X134566177Y-97508625D01*
X134639804Y-97434999D01*
X140581196Y-97434999D01*
X141372200Y-98226004D01*
X141395998Y-98255002D01*
X141424996Y-98278800D01*
X141511722Y-98349975D01*
X141634254Y-98415470D01*
X141643752Y-98420547D01*
X141787013Y-98464004D01*
X141898666Y-98475001D01*
X141898676Y-98475001D01*
X141935999Y-98478677D01*
X141973322Y-98475001D01*
X146367677Y-98475001D01*
X146404999Y-98478677D01*
X146442321Y-98475001D01*
X146442332Y-98475001D01*
X146553985Y-98464004D01*
X146697246Y-98420547D01*
X146829275Y-98349975D01*
X146945000Y-98255002D01*
X146968803Y-98225998D01*
X147213592Y-97981209D01*
X147433740Y-98025000D01*
X147726260Y-98025000D01*
X148013158Y-97967932D01*
X148283411Y-97855990D01*
X148526632Y-97693475D01*
X148733475Y-97486632D01*
X148850000Y-97312240D01*
X148966525Y-97486632D01*
X149173368Y-97693475D01*
X149416589Y-97855990D01*
X149686842Y-97967932D01*
X149973740Y-98025000D01*
X150266260Y-98025000D01*
X150553158Y-97967932D01*
X150823411Y-97855990D01*
X151066632Y-97693475D01*
X151273475Y-97486632D01*
X151435990Y-97243411D01*
X151547932Y-96973158D01*
X151605000Y-96686260D01*
X151605000Y-96393740D01*
X151547932Y-96106842D01*
X151435990Y-95836589D01*
X151273475Y-95593368D01*
X151066632Y-95386525D01*
X150892240Y-95270000D01*
X151066632Y-95153475D01*
X151273475Y-94946632D01*
X151435990Y-94703411D01*
X151547932Y-94433158D01*
X151605000Y-94146260D01*
X151605000Y-93853740D01*
X151547932Y-93566842D01*
X151435990Y-93296589D01*
X151273475Y-93053368D01*
X151066632Y-92846525D01*
X150823411Y-92684010D01*
X150553158Y-92572068D01*
X150266260Y-92515000D01*
X149973740Y-92515000D01*
X149901040Y-92529461D01*
X147934999Y-90563421D01*
X147934999Y-89819201D01*
X148081426Y-89879853D01*
X148358665Y-89935000D01*
X148641335Y-89935000D01*
X148676439Y-89928017D01*
X149343470Y-90595049D01*
X149371183Y-90628817D01*
X149404951Y-90656530D01*
X149404953Y-90656532D01*
X149448986Y-90692669D01*
X149505941Y-90739411D01*
X149659687Y-90821589D01*
X149826510Y-90872195D01*
X149956523Y-90885000D01*
X149956533Y-90885000D01*
X149999999Y-90889281D01*
X150043465Y-90885000D01*
X150761928Y-90885000D01*
X150761928Y-91100000D01*
X150774188Y-91224482D01*
X150810498Y-91344180D01*
X150869463Y-91454494D01*
X150948815Y-91551185D01*
X151045506Y-91630537D01*
X151155820Y-91689502D01*
X151275518Y-91725812D01*
X151400000Y-91738072D01*
X153600000Y-91738072D01*
X153724482Y-91725812D01*
X153760124Y-91715000D01*
X158210000Y-91715000D01*
X158210000Y-99285000D01*
X162030000Y-99285000D01*
X162030000Y-91715000D01*
X158210000Y-91715000D01*
X153760124Y-91715000D01*
X153844180Y-91689502D01*
X153954494Y-91630537D01*
X154051185Y-91551185D01*
X154130537Y-91454494D01*
X154189502Y-91344180D01*
X154225812Y-91224482D01*
X154238072Y-91100000D01*
X154238072Y-88900000D01*
X154225812Y-88775518D01*
X154189502Y-88655820D01*
X154130537Y-88545506D01*
X154051185Y-88448815D01*
X153954494Y-88369463D01*
X153844180Y-88310498D01*
X153724482Y-88274188D01*
X153600000Y-88261928D01*
X151400000Y-88261928D01*
X151275518Y-88274188D01*
X151155820Y-88310498D01*
X151045506Y-88369463D01*
X150948815Y-88448815D01*
X150869463Y-88545506D01*
X150810498Y-88655820D01*
X150774188Y-88775518D01*
X150761928Y-88900000D01*
X150761928Y-89115000D01*
X150366579Y-89115000D01*
X149928017Y-88676439D01*
X149935000Y-88641335D01*
X149935000Y-88358665D01*
X149879853Y-88081426D01*
X149771680Y-87820273D01*
X149614637Y-87585241D01*
X149414759Y-87385363D01*
X149385000Y-87365479D01*
X149385000Y-84415059D01*
X149542252Y-84309987D01*
X149769987Y-84082252D01*
X149948918Y-83814463D01*
X150072168Y-83516912D01*
X150135000Y-83201033D01*
X150135000Y-82878967D01*
X150072168Y-82563088D01*
X149948918Y-82265537D01*
X149769987Y-81997748D01*
X149542252Y-81770013D01*
X149274463Y-81591082D01*
X148976912Y-81467832D01*
X148661033Y-81405000D01*
X148338967Y-81405000D01*
X148023088Y-81467832D01*
X147934999Y-81504320D01*
X147934999Y-79776579D01*
X148153475Y-79558103D01*
X148338967Y-79595000D01*
X148661033Y-79595000D01*
X148976912Y-79532168D01*
X149274463Y-79408918D01*
X149542252Y-79229987D01*
X149769987Y-79002252D01*
X149948918Y-78734463D01*
X150072168Y-78436912D01*
X150135000Y-78121033D01*
X150135000Y-77798967D01*
X150072168Y-77483088D01*
X150057020Y-77446517D01*
X151248421Y-78637918D01*
X151152337Y-78734002D01*
X150962463Y-79018169D01*
X150831675Y-79333919D01*
X150765000Y-79669117D01*
X150765000Y-80010883D01*
X150831675Y-80346081D01*
X150962463Y-80661831D01*
X151152337Y-80945998D01*
X151394002Y-81187663D01*
X151678169Y-81377537D01*
X151993919Y-81508325D01*
X152329117Y-81575000D01*
X152629869Y-81575000D01*
X157861928Y-86807061D01*
X157861928Y-88250000D01*
X157874188Y-88374482D01*
X157910498Y-88494180D01*
X157969463Y-88604494D01*
X158048815Y-88701185D01*
X158145506Y-88780537D01*
X158255820Y-88839502D01*
X158375518Y-88875812D01*
X158500000Y-88888072D01*
X161500000Y-88888072D01*
X161624482Y-88875812D01*
X161744180Y-88839502D01*
X161854494Y-88780537D01*
X161951185Y-88701185D01*
X162030537Y-88604494D01*
X162089502Y-88494180D01*
X162125812Y-88374482D01*
X162138072Y-88250000D01*
X162138072Y-86750000D01*
X162125812Y-86625518D01*
X162089502Y-86505820D01*
X162030537Y-86395506D01*
X161951185Y-86298815D01*
X161854494Y-86219463D01*
X161744180Y-86160498D01*
X161624482Y-86124188D01*
X161500000Y-86111928D01*
X160377061Y-86111928D01*
X154235000Y-79969869D01*
X154235000Y-79669117D01*
X154168325Y-79333919D01*
X154037537Y-79018169D01*
X153847663Y-78734002D01*
X153635000Y-78521339D01*
X153635000Y-78340107D01*
X153640490Y-78284365D01*
X153635000Y-78228623D01*
X153635000Y-78228614D01*
X153618577Y-78061867D01*
X153553676Y-77847919D01*
X153448284Y-77650743D01*
X153306449Y-77477917D01*
X153263141Y-77442375D01*
X151317629Y-75496864D01*
X151282082Y-75453550D01*
X151109256Y-75311715D01*
X150912080Y-75206323D01*
X150698132Y-75141422D01*
X150531385Y-75124999D01*
X150531384Y-75124999D01*
X150475633Y-75119508D01*
X150419882Y-75124999D01*
X116295752Y-75124999D01*
X116240000Y-75119508D01*
X116184249Y-75124999D01*
X116017502Y-75141422D01*
X115803554Y-75206323D01*
X115606378Y-75311715D01*
X115433552Y-75453550D01*
X115398010Y-75496858D01*
X109782941Y-81111928D01*
X108500000Y-81111928D01*
X108375518Y-81124188D01*
X108255820Y-81160498D01*
X108145506Y-81219463D01*
X108048815Y-81298815D01*
X107969463Y-81395506D01*
X107910498Y-81505820D01*
X107874188Y-81625518D01*
X107861928Y-81750000D01*
X107861928Y-83250000D01*
X107874188Y-83374482D01*
X107910498Y-83494180D01*
X107969463Y-83604494D01*
X108048815Y-83701185D01*
X108145506Y-83780537D01*
X108255820Y-83839502D01*
X108375518Y-83875812D01*
X108500000Y-83888072D01*
X111500000Y-83888072D01*
X111624482Y-83875812D01*
X111744180Y-83839502D01*
X111854494Y-83780537D01*
X111951185Y-83701185D01*
X112030537Y-83604494D01*
X112089502Y-83494180D01*
X112125812Y-83374482D01*
X112138072Y-83250000D01*
X112138072Y-81967059D01*
X116710133Y-77394999D01*
X135851638Y-77394999D01*
X135843470Y-77404951D01*
X135636493Y-77611928D01*
X134750000Y-77611928D01*
X134625518Y-77624188D01*
X134505820Y-77660498D01*
X134395506Y-77719463D01*
X134298815Y-77798815D01*
X134219463Y-77895506D01*
X134160498Y-78005820D01*
X134124941Y-78123035D01*
X134076510Y-78127805D01*
X133909687Y-78178411D01*
X133815763Y-78228614D01*
X133755941Y-78260589D01*
X133654953Y-78343468D01*
X133654951Y-78343470D01*
X133621183Y-78371183D01*
X133593470Y-78404951D01*
X128324957Y-83673465D01*
X128291184Y-83701182D01*
X128180590Y-83835941D01*
X128098412Y-83989687D01*
X128047806Y-84156510D01*
X128035001Y-84286523D01*
X128035001Y-84286530D01*
X128030720Y-84329999D01*
X128035001Y-84373468D01*
X128035002Y-91528456D01*
X127766260Y-91475000D01*
X127473740Y-91475000D01*
X127186842Y-91532068D01*
X126916589Y-91644010D01*
X126673368Y-91806525D01*
X126466525Y-92013368D01*
X126350000Y-92187760D01*
X126233475Y-92013368D01*
X126026632Y-91806525D01*
X125783411Y-91644010D01*
X125513158Y-91532068D01*
X125226260Y-91475000D01*
X124933740Y-91475000D01*
X124646842Y-91532068D01*
X124376589Y-91644010D01*
X124133368Y-91806525D01*
X123926525Y-92013368D01*
X123810000Y-92187760D01*
X123693475Y-92013368D01*
X123486632Y-91806525D01*
X123243411Y-91644010D01*
X122973158Y-91532068D01*
X122686260Y-91475000D01*
X122393740Y-91475000D01*
X122106842Y-91532068D01*
X121836589Y-91644010D01*
X121593368Y-91806525D01*
X121386525Y-92013368D01*
X121224010Y-92256589D01*
X121112068Y-92526842D01*
X121055000Y-92813740D01*
X121055000Y-93106260D01*
X121112068Y-93393158D01*
X121224010Y-93663411D01*
X121386525Y-93906632D01*
X121593368Y-94113475D01*
X121767760Y-94230000D01*
X121593368Y-94346525D01*
X121461513Y-94478380D01*
X121439502Y-94405820D01*
X121380537Y-94295506D01*
X121301185Y-94198815D01*
X121204494Y-94119463D01*
X121094180Y-94060498D01*
X120974482Y-94024188D01*
X120850000Y-94011928D01*
X119150000Y-94011928D01*
X119025518Y-94024188D01*
X118905820Y-94060498D01*
X118795506Y-94119463D01*
X118698815Y-94198815D01*
X118619463Y-94295506D01*
X118560498Y-94405820D01*
X118524188Y-94525518D01*
X118511928Y-94650000D01*
X118511928Y-96350000D01*
X118524188Y-96474482D01*
X118560498Y-96594180D01*
X118619463Y-96704494D01*
X118698815Y-96801185D01*
X118795506Y-96880537D01*
X118905820Y-96939502D01*
X119025518Y-96975812D01*
X119150000Y-96988072D01*
X120850000Y-96988072D01*
X120974482Y-96975812D01*
X121094180Y-96939502D01*
X121204494Y-96880537D01*
X121301185Y-96801185D01*
X121380537Y-96704494D01*
X121439502Y-96594180D01*
X121461513Y-96521620D01*
X121593368Y-96653475D01*
X121836589Y-96815990D01*
X122106842Y-96927932D01*
X122393740Y-96985000D01*
X122686260Y-96985000D01*
X122973158Y-96927932D01*
X123243411Y-96815990D01*
X123486632Y-96653475D01*
X123693475Y-96446632D01*
X123810000Y-96272240D01*
X123926525Y-96446632D01*
X124133368Y-96653475D01*
X124376589Y-96815990D01*
X124646842Y-96927932D01*
X124933740Y-96985000D01*
X125226260Y-96985000D01*
X125446408Y-96941210D01*
X125691201Y-97186003D01*
X125715000Y-97215002D01*
X125830725Y-97309975D01*
X125962754Y-97380547D01*
X126106015Y-97424004D01*
X126217668Y-97435001D01*
X126217677Y-97435001D01*
X126255000Y-97438677D01*
X126292323Y-97435001D01*
X131464319Y-97435001D01*
X131427832Y-97523088D01*
X131365000Y-97838967D01*
X131365000Y-98161033D01*
X131427832Y-98476912D01*
X131551082Y-98774463D01*
X131730013Y-99042252D01*
X131957748Y-99269987D01*
X132062530Y-99340000D01*
X118412135Y-99340000D01*
X118418072Y-99287070D01*
X118418102Y-99282755D01*
X118418118Y-99282602D01*
X118418104Y-99282449D01*
X118418134Y-99278134D01*
X118418134Y-90221867D01*
X118412257Y-90161929D01*
X118406798Y-90101943D01*
X118406164Y-90099788D01*
X118405945Y-90097557D01*
X118388560Y-90039976D01*
X118371532Y-89982119D01*
X118370491Y-89980127D01*
X118369843Y-89977982D01*
X118341558Y-89924785D01*
X118313663Y-89871427D01*
X118312260Y-89869682D01*
X118311204Y-89867696D01*
X118273129Y-89821013D01*
X118235397Y-89774082D01*
X118233675Y-89772637D01*
X118232259Y-89770901D01*
X118185930Y-89732574D01*
X118139713Y-89693794D01*
X118137743Y-89692711D01*
X118136017Y-89691283D01*
X118083125Y-89662684D01*
X118030257Y-89633620D01*
X118028114Y-89632940D01*
X118026144Y-89631875D01*
X117968629Y-89614071D01*
X117911197Y-89595853D01*
X117908969Y-89595603D01*
X117906824Y-89594939D01*
X117846957Y-89588647D01*
X117787070Y-89581929D01*
X117782755Y-89581899D01*
X117782602Y-89581883D01*
X117782449Y-89581897D01*
X117778134Y-89581867D01*
X108721867Y-89581867D01*
X108661929Y-89587744D01*
X108601943Y-89593203D01*
X108599788Y-89593837D01*
X108597557Y-89594056D01*
X108539976Y-89611441D01*
X108482119Y-89628469D01*
X108480127Y-89629510D01*
X108477982Y-89630158D01*
X108424785Y-89658443D01*
X108371427Y-89686338D01*
X108369682Y-89687741D01*
X108367696Y-89688797D01*
X108321013Y-89726872D01*
X108274082Y-89764604D01*
X108272637Y-89766326D01*
X108270901Y-89767742D01*
X108232574Y-89814071D01*
X108193794Y-89860288D01*
X108192711Y-89862258D01*
X108191283Y-89863984D01*
X108162684Y-89916876D01*
X108133620Y-89969744D01*
X108132940Y-89971887D01*
X108131875Y-89973857D01*
X108114071Y-90031372D01*
X108095853Y-90088804D01*
X108095603Y-90091032D01*
X108094939Y-90093177D01*
X108088647Y-90153044D01*
X108081929Y-90212931D01*
X108081899Y-90217246D01*
X108081883Y-90217399D01*
X108081897Y-90217552D01*
X108081867Y-90221867D01*
X108081867Y-99278134D01*
X108087744Y-99338072D01*
X108087920Y-99340000D01*
X100660000Y-99340000D01*
X100660000Y-70715000D01*
X108210000Y-70715000D01*
X108210000Y-78285000D01*
X112030000Y-78285000D01*
X112030000Y-72853740D01*
X134975000Y-72853740D01*
X134975000Y-73146260D01*
X135032068Y-73433158D01*
X135144010Y-73703411D01*
X135306525Y-73946632D01*
X135513368Y-74153475D01*
X135756589Y-74315990D01*
X136026842Y-74427932D01*
X136313740Y-74485000D01*
X136606260Y-74485000D01*
X136893158Y-74427932D01*
X137163411Y-74315990D01*
X137406632Y-74153475D01*
X137538487Y-74021620D01*
X137560498Y-74094180D01*
X137619463Y-74204494D01*
X137698815Y-74301185D01*
X137795506Y-74380537D01*
X137905820Y-74439502D01*
X138025518Y-74475812D01*
X138150000Y-74488072D01*
X139850000Y-74488072D01*
X139974482Y-74475812D01*
X140094180Y-74439502D01*
X140204494Y-74380537D01*
X140301185Y-74301185D01*
X140380537Y-74204494D01*
X140439502Y-74094180D01*
X140475812Y-73974482D01*
X140488072Y-73850000D01*
X140488072Y-72358665D01*
X147065000Y-72358665D01*
X147065000Y-72641335D01*
X147120147Y-72918574D01*
X147228320Y-73179727D01*
X147385363Y-73414759D01*
X147585241Y-73614637D01*
X147820273Y-73771680D01*
X148081426Y-73879853D01*
X148358665Y-73935000D01*
X148641335Y-73935000D01*
X148918574Y-73879853D01*
X149179727Y-73771680D01*
X149414759Y-73614637D01*
X149614637Y-73414759D01*
X149771680Y-73179727D01*
X149879853Y-72918574D01*
X149935000Y-72641335D01*
X149935000Y-72358665D01*
X149879853Y-72081426D01*
X149771680Y-71820273D01*
X149614637Y-71585241D01*
X149414759Y-71385363D01*
X149179727Y-71228320D01*
X148918574Y-71120147D01*
X148641335Y-71065000D01*
X148358665Y-71065000D01*
X148081426Y-71120147D01*
X147820273Y-71228320D01*
X147585241Y-71385363D01*
X147385363Y-71585241D01*
X147228320Y-71820273D01*
X147120147Y-72081426D01*
X147065000Y-72358665D01*
X140488072Y-72358665D01*
X140488072Y-72150000D01*
X140475812Y-72025518D01*
X140439502Y-71905820D01*
X140380537Y-71795506D01*
X140301185Y-71698815D01*
X140204494Y-71619463D01*
X140094180Y-71560498D01*
X139974482Y-71524188D01*
X139850000Y-71511928D01*
X138150000Y-71511928D01*
X138025518Y-71524188D01*
X137905820Y-71560498D01*
X137795506Y-71619463D01*
X137698815Y-71698815D01*
X137619463Y-71795506D01*
X137560498Y-71905820D01*
X137538487Y-71978380D01*
X137406632Y-71846525D01*
X137163411Y-71684010D01*
X136893158Y-71572068D01*
X136606260Y-71515000D01*
X136313740Y-71515000D01*
X136026842Y-71572068D01*
X135756589Y-71684010D01*
X135513368Y-71846525D01*
X135306525Y-72053368D01*
X135144010Y-72296589D01*
X135032068Y-72566842D01*
X134975000Y-72853740D01*
X112030000Y-72853740D01*
X112030000Y-70715000D01*
X108210000Y-70715000D01*
X100660000Y-70715000D01*
X100660000Y-70660000D01*
X169340000Y-70660000D01*
X169340000Y-71032418D01*
G04 #@! TA.AperFunction,Conductor*
D29*
G36*
X169340000Y-71032418D02*
G01*
X169340001Y-71032428D01*
X169340000Y-99340000D01*
X133937470Y-99340000D01*
X134042252Y-99269987D01*
X134269987Y-99042252D01*
X134448918Y-98774463D01*
X134572168Y-98476912D01*
X134635000Y-98161033D01*
X134635000Y-97838967D01*
X134572168Y-97523088D01*
X134566177Y-97508625D01*
X134639804Y-97434999D01*
X140581196Y-97434999D01*
X141372200Y-98226004D01*
X141395998Y-98255002D01*
X141424996Y-98278800D01*
X141511722Y-98349975D01*
X141634254Y-98415470D01*
X141643752Y-98420547D01*
X141787013Y-98464004D01*
X141898666Y-98475001D01*
X141898676Y-98475001D01*
X141935999Y-98478677D01*
X141973322Y-98475001D01*
X146367677Y-98475001D01*
X146404999Y-98478677D01*
X146442321Y-98475001D01*
X146442332Y-98475001D01*
X146553985Y-98464004D01*
X146697246Y-98420547D01*
X146829275Y-98349975D01*
X146945000Y-98255002D01*
X146968803Y-98225998D01*
X147213592Y-97981209D01*
X147433740Y-98025000D01*
X147726260Y-98025000D01*
X148013158Y-97967932D01*
X148283411Y-97855990D01*
X148526632Y-97693475D01*
X148733475Y-97486632D01*
X148850000Y-97312240D01*
X148966525Y-97486632D01*
X149173368Y-97693475D01*
X149416589Y-97855990D01*
X149686842Y-97967932D01*
X149973740Y-98025000D01*
X150266260Y-98025000D01*
X150553158Y-97967932D01*
X150823411Y-97855990D01*
X151066632Y-97693475D01*
X151273475Y-97486632D01*
X151435990Y-97243411D01*
X151547932Y-96973158D01*
X151605000Y-96686260D01*
X151605000Y-96393740D01*
X151547932Y-96106842D01*
X151435990Y-95836589D01*
X151273475Y-95593368D01*
X151066632Y-95386525D01*
X150892240Y-95270000D01*
X151066632Y-95153475D01*
X151273475Y-94946632D01*
X151435990Y-94703411D01*
X151547932Y-94433158D01*
X151605000Y-94146260D01*
X151605000Y-93853740D01*
X151547932Y-93566842D01*
X151435990Y-93296589D01*
X151273475Y-93053368D01*
X151066632Y-92846525D01*
X150823411Y-92684010D01*
X150553158Y-92572068D01*
X150266260Y-92515000D01*
X149973740Y-92515000D01*
X149901040Y-92529461D01*
X147934999Y-90563421D01*
X147934999Y-89819201D01*
X148081426Y-89879853D01*
X148358665Y-89935000D01*
X148641335Y-89935000D01*
X148676439Y-89928017D01*
X149343470Y-90595049D01*
X149371183Y-90628817D01*
X149404951Y-90656530D01*
X149404953Y-90656532D01*
X149448986Y-90692669D01*
X149505941Y-90739411D01*
X149659687Y-90821589D01*
X149826510Y-90872195D01*
X149956523Y-90885000D01*
X149956533Y-90885000D01*
X149999999Y-90889281D01*
X150043465Y-90885000D01*
X150761928Y-90885000D01*
X150761928Y-91100000D01*
X150774188Y-91224482D01*
X150810498Y-91344180D01*
X150869463Y-91454494D01*
X150948815Y-91551185D01*
X151045506Y-91630537D01*
X151155820Y-91689502D01*
X151275518Y-91725812D01*
X151400000Y-91738072D01*
X153600000Y-91738072D01*
X153724482Y-91725812D01*
X153760124Y-91715000D01*
X158210000Y-91715000D01*
X158210000Y-99285000D01*
X162030000Y-99285000D01*
X162030000Y-91715000D01*
X158210000Y-91715000D01*
X153760124Y-91715000D01*
X153844180Y-91689502D01*
X153954494Y-91630537D01*
X154051185Y-91551185D01*
X154130537Y-91454494D01*
X154189502Y-91344180D01*
X154225812Y-91224482D01*
X154238072Y-91100000D01*
X154238072Y-88900000D01*
X154225812Y-88775518D01*
X154189502Y-88655820D01*
X154130537Y-88545506D01*
X154051185Y-88448815D01*
X153954494Y-88369463D01*
X153844180Y-88310498D01*
X153724482Y-88274188D01*
X153600000Y-88261928D01*
X151400000Y-88261928D01*
X151275518Y-88274188D01*
X151155820Y-88310498D01*
X151045506Y-88369463D01*
X150948815Y-88448815D01*
X150869463Y-88545506D01*
X150810498Y-88655820D01*
X150774188Y-88775518D01*
X150761928Y-88900000D01*
X150761928Y-89115000D01*
X150366579Y-89115000D01*
X149928017Y-88676439D01*
X149935000Y-88641335D01*
X149935000Y-88358665D01*
X149879853Y-88081426D01*
X149771680Y-87820273D01*
X149614637Y-87585241D01*
X149414759Y-87385363D01*
X149385000Y-87365479D01*
X149385000Y-84415059D01*
X149542252Y-84309987D01*
X149769987Y-84082252D01*
X149948918Y-83814463D01*
X150072168Y-83516912D01*
X150135000Y-83201033D01*
X150135000Y-82878967D01*
X150072168Y-82563088D01*
X149948918Y-82265537D01*
X149769987Y-81997748D01*
X149542252Y-81770013D01*
X149274463Y-81591082D01*
X148976912Y-81467832D01*
X148661033Y-81405000D01*
X148338967Y-81405000D01*
X148023088Y-81467832D01*
X147934999Y-81504320D01*
X147934999Y-79776579D01*
X148153475Y-79558103D01*
X148338967Y-79595000D01*
X148661033Y-79595000D01*
X148976912Y-79532168D01*
X149274463Y-79408918D01*
X149542252Y-79229987D01*
X149769987Y-79002252D01*
X149948918Y-78734463D01*
X150072168Y-78436912D01*
X150135000Y-78121033D01*
X150135000Y-77798967D01*
X150072168Y-77483088D01*
X150057020Y-77446517D01*
X151248421Y-78637918D01*
X151152337Y-78734002D01*
X150962463Y-79018169D01*
X150831675Y-79333919D01*
X150765000Y-79669117D01*
X150765000Y-80010883D01*
X150831675Y-80346081D01*
X150962463Y-80661831D01*
X151152337Y-80945998D01*
X151394002Y-81187663D01*
X151678169Y-81377537D01*
X151993919Y-81508325D01*
X152329117Y-81575000D01*
X152629869Y-81575000D01*
X157861928Y-86807061D01*
X157861928Y-88250000D01*
X157874188Y-88374482D01*
X157910498Y-88494180D01*
X157969463Y-88604494D01*
X158048815Y-88701185D01*
X158145506Y-88780537D01*
X158255820Y-88839502D01*
X158375518Y-88875812D01*
X158500000Y-88888072D01*
X161500000Y-88888072D01*
X161624482Y-88875812D01*
X161744180Y-88839502D01*
X161854494Y-88780537D01*
X161951185Y-88701185D01*
X162030537Y-88604494D01*
X162089502Y-88494180D01*
X162125812Y-88374482D01*
X162138072Y-88250000D01*
X162138072Y-86750000D01*
X162125812Y-86625518D01*
X162089502Y-86505820D01*
X162030537Y-86395506D01*
X161951185Y-86298815D01*
X161854494Y-86219463D01*
X161744180Y-86160498D01*
X161624482Y-86124188D01*
X161500000Y-86111928D01*
X160377061Y-86111928D01*
X154235000Y-79969869D01*
X154235000Y-79669117D01*
X154168325Y-79333919D01*
X154037537Y-79018169D01*
X153847663Y-78734002D01*
X153635000Y-78521339D01*
X153635000Y-78340107D01*
X153640490Y-78284365D01*
X153635000Y-78228623D01*
X153635000Y-78228614D01*
X153618577Y-78061867D01*
X153553676Y-77847919D01*
X153448284Y-77650743D01*
X153306449Y-77477917D01*
X153263141Y-77442375D01*
X151317629Y-75496864D01*
X151282082Y-75453550D01*
X151109256Y-75311715D01*
X150912080Y-75206323D01*
X150698132Y-75141422D01*
X150531385Y-75124999D01*
X150531384Y-75124999D01*
X150475633Y-75119508D01*
X150419882Y-75124999D01*
X116295752Y-75124999D01*
X116240000Y-75119508D01*
X116184249Y-75124999D01*
X116017502Y-75141422D01*
X115803554Y-75206323D01*
X115606378Y-75311715D01*
X115433552Y-75453550D01*
X115398010Y-75496858D01*
X109782941Y-81111928D01*
X108500000Y-81111928D01*
X108375518Y-81124188D01*
X108255820Y-81160498D01*
X108145506Y-81219463D01*
X108048815Y-81298815D01*
X107969463Y-81395506D01*
X107910498Y-81505820D01*
X107874188Y-81625518D01*
X107861928Y-81750000D01*
X107861928Y-83250000D01*
X107874188Y-83374482D01*
X107910498Y-83494180D01*
X107969463Y-83604494D01*
X108048815Y-83701185D01*
X108145506Y-83780537D01*
X108255820Y-83839502D01*
X108375518Y-83875812D01*
X108500000Y-83888072D01*
X111500000Y-83888072D01*
X111624482Y-83875812D01*
X111744180Y-83839502D01*
X111854494Y-83780537D01*
X111951185Y-83701185D01*
X112030537Y-83604494D01*
X112089502Y-83494180D01*
X112125812Y-83374482D01*
X112138072Y-83250000D01*
X112138072Y-81967059D01*
X116710133Y-77394999D01*
X135851638Y-77394999D01*
X135843470Y-77404951D01*
X135636493Y-77611928D01*
X134750000Y-77611928D01*
X134625518Y-77624188D01*
X134505820Y-77660498D01*
X134395506Y-77719463D01*
X134298815Y-77798815D01*
X134219463Y-77895506D01*
X134160498Y-78005820D01*
X134124941Y-78123035D01*
X134076510Y-78127805D01*
X133909687Y-78178411D01*
X133815763Y-78228614D01*
X133755941Y-78260589D01*
X133654953Y-78343468D01*
X133654951Y-78343470D01*
X133621183Y-78371183D01*
X133593470Y-78404951D01*
X128324957Y-83673465D01*
X128291184Y-83701182D01*
X128180590Y-83835941D01*
X128098412Y-83989687D01*
X128047806Y-84156510D01*
X128035001Y-84286523D01*
X128035001Y-84286530D01*
X128030720Y-84329999D01*
X128035001Y-84373468D01*
X128035002Y-91528456D01*
X127766260Y-91475000D01*
X127473740Y-91475000D01*
X127186842Y-91532068D01*
X126916589Y-91644010D01*
X126673368Y-91806525D01*
X126466525Y-92013368D01*
X126350000Y-92187760D01*
X126233475Y-92013368D01*
X126026632Y-91806525D01*
X125783411Y-91644010D01*
X125513158Y-91532068D01*
X125226260Y-91475000D01*
X124933740Y-91475000D01*
X124646842Y-91532068D01*
X124376589Y-91644010D01*
X124133368Y-91806525D01*
X123926525Y-92013368D01*
X123810000Y-92187760D01*
X123693475Y-92013368D01*
X123486632Y-91806525D01*
X123243411Y-91644010D01*
X122973158Y-91532068D01*
X122686260Y-91475000D01*
X122393740Y-91475000D01*
X122106842Y-91532068D01*
X121836589Y-91644010D01*
X121593368Y-91806525D01*
X121386525Y-92013368D01*
X121224010Y-92256589D01*
X121112068Y-92526842D01*
X121055000Y-92813740D01*
X121055000Y-93106260D01*
X121112068Y-93393158D01*
X121224010Y-93663411D01*
X121386525Y-93906632D01*
X121593368Y-94113475D01*
X121767760Y-94230000D01*
X121593368Y-94346525D01*
X121461513Y-94478380D01*
X121439502Y-94405820D01*
X121380537Y-94295506D01*
X121301185Y-94198815D01*
X121204494Y-94119463D01*
X121094180Y-94060498D01*
X120974482Y-94024188D01*
X120850000Y-94011928D01*
X119150000Y-94011928D01*
X119025518Y-94024188D01*
X118905820Y-94060498D01*
X118795506Y-94119463D01*
X118698815Y-94198815D01*
X118619463Y-94295506D01*
X118560498Y-94405820D01*
X118524188Y-94525518D01*
X118511928Y-94650000D01*
X118511928Y-96350000D01*
X118524188Y-96474482D01*
X118560498Y-96594180D01*
X118619463Y-96704494D01*
X118698815Y-96801185D01*
X118795506Y-96880537D01*
X118905820Y-96939502D01*
X119025518Y-96975812D01*
X119150000Y-96988072D01*
X120850000Y-96988072D01*
X120974482Y-96975812D01*
X121094180Y-96939502D01*
X121204494Y-96880537D01*
X121301185Y-96801185D01*
X121380537Y-96704494D01*
X121439502Y-96594180D01*
X121461513Y-96521620D01*
X121593368Y-96653475D01*
X121836589Y-96815990D01*
X122106842Y-96927932D01*
X122393740Y-96985000D01*
X122686260Y-96985000D01*
X122973158Y-96927932D01*
X123243411Y-96815990D01*
X123486632Y-96653475D01*
X123693475Y-96446632D01*
X123810000Y-96272240D01*
X123926525Y-96446632D01*
X124133368Y-96653475D01*
X124376589Y-96815990D01*
X124646842Y-96927932D01*
X124933740Y-96985000D01*
X125226260Y-96985000D01*
X125446408Y-96941210D01*
X125691201Y-97186003D01*
X125715000Y-97215002D01*
X125830725Y-97309975D01*
X125962754Y-97380547D01*
X126106015Y-97424004D01*
X126217668Y-97435001D01*
X126217677Y-97435001D01*
X126255000Y-97438677D01*
X126292323Y-97435001D01*
X131464319Y-97435001D01*
X131427832Y-97523088D01*
X131365000Y-97838967D01*
X131365000Y-98161033D01*
X131427832Y-98476912D01*
X131551082Y-98774463D01*
X131730013Y-99042252D01*
X131957748Y-99269987D01*
X132062530Y-99340000D01*
X118412135Y-99340000D01*
X118418072Y-99287070D01*
X118418102Y-99282755D01*
X118418118Y-99282602D01*
X118418104Y-99282449D01*
X118418134Y-99278134D01*
X118418134Y-90221867D01*
X118412257Y-90161929D01*
X118406798Y-90101943D01*
X118406164Y-90099788D01*
X118405945Y-90097557D01*
X118388560Y-90039976D01*
X118371532Y-89982119D01*
X118370491Y-89980127D01*
X118369843Y-89977982D01*
X118341558Y-89924785D01*
X118313663Y-89871427D01*
X118312260Y-89869682D01*
X118311204Y-89867696D01*
X118273129Y-89821013D01*
X118235397Y-89774082D01*
X118233675Y-89772637D01*
X118232259Y-89770901D01*
X118185930Y-89732574D01*
X118139713Y-89693794D01*
X118137743Y-89692711D01*
X118136017Y-89691283D01*
X118083125Y-89662684D01*
X118030257Y-89633620D01*
X118028114Y-89632940D01*
X118026144Y-89631875D01*
X117968629Y-89614071D01*
X117911197Y-89595853D01*
X117908969Y-89595603D01*
X117906824Y-89594939D01*
X117846957Y-89588647D01*
X117787070Y-89581929D01*
X117782755Y-89581899D01*
X117782602Y-89581883D01*
X117782449Y-89581897D01*
X117778134Y-89581867D01*
X108721867Y-89581867D01*
X108661929Y-89587744D01*
X108601943Y-89593203D01*
X108599788Y-89593837D01*
X108597557Y-89594056D01*
X108539976Y-89611441D01*
X108482119Y-89628469D01*
X108480127Y-89629510D01*
X108477982Y-89630158D01*
X108424785Y-89658443D01*
X108371427Y-89686338D01*
X108369682Y-89687741D01*
X108367696Y-89688797D01*
X108321013Y-89726872D01*
X108274082Y-89764604D01*
X108272637Y-89766326D01*
X108270901Y-89767742D01*
X108232574Y-89814071D01*
X108193794Y-89860288D01*
X108192711Y-89862258D01*
X108191283Y-89863984D01*
X108162684Y-89916876D01*
X108133620Y-89969744D01*
X108132940Y-89971887D01*
X108131875Y-89973857D01*
X108114071Y-90031372D01*
X108095853Y-90088804D01*
X108095603Y-90091032D01*
X108094939Y-90093177D01*
X108088647Y-90153044D01*
X108081929Y-90212931D01*
X108081899Y-90217246D01*
X108081883Y-90217399D01*
X108081897Y-90217552D01*
X108081867Y-90221867D01*
X108081867Y-99278134D01*
X108087744Y-99338072D01*
X108087920Y-99340000D01*
X100660000Y-99340000D01*
X100660000Y-70715000D01*
X108210000Y-70715000D01*
X108210000Y-78285000D01*
X112030000Y-78285000D01*
X112030000Y-72853740D01*
X134975000Y-72853740D01*
X134975000Y-73146260D01*
X135032068Y-73433158D01*
X135144010Y-73703411D01*
X135306525Y-73946632D01*
X135513368Y-74153475D01*
X135756589Y-74315990D01*
X136026842Y-74427932D01*
X136313740Y-74485000D01*
X136606260Y-74485000D01*
X136893158Y-74427932D01*
X137163411Y-74315990D01*
X137406632Y-74153475D01*
X137538487Y-74021620D01*
X137560498Y-74094180D01*
X137619463Y-74204494D01*
X137698815Y-74301185D01*
X137795506Y-74380537D01*
X137905820Y-74439502D01*
X138025518Y-74475812D01*
X138150000Y-74488072D01*
X139850000Y-74488072D01*
X139974482Y-74475812D01*
X140094180Y-74439502D01*
X140204494Y-74380537D01*
X140301185Y-74301185D01*
X140380537Y-74204494D01*
X140439502Y-74094180D01*
X140475812Y-73974482D01*
X140488072Y-73850000D01*
X140488072Y-72358665D01*
X147065000Y-72358665D01*
X147065000Y-72641335D01*
X147120147Y-72918574D01*
X147228320Y-73179727D01*
X147385363Y-73414759D01*
X147585241Y-73614637D01*
X147820273Y-73771680D01*
X148081426Y-73879853D01*
X148358665Y-73935000D01*
X148641335Y-73935000D01*
X148918574Y-73879853D01*
X149179727Y-73771680D01*
X149414759Y-73614637D01*
X149614637Y-73414759D01*
X149771680Y-73179727D01*
X149879853Y-72918574D01*
X149935000Y-72641335D01*
X149935000Y-72358665D01*
X149879853Y-72081426D01*
X149771680Y-71820273D01*
X149614637Y-71585241D01*
X149414759Y-71385363D01*
X149179727Y-71228320D01*
X148918574Y-71120147D01*
X148641335Y-71065000D01*
X148358665Y-71065000D01*
X148081426Y-71120147D01*
X147820273Y-71228320D01*
X147585241Y-71385363D01*
X147385363Y-71585241D01*
X147228320Y-71820273D01*
X147120147Y-72081426D01*
X147065000Y-72358665D01*
X140488072Y-72358665D01*
X140488072Y-72150000D01*
X140475812Y-72025518D01*
X140439502Y-71905820D01*
X140380537Y-71795506D01*
X140301185Y-71698815D01*
X140204494Y-71619463D01*
X140094180Y-71560498D01*
X139974482Y-71524188D01*
X139850000Y-71511928D01*
X138150000Y-71511928D01*
X138025518Y-71524188D01*
X137905820Y-71560498D01*
X137795506Y-71619463D01*
X137698815Y-71698815D01*
X137619463Y-71795506D01*
X137560498Y-71905820D01*
X137538487Y-71978380D01*
X137406632Y-71846525D01*
X137163411Y-71684010D01*
X136893158Y-71572068D01*
X136606260Y-71515000D01*
X136313740Y-71515000D01*
X136026842Y-71572068D01*
X135756589Y-71684010D01*
X135513368Y-71846525D01*
X135306525Y-72053368D01*
X135144010Y-72296589D01*
X135032068Y-72566842D01*
X134975000Y-72853740D01*
X112030000Y-72853740D01*
X112030000Y-70715000D01*
X108210000Y-70715000D01*
X100660000Y-70715000D01*
X100660000Y-70660000D01*
X169340000Y-70660000D01*
X169340000Y-71032418D01*
G37*
G04 #@! TD.AperFunction*
D28*
X143612068Y-96106842D02*
X143555000Y-96393740D01*
X143555000Y-96686260D01*
X143608456Y-96955001D01*
X142250801Y-96955001D01*
X141459798Y-96163999D01*
X141435998Y-96134998D01*
X141320273Y-96040025D01*
X141188244Y-95969453D01*
X141074669Y-95935001D01*
X143683247Y-95935001D01*
X143612068Y-96106842D01*
G04 #@! TA.AperFunction,Conductor*
D29*
G36*
X143612068Y-96106842D02*
G01*
X143555000Y-96393740D01*
X143555000Y-96686260D01*
X143608456Y-96955001D01*
X142250801Y-96955001D01*
X141459798Y-96163999D01*
X141435998Y-96134998D01*
X141320273Y-96040025D01*
X141188244Y-95969453D01*
X141074669Y-95935001D01*
X143683247Y-95935001D01*
X143612068Y-96106842D01*
G37*
G04 #@! TD.AperFunction*
D28*
X146310588Y-78915943D02*
X146228410Y-79069689D01*
X146177804Y-79236512D01*
X146164999Y-79366525D01*
X146164999Y-79366532D01*
X146160718Y-79410001D01*
X146164999Y-79453470D01*
X146165000Y-90886520D01*
X146160718Y-90929999D01*
X146177804Y-91103489D01*
X146228411Y-91270312D01*
X146310589Y-91424058D01*
X146393467Y-91525045D01*
X146393470Y-91525048D01*
X146421183Y-91558816D01*
X146454950Y-91586528D01*
X146933421Y-92064999D01*
X141427324Y-92064999D01*
X141389999Y-92061323D01*
X141352674Y-92064999D01*
X141352666Y-92064999D01*
X141241013Y-92075996D01*
X141097752Y-92119453D01*
X140965723Y-92190025D01*
X140904828Y-92240000D01*
X134463193Y-92240000D01*
X134572168Y-91976912D01*
X134635000Y-91661033D01*
X134635000Y-91338967D01*
X134572168Y-91023088D01*
X134448918Y-90725537D01*
X134269987Y-90457748D01*
X134042252Y-90230013D01*
X133774463Y-90051082D01*
X133476912Y-89927832D01*
X133161033Y-89865000D01*
X132838967Y-89865000D01*
X132523088Y-89927832D01*
X132225537Y-90051082D01*
X131957748Y-90230013D01*
X131730013Y-90457748D01*
X131551082Y-90725537D01*
X131427832Y-91023088D01*
X131365000Y-91338967D01*
X131365000Y-91661033D01*
X131427832Y-91976912D01*
X131536807Y-92240000D01*
X130703711Y-92240000D01*
X130659774Y-92196063D01*
X130490256Y-92082795D01*
X130301898Y-92004774D01*
X130101939Y-91965000D01*
X129898061Y-91965000D01*
X129805001Y-91983511D01*
X129805001Y-84696577D01*
X134299682Y-80201897D01*
X134395506Y-80280537D01*
X134505820Y-80339502D01*
X134625518Y-80375812D01*
X134733483Y-80386445D01*
X134617114Y-80464201D01*
X134424201Y-80657114D01*
X134272629Y-80883957D01*
X134168225Y-81136011D01*
X134115000Y-81403589D01*
X134115000Y-81676411D01*
X134168225Y-81943989D01*
X134272629Y-82196043D01*
X134424201Y-82422886D01*
X134617114Y-82615799D01*
X134843957Y-82767371D01*
X134946873Y-82810000D01*
X134843957Y-82852629D01*
X134617114Y-83004201D01*
X134424201Y-83197114D01*
X134272629Y-83423957D01*
X134168225Y-83676011D01*
X134115000Y-83943589D01*
X134115000Y-84216411D01*
X134168225Y-84483989D01*
X134272629Y-84736043D01*
X134424201Y-84962886D01*
X134617114Y-85155799D01*
X134843957Y-85307371D01*
X135096011Y-85411775D01*
X135363589Y-85465000D01*
X135636411Y-85465000D01*
X135903989Y-85411775D01*
X136156043Y-85307371D01*
X136382886Y-85155799D01*
X136575799Y-84962886D01*
X136727371Y-84736043D01*
X136831775Y-84483989D01*
X136885000Y-84216411D01*
X136885000Y-83943589D01*
X136831775Y-83676011D01*
X136727371Y-83423957D01*
X136575799Y-83197114D01*
X136382886Y-83004201D01*
X136156043Y-82852629D01*
X136053127Y-82810000D01*
X136156043Y-82767371D01*
X136255868Y-82700670D01*
X138851312Y-85296114D01*
X138815000Y-85478665D01*
X138815000Y-85761335D01*
X138870147Y-86038574D01*
X138978320Y-86299727D01*
X139135363Y-86534759D01*
X139335241Y-86734637D01*
X139570273Y-86891680D01*
X139831426Y-86999853D01*
X140108665Y-87055000D01*
X140391335Y-87055000D01*
X140668574Y-86999853D01*
X140929727Y-86891680D01*
X141164759Y-86734637D01*
X141364637Y-86534759D01*
X141521680Y-86299727D01*
X141629853Y-86038574D01*
X141685000Y-85761335D01*
X141685000Y-85478665D01*
X141629853Y-85201426D01*
X141521680Y-84940273D01*
X141364637Y-84705241D01*
X141164759Y-84505363D01*
X140929727Y-84348320D01*
X140668574Y-84240147D01*
X140391335Y-84185000D01*
X140108665Y-84185000D01*
X139926114Y-84221312D01*
X136825385Y-81120584D01*
X136727371Y-80883957D01*
X136575799Y-80657114D01*
X136382886Y-80464201D01*
X136266517Y-80386445D01*
X136374482Y-80375812D01*
X136494180Y-80339502D01*
X136604494Y-80280537D01*
X136701185Y-80201185D01*
X136780537Y-80104494D01*
X136839502Y-79994180D01*
X136875812Y-79874482D01*
X136888072Y-79750000D01*
X136888072Y-78885000D01*
X139115479Y-78885000D01*
X139135363Y-78914759D01*
X139335241Y-79114637D01*
X139570273Y-79271680D01*
X139831426Y-79379853D01*
X140108665Y-79435000D01*
X140391335Y-79435000D01*
X140668574Y-79379853D01*
X140929727Y-79271680D01*
X141164759Y-79114637D01*
X141364637Y-78914759D01*
X141411248Y-78845000D01*
X146368809Y-78845000D01*
X146310588Y-78915943D01*
G04 #@! TA.AperFunction,Conductor*
D29*
G36*
X146310588Y-78915943D02*
G01*
X146228410Y-79069689D01*
X146177804Y-79236512D01*
X146164999Y-79366525D01*
X146164999Y-79366532D01*
X146160718Y-79410001D01*
X146164999Y-79453470D01*
X146165000Y-90886520D01*
X146160718Y-90929999D01*
X146177804Y-91103489D01*
X146228411Y-91270312D01*
X146310589Y-91424058D01*
X146393467Y-91525045D01*
X146393470Y-91525048D01*
X146421183Y-91558816D01*
X146454950Y-91586528D01*
X146933421Y-92064999D01*
X141427324Y-92064999D01*
X141389999Y-92061323D01*
X141352674Y-92064999D01*
X141352666Y-92064999D01*
X141241013Y-92075996D01*
X141097752Y-92119453D01*
X140965723Y-92190025D01*
X140904828Y-92240000D01*
X134463193Y-92240000D01*
X134572168Y-91976912D01*
X134635000Y-91661033D01*
X134635000Y-91338967D01*
X134572168Y-91023088D01*
X134448918Y-90725537D01*
X134269987Y-90457748D01*
X134042252Y-90230013D01*
X133774463Y-90051082D01*
X133476912Y-89927832D01*
X133161033Y-89865000D01*
X132838967Y-89865000D01*
X132523088Y-89927832D01*
X132225537Y-90051082D01*
X131957748Y-90230013D01*
X131730013Y-90457748D01*
X131551082Y-90725537D01*
X131427832Y-91023088D01*
X131365000Y-91338967D01*
X131365000Y-91661033D01*
X131427832Y-91976912D01*
X131536807Y-92240000D01*
X130703711Y-92240000D01*
X130659774Y-92196063D01*
X130490256Y-92082795D01*
X130301898Y-92004774D01*
X130101939Y-91965000D01*
X129898061Y-91965000D01*
X129805001Y-91983511D01*
X129805001Y-84696577D01*
X134299682Y-80201897D01*
X134395506Y-80280537D01*
X134505820Y-80339502D01*
X134625518Y-80375812D01*
X134733483Y-80386445D01*
X134617114Y-80464201D01*
X134424201Y-80657114D01*
X134272629Y-80883957D01*
X134168225Y-81136011D01*
X134115000Y-81403589D01*
X134115000Y-81676411D01*
X134168225Y-81943989D01*
X134272629Y-82196043D01*
X134424201Y-82422886D01*
X134617114Y-82615799D01*
X134843957Y-82767371D01*
X134946873Y-82810000D01*
X134843957Y-82852629D01*
X134617114Y-83004201D01*
X134424201Y-83197114D01*
X134272629Y-83423957D01*
X134168225Y-83676011D01*
X134115000Y-83943589D01*
X134115000Y-84216411D01*
X134168225Y-84483989D01*
X134272629Y-84736043D01*
X134424201Y-84962886D01*
X134617114Y-85155799D01*
X134843957Y-85307371D01*
X135096011Y-85411775D01*
X135363589Y-85465000D01*
X135636411Y-85465000D01*
X135903989Y-85411775D01*
X136156043Y-85307371D01*
X136382886Y-85155799D01*
X136575799Y-84962886D01*
X136727371Y-84736043D01*
X136831775Y-84483989D01*
X136885000Y-84216411D01*
X136885000Y-83943589D01*
X136831775Y-83676011D01*
X136727371Y-83423957D01*
X136575799Y-83197114D01*
X136382886Y-83004201D01*
X136156043Y-82852629D01*
X136053127Y-82810000D01*
X136156043Y-82767371D01*
X136255868Y-82700670D01*
X138851312Y-85296114D01*
X138815000Y-85478665D01*
X138815000Y-85761335D01*
X138870147Y-86038574D01*
X138978320Y-86299727D01*
X139135363Y-86534759D01*
X139335241Y-86734637D01*
X139570273Y-86891680D01*
X139831426Y-86999853D01*
X140108665Y-87055000D01*
X140391335Y-87055000D01*
X140668574Y-86999853D01*
X140929727Y-86891680D01*
X141164759Y-86734637D01*
X141364637Y-86534759D01*
X141521680Y-86299727D01*
X141629853Y-86038574D01*
X141685000Y-85761335D01*
X141685000Y-85478665D01*
X141629853Y-85201426D01*
X141521680Y-84940273D01*
X141364637Y-84705241D01*
X141164759Y-84505363D01*
X140929727Y-84348320D01*
X140668574Y-84240147D01*
X140391335Y-84185000D01*
X140108665Y-84185000D01*
X139926114Y-84221312D01*
X136825385Y-81120584D01*
X136727371Y-80883957D01*
X136575799Y-80657114D01*
X136382886Y-80464201D01*
X136266517Y-80386445D01*
X136374482Y-80375812D01*
X136494180Y-80339502D01*
X136604494Y-80280537D01*
X136701185Y-80201185D01*
X136780537Y-80104494D01*
X136839502Y-79994180D01*
X136875812Y-79874482D01*
X136888072Y-79750000D01*
X136888072Y-78885000D01*
X139115479Y-78885000D01*
X139135363Y-78914759D01*
X139335241Y-79114637D01*
X139570273Y-79271680D01*
X139831426Y-79379853D01*
X140108665Y-79435000D01*
X140391335Y-79435000D01*
X140668574Y-79379853D01*
X140929727Y-79271680D01*
X141164759Y-79114637D01*
X141364637Y-78914759D01*
X141411248Y-78845000D01*
X146368809Y-78845000D01*
X146310588Y-78915943D01*
G37*
G04 #@! TD.AperFunction*
M02*
