M48
; DRILL file {KiCad 5.1.9+dfsg1-1~bpo10+1} date Fri Jul  2 19:43:39 2021
; FORMAT={-:-/ absolute / metric / decimal}
; #@! TF.CreationDate,2021-07-02T19:43:39+00:00
; #@! TF.GenerationSoftware,Kicad,Pcbnew,5.1.9+dfsg1-1~bpo10+1
FMAT,2
METRIC
T1C0.400
T2C0.800
T3C1.000
T4C1.100
T5C1.150
T6C3.200
%
G90
G05
T1
X120.75Y-98.25
X123.5Y-98.25
X126.0Y-90.75
X127.25Y-89.5
X127.25Y-98.25
X130.0Y-93.0
X130.0Y-98.25
X130.5Y-86.25
X133.5Y-83.25
X141.0Y-74.0
X141.25Y-88.0
X141.25Y-91.0
T2
X135.5Y-79.0
X135.5Y-81.54
X135.5Y-84.08
X135.5Y-86.62
X140.25Y-78.0
X140.25Y-85.62
X143.5Y-72.5
X143.5Y-88.5
X148.5Y-72.5
X148.5Y-88.5
T3
X120.0Y-92.96
X120.0Y-95.5
X122.54Y-92.96
X122.54Y-95.5
X125.08Y-92.96
X125.08Y-95.5
X127.62Y-92.96
X127.62Y-95.5
X133.92Y-73.0
X136.46Y-73.0
X139.0Y-73.0
X142.5Y-94.0
X142.5Y-96.54
X145.04Y-94.0
X145.04Y-96.54
X147.58Y-94.0
X147.58Y-96.54
X148.5Y-77.96
X148.5Y-80.5
X148.5Y-83.04
X150.12Y-94.0
X150.12Y-96.54
T4
X133.0Y-91.5
X133.0Y-98.0
X137.5Y-91.5
X137.5Y-98.0
X152.5Y-79.84
X152.5Y-90.0
T5
X110.0Y-82.5
X110.0Y-87.5
X160.0Y-82.5
X160.0Y-87.5
T6
X105.0Y-75.0
X105.0Y-95.0
X165.0Y-75.0
X165.0Y-95.0
T0
M30
