%TF.GenerationSoftware,KiCad,Pcbnew,5.1.9+dfsg1-1~bpo10+1*%
%TF.CreationDate,2021-07-02T19:43:55+00:00*%
%TF.ProjectId,klima,6b6c696d-612e-46b6-9963-61645f706362,rev?*%
%TF.SameCoordinates,Original*%
%TF.FileFunction,Copper,L2,Bot*%
%TF.FilePolarity,Positive*%
%FSLAX46Y46*%
G04 Gerber Fmt 4.6, Leading zero omitted, Abs format (unit mm)*
G04 Created by KiCad (PCBNEW 5.1.9+dfsg1-1~bpo10+1) date 2021-07-02 19:43:55*
%MOMM*%
%LPD*%
G01*
G04 APERTURE LIST*
%TA.AperFunction,NonConductor*%
%ADD10C,0.300000*%
%TD*%
%TA.AperFunction,ComponentPad*%
%ADD11C,2.000000*%
%TD*%
%TA.AperFunction,ComponentPad*%
%ADD12R,1.700000X1.700000*%
%TD*%
%TA.AperFunction,ComponentPad*%
%ADD13O,1.700000X1.700000*%
%TD*%
%TA.AperFunction,ComponentPad*%
%ADD14C,1.600000*%
%TD*%
%TA.AperFunction,ComponentPad*%
%ADD15R,2.200000X2.200000*%
%TD*%
%TA.AperFunction,ComponentPad*%
%ADD16O,2.200000X2.200000*%
%TD*%
%TA.AperFunction,ComponentPad*%
%ADD17C,5.600000*%
%TD*%
%TA.AperFunction,ComponentPad*%
%ADD18R,3.000000X1.500000*%
%TD*%
%TA.AperFunction,ComponentPad*%
%ADD19O,3.000000X1.500000*%
%TD*%
%TA.AperFunction,ComponentPad*%
%ADD20R,1.500000X1.500000*%
%TD*%
%TA.AperFunction,ComponentPad*%
%ADD21C,1.500000*%
%TD*%
%TA.AperFunction,ComponentPad*%
%ADD22O,1.600000X1.600000*%
%TD*%
%TA.AperFunction,ViaPad*%
%ADD23C,0.800000*%
%TD*%
%TA.AperFunction,Conductor*%
%ADD24C,0.500000*%
%TD*%
%TA.AperFunction,Conductor*%
%ADD25C,0.250000*%
%TD*%
%TA.AperFunction,Conductor*%
%ADD26C,0.254000*%
%TD*%
%TA.AperFunction,Conductor*%
%ADD27C,0.100000*%
%TD*%
G04 APERTURE END LIST*
D10*
X107750000Y-97821428D02*
X107750000Y-99321428D01*
X108607142Y-97821428D02*
X107964285Y-98678571D01*
X108607142Y-99321428D02*
X107750000Y-98464285D01*
X109464285Y-97821428D02*
X109321428Y-97892857D01*
X109250000Y-98035714D01*
X109250000Y-99321428D01*
X110035714Y-97821428D02*
X110035714Y-98821428D01*
X110035714Y-99321428D02*
X109964285Y-99250000D01*
X110035714Y-99178571D01*
X110107142Y-99250000D01*
X110035714Y-99321428D01*
X110035714Y-99178571D01*
X110750000Y-97821428D02*
X110750000Y-98821428D01*
X110750000Y-98678571D02*
X110821428Y-98750000D01*
X110964285Y-98821428D01*
X111178571Y-98821428D01*
X111321428Y-98750000D01*
X111392857Y-98607142D01*
X111392857Y-97821428D01*
X111392857Y-98607142D02*
X111464285Y-98750000D01*
X111607142Y-98821428D01*
X111821428Y-98821428D01*
X111964285Y-98750000D01*
X112035714Y-98607142D01*
X112035714Y-97821428D01*
X113392857Y-97821428D02*
X113392857Y-98607142D01*
X113321428Y-98750000D01*
X113178571Y-98821428D01*
X112892857Y-98821428D01*
X112750000Y-98750000D01*
X113392857Y-97892857D02*
X113250000Y-97821428D01*
X112892857Y-97821428D01*
X112750000Y-97892857D01*
X112678571Y-98035714D01*
X112678571Y-98178571D01*
X112750000Y-98321428D01*
X112892857Y-98392857D01*
X113250000Y-98392857D01*
X113392857Y-98464285D01*
X115107142Y-98821428D02*
X115464285Y-97821428D01*
X115821428Y-98821428D01*
X116678571Y-99321428D02*
X116821428Y-99321428D01*
X116964285Y-99250000D01*
X117035714Y-99178571D01*
X117107142Y-99035714D01*
X117178571Y-98750000D01*
X117178571Y-98392857D01*
X117107142Y-98107142D01*
X117035714Y-97964285D01*
X116964285Y-97892857D01*
X116821428Y-97821428D01*
X116678571Y-97821428D01*
X116535714Y-97892857D01*
X116464285Y-97964285D01*
X116392857Y-98107142D01*
X116321428Y-98392857D01*
X116321428Y-98750000D01*
X116392857Y-99035714D01*
X116464285Y-99178571D01*
X116535714Y-99250000D01*
X116678571Y-99321428D01*
X117821428Y-97964285D02*
X117892857Y-97892857D01*
X117821428Y-97821428D01*
X117750000Y-97892857D01*
X117821428Y-97964285D01*
X117821428Y-97821428D01*
X119321428Y-97821428D02*
X118464285Y-97821428D01*
X118892857Y-97821428D02*
X118892857Y-99321428D01*
X118750000Y-99107142D01*
X118607142Y-98964285D01*
X118464285Y-98892857D01*
D11*
%TO.P,SW101,2*%
%TO.N,GND*%
X137500000Y-98000000D03*
%TO.P,SW101,1*%
%TO.N,/IO0*%
X133000000Y-98000000D03*
%TO.P,SW101,2*%
%TO.N,GND*%
X137500000Y-91500000D03*
%TO.P,SW101,1*%
%TO.N,/IO0*%
X133000000Y-91500000D03*
%TD*%
D12*
%TO.P,J104,1*%
%TO.N,/RX*%
X139000000Y-73000000D03*
D13*
%TO.P,J104,2*%
%TO.N,/TX*%
X136460000Y-73000000D03*
%TO.P,J104,3*%
%TO.N,GND*%
X133920000Y-73000000D03*
%TD*%
D14*
%TO.P,C101,1*%
%TO.N,Net-(C101-Pad1)*%
X148500000Y-88500000D03*
%TO.P,C101,2*%
%TO.N,GND*%
X143500000Y-88500000D03*
%TD*%
%TO.P,C102,2*%
%TO.N,GND*%
X143500000Y-72500000D03*
%TO.P,C102,1*%
%TO.N,+3V3*%
X148500000Y-72500000D03*
%TD*%
D15*
%TO.P,D101,1*%
%TO.N,Net-(C101-Pad1)*%
X152500000Y-90000000D03*
D16*
%TO.P,D101,2*%
%TO.N,+12V*%
X152500000Y-79840000D03*
%TD*%
D17*
%TO.P,H101,1*%
%TO.N,GND*%
X105000000Y-95000000D03*
%TD*%
%TO.P,H102,1*%
%TO.N,GND*%
X165000000Y-95000000D03*
%TD*%
%TO.P,H103,1*%
%TO.N,GND*%
X165000000Y-75000000D03*
%TD*%
%TO.P,H104,1*%
%TO.N,GND*%
X105000000Y-75000000D03*
%TD*%
D18*
%TO.P,J103,1*%
%TO.N,+12V*%
X110000000Y-82500000D03*
D19*
%TO.P,J103,2*%
%TO.N,GND*%
X110000000Y-87500000D03*
%TD*%
%TO.P,J105,2*%
%TO.N,GND*%
X160000000Y-82500000D03*
D18*
%TO.P,J105,1*%
%TO.N,+12V*%
X160000000Y-87500000D03*
%TD*%
D11*
%TO.P,U101,1*%
%TO.N,Net-(C101-Pad1)*%
X148500000Y-83040000D03*
%TO.P,U101,2*%
%TO.N,GND*%
X148500000Y-80500000D03*
%TO.P,U101,3*%
%TO.N,+3V3*%
X148500000Y-77960000D03*
%TD*%
D20*
%TO.P,U102,1*%
%TO.N,+3V3*%
X135500000Y-79000000D03*
D21*
%TO.P,U102,2*%
%TO.N,/IO2*%
X135500000Y-81540000D03*
%TO.P,U102,3*%
%TO.N,N/C*%
X135500000Y-84080000D03*
%TO.P,U102,4*%
%TO.N,GND*%
X135500000Y-86620000D03*
%TD*%
D12*
%TO.P,J101,1*%
%TO.N,/TX*%
X120000000Y-95500000D03*
D13*
%TO.P,J101,2*%
%TO.N,GND*%
X120000000Y-92960000D03*
%TO.P,J101,3*%
%TO.N,/EN*%
X122540000Y-95500000D03*
%TO.P,J101,4*%
%TO.N,/IO2*%
X122540000Y-92960000D03*
%TO.P,J101,5*%
%TO.N,/~RST*%
X125080000Y-95500000D03*
%TO.P,J101,6*%
%TO.N,/IO0*%
X125080000Y-92960000D03*
%TO.P,J101,7*%
%TO.N,+3V3*%
X127620000Y-95500000D03*
%TO.P,J101,8*%
%TO.N,/RX*%
X127620000Y-92960000D03*
%TD*%
D12*
%TO.P,J102,1*%
%TO.N,/TX*%
X142500000Y-94000000D03*
D13*
%TO.P,J102,2*%
%TO.N,GND*%
X142500000Y-96540000D03*
%TO.P,J102,3*%
%TO.N,/EN*%
X145040000Y-94000000D03*
%TO.P,J102,4*%
%TO.N,/IO2*%
X145040000Y-96540000D03*
%TO.P,J102,5*%
%TO.N,/~RST*%
X147580000Y-94000000D03*
%TO.P,J102,6*%
%TO.N,/IO0*%
X147580000Y-96540000D03*
%TO.P,J102,7*%
%TO.N,+3V3*%
X150120000Y-94000000D03*
%TO.P,J102,8*%
%TO.N,/RX*%
X150120000Y-96540000D03*
%TD*%
D14*
%TO.P,R101,1*%
%TO.N,+3V3*%
X140250000Y-78000000D03*
D22*
%TO.P,R101,2*%
%TO.N,/IO2*%
X140250000Y-85620000D03*
%TD*%
D23*
%TO.N,GND*%
X127250000Y-98250000D03*
X130000000Y-98250000D03*
X120750000Y-98250000D03*
X123500000Y-98250000D03*
X133500000Y-83250000D03*
X130500000Y-86250000D03*
X127250000Y-89500000D03*
X126000000Y-90750000D03*
X141000000Y-74000000D03*
X141250000Y-88000000D03*
X141250000Y-91000000D03*
%TO.N,/RX*%
X130000000Y-93000000D03*
%TD*%
D24*
%TO.N,+3V3*%
X148500000Y-72500000D02*
X148500000Y-77960000D01*
D25*
%TO.N,/RX*%
X127620000Y-90368998D02*
X127620000Y-92960000D01*
X134983999Y-83004999D02*
X127620000Y-90368998D01*
X135626003Y-83004999D02*
X134983999Y-83004999D01*
X139000000Y-79631002D02*
X135626003Y-83004999D01*
X139000000Y-73000000D02*
X139000000Y-79631002D01*
X127660000Y-93000000D02*
X127620000Y-92960000D01*
X130000000Y-93000000D02*
X127660000Y-93000000D01*
%TO.N,/IO0*%
X130364999Y-94135001D02*
X133000000Y-91500000D01*
X126255001Y-94135001D02*
X130364999Y-94135001D01*
X125080000Y-92960000D02*
X126255001Y-94135001D01*
X133000000Y-91500000D02*
X133000000Y-98000000D01*
%TO.N,/IO2*%
X135960000Y-81500000D02*
X136000000Y-81540000D01*
X133960000Y-81540000D02*
X122540000Y-92960000D01*
X135500000Y-81540000D02*
X133960000Y-81540000D01*
X143864999Y-95364999D02*
X145040000Y-96540000D01*
X141579997Y-95364999D02*
X143864999Y-95364999D01*
X140250000Y-94035002D02*
X141579997Y-95364999D01*
X140250000Y-85620000D02*
X140250000Y-94035002D01*
%TO.N,/EN*%
X146215001Y-95175001D02*
X145040000Y-94000000D01*
X146215001Y-97104001D02*
X146215001Y-95175001D01*
X143994001Y-99325001D02*
X146215001Y-97104001D01*
X126365001Y-99325001D02*
X143994001Y-99325001D01*
X122540000Y-95500000D02*
X126365001Y-99325001D01*
%TO.N,/TX*%
X118824999Y-94324999D02*
X120000000Y-95500000D01*
X118824999Y-86355999D02*
X118824999Y-94324999D01*
X133355999Y-71824999D02*
X118824999Y-86355999D01*
X135284999Y-71824999D02*
X133355999Y-71824999D01*
X136460000Y-73000000D02*
X135284999Y-71824999D01*
X137635001Y-71824999D02*
X136460000Y-73000000D01*
X140110001Y-71824999D02*
X137635001Y-71824999D01*
X142374999Y-74089997D02*
X140110001Y-71824999D01*
X142374999Y-93874999D02*
X142374999Y-74089997D01*
X142500000Y-94000000D02*
X142374999Y-93874999D01*
%TD*%
D26*
%TO.N,GND*%
X169340000Y-71032418D02*
X169340001Y-71032428D01*
X169340000Y-99340000D01*
X145053803Y-99340000D01*
X146673508Y-97720296D01*
X146876589Y-97855990D01*
X147146842Y-97967932D01*
X147433740Y-98025000D01*
X147726260Y-98025000D01*
X148013158Y-97967932D01*
X148283411Y-97855990D01*
X148526632Y-97693475D01*
X148733475Y-97486632D01*
X148850000Y-97312240D01*
X148966525Y-97486632D01*
X149173368Y-97693475D01*
X149416589Y-97855990D01*
X149686842Y-97967932D01*
X149973740Y-98025000D01*
X150266260Y-98025000D01*
X150553158Y-97967932D01*
X150823411Y-97855990D01*
X151066632Y-97693475D01*
X151273475Y-97486632D01*
X151435990Y-97243411D01*
X151547932Y-96973158D01*
X151605000Y-96686260D01*
X151605000Y-96393740D01*
X151547932Y-96106842D01*
X151435990Y-95836589D01*
X151273475Y-95593368D01*
X151066632Y-95386525D01*
X150892240Y-95270000D01*
X151066632Y-95153475D01*
X151273475Y-94946632D01*
X151435990Y-94703411D01*
X151547932Y-94433158D01*
X151605000Y-94146260D01*
X151605000Y-93853740D01*
X151547932Y-93566842D01*
X151435990Y-93296589D01*
X151273475Y-93053368D01*
X151066632Y-92846525D01*
X150823411Y-92684010D01*
X150553158Y-92572068D01*
X150266260Y-92515000D01*
X149973740Y-92515000D01*
X149686842Y-92572068D01*
X149416589Y-92684010D01*
X149173368Y-92846525D01*
X148966525Y-93053368D01*
X148850000Y-93227760D01*
X148733475Y-93053368D01*
X148526632Y-92846525D01*
X148283411Y-92684010D01*
X148013158Y-92572068D01*
X147726260Y-92515000D01*
X147433740Y-92515000D01*
X147146842Y-92572068D01*
X146876589Y-92684010D01*
X146633368Y-92846525D01*
X146426525Y-93053368D01*
X146310000Y-93227760D01*
X146193475Y-93053368D01*
X145986632Y-92846525D01*
X145743411Y-92684010D01*
X145473158Y-92572068D01*
X145186260Y-92515000D01*
X144893740Y-92515000D01*
X144606842Y-92572068D01*
X144336589Y-92684010D01*
X144093368Y-92846525D01*
X143961513Y-92978380D01*
X143939502Y-92905820D01*
X143880537Y-92795506D01*
X143801185Y-92698815D01*
X143704494Y-92619463D01*
X143594180Y-92560498D01*
X143474482Y-92524188D01*
X143350000Y-92511928D01*
X143134999Y-92511928D01*
X143134999Y-88358665D01*
X147065000Y-88358665D01*
X147065000Y-88641335D01*
X147120147Y-88918574D01*
X147228320Y-89179727D01*
X147385363Y-89414759D01*
X147585241Y-89614637D01*
X147820273Y-89771680D01*
X148081426Y-89879853D01*
X148358665Y-89935000D01*
X148641335Y-89935000D01*
X148918574Y-89879853D01*
X149179727Y-89771680D01*
X149414759Y-89614637D01*
X149614637Y-89414759D01*
X149771680Y-89179727D01*
X149879853Y-88918574D01*
X149883547Y-88900000D01*
X150761928Y-88900000D01*
X150761928Y-91100000D01*
X150774188Y-91224482D01*
X150810498Y-91344180D01*
X150869463Y-91454494D01*
X150948815Y-91551185D01*
X151045506Y-91630537D01*
X151155820Y-91689502D01*
X151275518Y-91725812D01*
X151400000Y-91738072D01*
X153600000Y-91738072D01*
X153724482Y-91725812D01*
X153844180Y-91689502D01*
X153954494Y-91630537D01*
X154051185Y-91551185D01*
X154130537Y-91454494D01*
X154189502Y-91344180D01*
X154225812Y-91224482D01*
X154238072Y-91100000D01*
X154238072Y-88900000D01*
X154225812Y-88775518D01*
X154189502Y-88655820D01*
X154130537Y-88545506D01*
X154051185Y-88448815D01*
X153954494Y-88369463D01*
X153844180Y-88310498D01*
X153724482Y-88274188D01*
X153600000Y-88261928D01*
X151400000Y-88261928D01*
X151275518Y-88274188D01*
X151155820Y-88310498D01*
X151045506Y-88369463D01*
X150948815Y-88448815D01*
X150869463Y-88545506D01*
X150810498Y-88655820D01*
X150774188Y-88775518D01*
X150761928Y-88900000D01*
X149883547Y-88900000D01*
X149935000Y-88641335D01*
X149935000Y-88358665D01*
X149879853Y-88081426D01*
X149771680Y-87820273D01*
X149614637Y-87585241D01*
X149414759Y-87385363D01*
X149179727Y-87228320D01*
X148918574Y-87120147D01*
X148641335Y-87065000D01*
X148358665Y-87065000D01*
X148081426Y-87120147D01*
X147820273Y-87228320D01*
X147585241Y-87385363D01*
X147385363Y-87585241D01*
X147228320Y-87820273D01*
X147120147Y-88081426D01*
X147065000Y-88358665D01*
X143134999Y-88358665D01*
X143134999Y-86750000D01*
X157861928Y-86750000D01*
X157861928Y-88250000D01*
X157874188Y-88374482D01*
X157910498Y-88494180D01*
X157969463Y-88604494D01*
X158048815Y-88701185D01*
X158145506Y-88780537D01*
X158255820Y-88839502D01*
X158375518Y-88875812D01*
X158500000Y-88888072D01*
X161500000Y-88888072D01*
X161624482Y-88875812D01*
X161744180Y-88839502D01*
X161854494Y-88780537D01*
X161951185Y-88701185D01*
X162030537Y-88604494D01*
X162089502Y-88494180D01*
X162125812Y-88374482D01*
X162138072Y-88250000D01*
X162138072Y-86750000D01*
X162125812Y-86625518D01*
X162089502Y-86505820D01*
X162030537Y-86395506D01*
X161951185Y-86298815D01*
X161854494Y-86219463D01*
X161744180Y-86160498D01*
X161624482Y-86124188D01*
X161500000Y-86111928D01*
X158500000Y-86111928D01*
X158375518Y-86124188D01*
X158255820Y-86160498D01*
X158145506Y-86219463D01*
X158048815Y-86298815D01*
X157969463Y-86395506D01*
X157910498Y-86505820D01*
X157874188Y-86625518D01*
X157861928Y-86750000D01*
X143134999Y-86750000D01*
X143134999Y-82878967D01*
X146865000Y-82878967D01*
X146865000Y-83201033D01*
X146927832Y-83516912D01*
X147051082Y-83814463D01*
X147230013Y-84082252D01*
X147457748Y-84309987D01*
X147725537Y-84488918D01*
X148023088Y-84612168D01*
X148338967Y-84675000D01*
X148661033Y-84675000D01*
X148976912Y-84612168D01*
X149274463Y-84488918D01*
X149542252Y-84309987D01*
X149769987Y-84082252D01*
X149948918Y-83814463D01*
X150072168Y-83516912D01*
X150135000Y-83201033D01*
X150135000Y-82878967D01*
X150072168Y-82563088D01*
X149948918Y-82265537D01*
X149769987Y-81997748D01*
X149542252Y-81770013D01*
X149274463Y-81591082D01*
X148976912Y-81467832D01*
X148661033Y-81405000D01*
X148338967Y-81405000D01*
X148023088Y-81467832D01*
X147725537Y-81591082D01*
X147457748Y-81770013D01*
X147230013Y-81997748D01*
X147051082Y-82265537D01*
X146927832Y-82563088D01*
X146865000Y-82878967D01*
X143134999Y-82878967D01*
X143134999Y-79669117D01*
X150765000Y-79669117D01*
X150765000Y-80010883D01*
X150831675Y-80346081D01*
X150962463Y-80661831D01*
X151152337Y-80945998D01*
X151394002Y-81187663D01*
X151678169Y-81377537D01*
X151993919Y-81508325D01*
X152329117Y-81575000D01*
X152670883Y-81575000D01*
X153006081Y-81508325D01*
X153321831Y-81377537D01*
X153605998Y-81187663D01*
X153847663Y-80945998D01*
X154037537Y-80661831D01*
X154168325Y-80346081D01*
X154235000Y-80010883D01*
X154235000Y-79669117D01*
X154168325Y-79333919D01*
X154037537Y-79018169D01*
X153847663Y-78734002D01*
X153605998Y-78492337D01*
X153321831Y-78302463D01*
X153006081Y-78171675D01*
X152670883Y-78105000D01*
X152329117Y-78105000D01*
X151993919Y-78171675D01*
X151678169Y-78302463D01*
X151394002Y-78492337D01*
X151152337Y-78734002D01*
X150962463Y-79018169D01*
X150831675Y-79333919D01*
X150765000Y-79669117D01*
X143134999Y-79669117D01*
X143134999Y-77798967D01*
X146865000Y-77798967D01*
X146865000Y-78121033D01*
X146927832Y-78436912D01*
X147051082Y-78734463D01*
X147230013Y-79002252D01*
X147457748Y-79229987D01*
X147725537Y-79408918D01*
X148023088Y-79532168D01*
X148338967Y-79595000D01*
X148661033Y-79595000D01*
X148976912Y-79532168D01*
X149274463Y-79408918D01*
X149542252Y-79229987D01*
X149769987Y-79002252D01*
X149948918Y-78734463D01*
X150072168Y-78436912D01*
X150135000Y-78121033D01*
X150135000Y-77798967D01*
X150072168Y-77483088D01*
X149948918Y-77185537D01*
X149769987Y-76917748D01*
X149542252Y-76690013D01*
X149385000Y-76584941D01*
X149385000Y-73634521D01*
X149414759Y-73614637D01*
X149614637Y-73414759D01*
X149771680Y-73179727D01*
X149879853Y-72918574D01*
X149935000Y-72641335D01*
X149935000Y-72358665D01*
X149879853Y-72081426D01*
X149771680Y-71820273D01*
X149614637Y-71585241D01*
X149414759Y-71385363D01*
X149179727Y-71228320D01*
X148918574Y-71120147D01*
X148641335Y-71065000D01*
X148358665Y-71065000D01*
X148081426Y-71120147D01*
X147820273Y-71228320D01*
X147585241Y-71385363D01*
X147385363Y-71585241D01*
X147228320Y-71820273D01*
X147120147Y-72081426D01*
X147065000Y-72358665D01*
X147065000Y-72641335D01*
X147120147Y-72918574D01*
X147228320Y-73179727D01*
X147385363Y-73414759D01*
X147585241Y-73614637D01*
X147615000Y-73634521D01*
X147615001Y-76584940D01*
X147457748Y-76690013D01*
X147230013Y-76917748D01*
X147051082Y-77185537D01*
X146927832Y-77483088D01*
X146865000Y-77798967D01*
X143134999Y-77798967D01*
X143134999Y-74127320D01*
X143138675Y-74089997D01*
X143134999Y-74052674D01*
X143134999Y-74052664D01*
X143124002Y-73941011D01*
X143080545Y-73797750D01*
X143054488Y-73749002D01*
X143009973Y-73665720D01*
X142938798Y-73578994D01*
X142915000Y-73549996D01*
X142886002Y-73526198D01*
X140673805Y-71314002D01*
X140650002Y-71284998D01*
X140534277Y-71190025D01*
X140402248Y-71119453D01*
X140258987Y-71075996D01*
X140147334Y-71064999D01*
X140147323Y-71064999D01*
X140110001Y-71061323D01*
X140072679Y-71064999D01*
X137672323Y-71064999D01*
X137635000Y-71061323D01*
X137597677Y-71064999D01*
X137597668Y-71064999D01*
X137486015Y-71075996D01*
X137342754Y-71119453D01*
X137210725Y-71190025D01*
X137095000Y-71284998D01*
X137071202Y-71313996D01*
X136826408Y-71558790D01*
X136606260Y-71515000D01*
X136313740Y-71515000D01*
X136093592Y-71558791D01*
X135848803Y-71314002D01*
X135825000Y-71284998D01*
X135709275Y-71190025D01*
X135577246Y-71119453D01*
X135433985Y-71075996D01*
X135322332Y-71064999D01*
X135322321Y-71064999D01*
X135284999Y-71061323D01*
X135247677Y-71064999D01*
X133393321Y-71064999D01*
X133355998Y-71061323D01*
X133318675Y-71064999D01*
X133318666Y-71064999D01*
X133207013Y-71075996D01*
X133063752Y-71119453D01*
X132931723Y-71190025D01*
X132815998Y-71284998D01*
X132792200Y-71313996D01*
X118314002Y-85792195D01*
X118284998Y-85815998D01*
X118229870Y-85883173D01*
X118190025Y-85931723D01*
X118132912Y-86038574D01*
X118119453Y-86063753D01*
X118075996Y-86207014D01*
X118064999Y-86318667D01*
X118064999Y-86318677D01*
X118061323Y-86355999D01*
X118064999Y-86393321D01*
X118065000Y-94287667D01*
X118061323Y-94324999D01*
X118065000Y-94362332D01*
X118074549Y-94459278D01*
X118075997Y-94473984D01*
X118119453Y-94617245D01*
X118190025Y-94749275D01*
X118252170Y-94824998D01*
X118284999Y-94865000D01*
X118313997Y-94888798D01*
X118511928Y-95086729D01*
X118511928Y-96350000D01*
X118523747Y-96470000D01*
X106607857Y-96470000D01*
X106607857Y-99340000D01*
X100660000Y-99340000D01*
X100660000Y-81750000D01*
X107861928Y-81750000D01*
X107861928Y-83250000D01*
X107874188Y-83374482D01*
X107910498Y-83494180D01*
X107969463Y-83604494D01*
X108048815Y-83701185D01*
X108145506Y-83780537D01*
X108255820Y-83839502D01*
X108375518Y-83875812D01*
X108500000Y-83888072D01*
X111500000Y-83888072D01*
X111624482Y-83875812D01*
X111744180Y-83839502D01*
X111854494Y-83780537D01*
X111951185Y-83701185D01*
X112030537Y-83604494D01*
X112089502Y-83494180D01*
X112125812Y-83374482D01*
X112138072Y-83250000D01*
X112138072Y-81750000D01*
X112125812Y-81625518D01*
X112089502Y-81505820D01*
X112030537Y-81395506D01*
X111951185Y-81298815D01*
X111854494Y-81219463D01*
X111744180Y-81160498D01*
X111624482Y-81124188D01*
X111500000Y-81111928D01*
X108500000Y-81111928D01*
X108375518Y-81124188D01*
X108255820Y-81160498D01*
X108145506Y-81219463D01*
X108048815Y-81298815D01*
X107969463Y-81395506D01*
X107910498Y-81505820D01*
X107874188Y-81625518D01*
X107861928Y-81750000D01*
X100660000Y-81750000D01*
X100660000Y-70660000D01*
X169340000Y-70660000D01*
X169340000Y-71032418D01*
%TA.AperFunction,Conductor*%
D27*
G36*
X169340000Y-71032418D02*
G01*
X169340001Y-71032428D01*
X169340000Y-99340000D01*
X145053803Y-99340000D01*
X146673508Y-97720296D01*
X146876589Y-97855990D01*
X147146842Y-97967932D01*
X147433740Y-98025000D01*
X147726260Y-98025000D01*
X148013158Y-97967932D01*
X148283411Y-97855990D01*
X148526632Y-97693475D01*
X148733475Y-97486632D01*
X148850000Y-97312240D01*
X148966525Y-97486632D01*
X149173368Y-97693475D01*
X149416589Y-97855990D01*
X149686842Y-97967932D01*
X149973740Y-98025000D01*
X150266260Y-98025000D01*
X150553158Y-97967932D01*
X150823411Y-97855990D01*
X151066632Y-97693475D01*
X151273475Y-97486632D01*
X151435990Y-97243411D01*
X151547932Y-96973158D01*
X151605000Y-96686260D01*
X151605000Y-96393740D01*
X151547932Y-96106842D01*
X151435990Y-95836589D01*
X151273475Y-95593368D01*
X151066632Y-95386525D01*
X150892240Y-95270000D01*
X151066632Y-95153475D01*
X151273475Y-94946632D01*
X151435990Y-94703411D01*
X151547932Y-94433158D01*
X151605000Y-94146260D01*
X151605000Y-93853740D01*
X151547932Y-93566842D01*
X151435990Y-93296589D01*
X151273475Y-93053368D01*
X151066632Y-92846525D01*
X150823411Y-92684010D01*
X150553158Y-92572068D01*
X150266260Y-92515000D01*
X149973740Y-92515000D01*
X149686842Y-92572068D01*
X149416589Y-92684010D01*
X149173368Y-92846525D01*
X148966525Y-93053368D01*
X148850000Y-93227760D01*
X148733475Y-93053368D01*
X148526632Y-92846525D01*
X148283411Y-92684010D01*
X148013158Y-92572068D01*
X147726260Y-92515000D01*
X147433740Y-92515000D01*
X147146842Y-92572068D01*
X146876589Y-92684010D01*
X146633368Y-92846525D01*
X146426525Y-93053368D01*
X146310000Y-93227760D01*
X146193475Y-93053368D01*
X145986632Y-92846525D01*
X145743411Y-92684010D01*
X145473158Y-92572068D01*
X145186260Y-92515000D01*
X144893740Y-92515000D01*
X144606842Y-92572068D01*
X144336589Y-92684010D01*
X144093368Y-92846525D01*
X143961513Y-92978380D01*
X143939502Y-92905820D01*
X143880537Y-92795506D01*
X143801185Y-92698815D01*
X143704494Y-92619463D01*
X143594180Y-92560498D01*
X143474482Y-92524188D01*
X143350000Y-92511928D01*
X143134999Y-92511928D01*
X143134999Y-88358665D01*
X147065000Y-88358665D01*
X147065000Y-88641335D01*
X147120147Y-88918574D01*
X147228320Y-89179727D01*
X147385363Y-89414759D01*
X147585241Y-89614637D01*
X147820273Y-89771680D01*
X148081426Y-89879853D01*
X148358665Y-89935000D01*
X148641335Y-89935000D01*
X148918574Y-89879853D01*
X149179727Y-89771680D01*
X149414759Y-89614637D01*
X149614637Y-89414759D01*
X149771680Y-89179727D01*
X149879853Y-88918574D01*
X149883547Y-88900000D01*
X150761928Y-88900000D01*
X150761928Y-91100000D01*
X150774188Y-91224482D01*
X150810498Y-91344180D01*
X150869463Y-91454494D01*
X150948815Y-91551185D01*
X151045506Y-91630537D01*
X151155820Y-91689502D01*
X151275518Y-91725812D01*
X151400000Y-91738072D01*
X153600000Y-91738072D01*
X153724482Y-91725812D01*
X153844180Y-91689502D01*
X153954494Y-91630537D01*
X154051185Y-91551185D01*
X154130537Y-91454494D01*
X154189502Y-91344180D01*
X154225812Y-91224482D01*
X154238072Y-91100000D01*
X154238072Y-88900000D01*
X154225812Y-88775518D01*
X154189502Y-88655820D01*
X154130537Y-88545506D01*
X154051185Y-88448815D01*
X153954494Y-88369463D01*
X153844180Y-88310498D01*
X153724482Y-88274188D01*
X153600000Y-88261928D01*
X151400000Y-88261928D01*
X151275518Y-88274188D01*
X151155820Y-88310498D01*
X151045506Y-88369463D01*
X150948815Y-88448815D01*
X150869463Y-88545506D01*
X150810498Y-88655820D01*
X150774188Y-88775518D01*
X150761928Y-88900000D01*
X149883547Y-88900000D01*
X149935000Y-88641335D01*
X149935000Y-88358665D01*
X149879853Y-88081426D01*
X149771680Y-87820273D01*
X149614637Y-87585241D01*
X149414759Y-87385363D01*
X149179727Y-87228320D01*
X148918574Y-87120147D01*
X148641335Y-87065000D01*
X148358665Y-87065000D01*
X148081426Y-87120147D01*
X147820273Y-87228320D01*
X147585241Y-87385363D01*
X147385363Y-87585241D01*
X147228320Y-87820273D01*
X147120147Y-88081426D01*
X147065000Y-88358665D01*
X143134999Y-88358665D01*
X143134999Y-86750000D01*
X157861928Y-86750000D01*
X157861928Y-88250000D01*
X157874188Y-88374482D01*
X157910498Y-88494180D01*
X157969463Y-88604494D01*
X158048815Y-88701185D01*
X158145506Y-88780537D01*
X158255820Y-88839502D01*
X158375518Y-88875812D01*
X158500000Y-88888072D01*
X161500000Y-88888072D01*
X161624482Y-88875812D01*
X161744180Y-88839502D01*
X161854494Y-88780537D01*
X161951185Y-88701185D01*
X162030537Y-88604494D01*
X162089502Y-88494180D01*
X162125812Y-88374482D01*
X162138072Y-88250000D01*
X162138072Y-86750000D01*
X162125812Y-86625518D01*
X162089502Y-86505820D01*
X162030537Y-86395506D01*
X161951185Y-86298815D01*
X161854494Y-86219463D01*
X161744180Y-86160498D01*
X161624482Y-86124188D01*
X161500000Y-86111928D01*
X158500000Y-86111928D01*
X158375518Y-86124188D01*
X158255820Y-86160498D01*
X158145506Y-86219463D01*
X158048815Y-86298815D01*
X157969463Y-86395506D01*
X157910498Y-86505820D01*
X157874188Y-86625518D01*
X157861928Y-86750000D01*
X143134999Y-86750000D01*
X143134999Y-82878967D01*
X146865000Y-82878967D01*
X146865000Y-83201033D01*
X146927832Y-83516912D01*
X147051082Y-83814463D01*
X147230013Y-84082252D01*
X147457748Y-84309987D01*
X147725537Y-84488918D01*
X148023088Y-84612168D01*
X148338967Y-84675000D01*
X148661033Y-84675000D01*
X148976912Y-84612168D01*
X149274463Y-84488918D01*
X149542252Y-84309987D01*
X149769987Y-84082252D01*
X149948918Y-83814463D01*
X150072168Y-83516912D01*
X150135000Y-83201033D01*
X150135000Y-82878967D01*
X150072168Y-82563088D01*
X149948918Y-82265537D01*
X149769987Y-81997748D01*
X149542252Y-81770013D01*
X149274463Y-81591082D01*
X148976912Y-81467832D01*
X148661033Y-81405000D01*
X148338967Y-81405000D01*
X148023088Y-81467832D01*
X147725537Y-81591082D01*
X147457748Y-81770013D01*
X147230013Y-81997748D01*
X147051082Y-82265537D01*
X146927832Y-82563088D01*
X146865000Y-82878967D01*
X143134999Y-82878967D01*
X143134999Y-79669117D01*
X150765000Y-79669117D01*
X150765000Y-80010883D01*
X150831675Y-80346081D01*
X150962463Y-80661831D01*
X151152337Y-80945998D01*
X151394002Y-81187663D01*
X151678169Y-81377537D01*
X151993919Y-81508325D01*
X152329117Y-81575000D01*
X152670883Y-81575000D01*
X153006081Y-81508325D01*
X153321831Y-81377537D01*
X153605998Y-81187663D01*
X153847663Y-80945998D01*
X154037537Y-80661831D01*
X154168325Y-80346081D01*
X154235000Y-80010883D01*
X154235000Y-79669117D01*
X154168325Y-79333919D01*
X154037537Y-79018169D01*
X153847663Y-78734002D01*
X153605998Y-78492337D01*
X153321831Y-78302463D01*
X153006081Y-78171675D01*
X152670883Y-78105000D01*
X152329117Y-78105000D01*
X151993919Y-78171675D01*
X151678169Y-78302463D01*
X151394002Y-78492337D01*
X151152337Y-78734002D01*
X150962463Y-79018169D01*
X150831675Y-79333919D01*
X150765000Y-79669117D01*
X143134999Y-79669117D01*
X143134999Y-77798967D01*
X146865000Y-77798967D01*
X146865000Y-78121033D01*
X146927832Y-78436912D01*
X147051082Y-78734463D01*
X147230013Y-79002252D01*
X147457748Y-79229987D01*
X147725537Y-79408918D01*
X148023088Y-79532168D01*
X148338967Y-79595000D01*
X148661033Y-79595000D01*
X148976912Y-79532168D01*
X149274463Y-79408918D01*
X149542252Y-79229987D01*
X149769987Y-79002252D01*
X149948918Y-78734463D01*
X150072168Y-78436912D01*
X150135000Y-78121033D01*
X150135000Y-77798967D01*
X150072168Y-77483088D01*
X149948918Y-77185537D01*
X149769987Y-76917748D01*
X149542252Y-76690013D01*
X149385000Y-76584941D01*
X149385000Y-73634521D01*
X149414759Y-73614637D01*
X149614637Y-73414759D01*
X149771680Y-73179727D01*
X149879853Y-72918574D01*
X149935000Y-72641335D01*
X149935000Y-72358665D01*
X149879853Y-72081426D01*
X149771680Y-71820273D01*
X149614637Y-71585241D01*
X149414759Y-71385363D01*
X149179727Y-71228320D01*
X148918574Y-71120147D01*
X148641335Y-71065000D01*
X148358665Y-71065000D01*
X148081426Y-71120147D01*
X147820273Y-71228320D01*
X147585241Y-71385363D01*
X147385363Y-71585241D01*
X147228320Y-71820273D01*
X147120147Y-72081426D01*
X147065000Y-72358665D01*
X147065000Y-72641335D01*
X147120147Y-72918574D01*
X147228320Y-73179727D01*
X147385363Y-73414759D01*
X147585241Y-73614637D01*
X147615000Y-73634521D01*
X147615001Y-76584940D01*
X147457748Y-76690013D01*
X147230013Y-76917748D01*
X147051082Y-77185537D01*
X146927832Y-77483088D01*
X146865000Y-77798967D01*
X143134999Y-77798967D01*
X143134999Y-74127320D01*
X143138675Y-74089997D01*
X143134999Y-74052674D01*
X143134999Y-74052664D01*
X143124002Y-73941011D01*
X143080545Y-73797750D01*
X143054488Y-73749002D01*
X143009973Y-73665720D01*
X142938798Y-73578994D01*
X142915000Y-73549996D01*
X142886002Y-73526198D01*
X140673805Y-71314002D01*
X140650002Y-71284998D01*
X140534277Y-71190025D01*
X140402248Y-71119453D01*
X140258987Y-71075996D01*
X140147334Y-71064999D01*
X140147323Y-71064999D01*
X140110001Y-71061323D01*
X140072679Y-71064999D01*
X137672323Y-71064999D01*
X137635000Y-71061323D01*
X137597677Y-71064999D01*
X137597668Y-71064999D01*
X137486015Y-71075996D01*
X137342754Y-71119453D01*
X137210725Y-71190025D01*
X137095000Y-71284998D01*
X137071202Y-71313996D01*
X136826408Y-71558790D01*
X136606260Y-71515000D01*
X136313740Y-71515000D01*
X136093592Y-71558791D01*
X135848803Y-71314002D01*
X135825000Y-71284998D01*
X135709275Y-71190025D01*
X135577246Y-71119453D01*
X135433985Y-71075996D01*
X135322332Y-71064999D01*
X135322321Y-71064999D01*
X135284999Y-71061323D01*
X135247677Y-71064999D01*
X133393321Y-71064999D01*
X133355998Y-71061323D01*
X133318675Y-71064999D01*
X133318666Y-71064999D01*
X133207013Y-71075996D01*
X133063752Y-71119453D01*
X132931723Y-71190025D01*
X132815998Y-71284998D01*
X132792200Y-71313996D01*
X118314002Y-85792195D01*
X118284998Y-85815998D01*
X118229870Y-85883173D01*
X118190025Y-85931723D01*
X118132912Y-86038574D01*
X118119453Y-86063753D01*
X118075996Y-86207014D01*
X118064999Y-86318667D01*
X118064999Y-86318677D01*
X118061323Y-86355999D01*
X118064999Y-86393321D01*
X118065000Y-94287667D01*
X118061323Y-94324999D01*
X118065000Y-94362332D01*
X118074549Y-94459278D01*
X118075997Y-94473984D01*
X118119453Y-94617245D01*
X118190025Y-94749275D01*
X118252170Y-94824998D01*
X118284999Y-94865000D01*
X118313997Y-94888798D01*
X118511928Y-95086729D01*
X118511928Y-96350000D01*
X118523747Y-96470000D01*
X106607857Y-96470000D01*
X106607857Y-99340000D01*
X100660000Y-99340000D01*
X100660000Y-81750000D01*
X107861928Y-81750000D01*
X107861928Y-83250000D01*
X107874188Y-83374482D01*
X107910498Y-83494180D01*
X107969463Y-83604494D01*
X108048815Y-83701185D01*
X108145506Y-83780537D01*
X108255820Y-83839502D01*
X108375518Y-83875812D01*
X108500000Y-83888072D01*
X111500000Y-83888072D01*
X111624482Y-83875812D01*
X111744180Y-83839502D01*
X111854494Y-83780537D01*
X111951185Y-83701185D01*
X112030537Y-83604494D01*
X112089502Y-83494180D01*
X112125812Y-83374482D01*
X112138072Y-83250000D01*
X112138072Y-81750000D01*
X112125812Y-81625518D01*
X112089502Y-81505820D01*
X112030537Y-81395506D01*
X111951185Y-81298815D01*
X111854494Y-81219463D01*
X111744180Y-81160498D01*
X111624482Y-81124188D01*
X111500000Y-81111928D01*
X108500000Y-81111928D01*
X108375518Y-81124188D01*
X108255820Y-81160498D01*
X108145506Y-81219463D01*
X108048815Y-81298815D01*
X107969463Y-81395506D01*
X107910498Y-81505820D01*
X107874188Y-81625518D01*
X107861928Y-81750000D01*
X100660000Y-81750000D01*
X100660000Y-70660000D01*
X169340000Y-70660000D01*
X169340000Y-71032418D01*
G37*
%TD.AperFunction*%
D26*
X121593368Y-96653475D02*
X121836589Y-96815990D01*
X122106842Y-96927932D01*
X122393740Y-96985000D01*
X122686260Y-96985000D01*
X122906408Y-96941209D01*
X125305198Y-99340000D01*
X120392143Y-99340000D01*
X120392143Y-96988072D01*
X120850000Y-96988072D01*
X120974482Y-96975812D01*
X121094180Y-96939502D01*
X121204494Y-96880537D01*
X121301185Y-96801185D01*
X121380537Y-96704494D01*
X121439502Y-96594180D01*
X121461513Y-96521620D01*
X121593368Y-96653475D01*
%TA.AperFunction,Conductor*%
D27*
G36*
X121593368Y-96653475D02*
G01*
X121836589Y-96815990D01*
X122106842Y-96927932D01*
X122393740Y-96985000D01*
X122686260Y-96985000D01*
X122906408Y-96941209D01*
X125305198Y-99340000D01*
X120392143Y-99340000D01*
X120392143Y-96988072D01*
X120850000Y-96988072D01*
X120974482Y-96975812D01*
X121094180Y-96939502D01*
X121204494Y-96880537D01*
X121301185Y-96801185D01*
X121380537Y-96704494D01*
X121439502Y-96594180D01*
X121461513Y-96521620D01*
X121593368Y-96653475D01*
G37*
%TD.AperFunction*%
D26*
X132240001Y-96545091D02*
X132225537Y-96551082D01*
X131957748Y-96730013D01*
X131730013Y-96957748D01*
X131551082Y-97225537D01*
X131427832Y-97523088D01*
X131365000Y-97838967D01*
X131365000Y-98161033D01*
X131427832Y-98476912D01*
X131464320Y-98565001D01*
X126679803Y-98565001D01*
X125099802Y-96985000D01*
X125226260Y-96985000D01*
X125513158Y-96927932D01*
X125783411Y-96815990D01*
X126026632Y-96653475D01*
X126233475Y-96446632D01*
X126350000Y-96272240D01*
X126466525Y-96446632D01*
X126673368Y-96653475D01*
X126916589Y-96815990D01*
X127186842Y-96927932D01*
X127473740Y-96985000D01*
X127766260Y-96985000D01*
X128053158Y-96927932D01*
X128323411Y-96815990D01*
X128566632Y-96653475D01*
X128773475Y-96446632D01*
X128935990Y-96203411D01*
X129047932Y-95933158D01*
X129105000Y-95646260D01*
X129105000Y-95353740D01*
X129047932Y-95066842D01*
X128976753Y-94895001D01*
X130327677Y-94895001D01*
X130364999Y-94898677D01*
X130402321Y-94895001D01*
X130402332Y-94895001D01*
X130513985Y-94884004D01*
X130657246Y-94840547D01*
X130789275Y-94769975D01*
X130905000Y-94675002D01*
X130928803Y-94645998D01*
X132240000Y-93334801D01*
X132240001Y-96545091D01*
%TA.AperFunction,Conductor*%
D27*
G36*
X132240001Y-96545091D02*
G01*
X132225537Y-96551082D01*
X131957748Y-96730013D01*
X131730013Y-96957748D01*
X131551082Y-97225537D01*
X131427832Y-97523088D01*
X131365000Y-97838967D01*
X131365000Y-98161033D01*
X131427832Y-98476912D01*
X131464320Y-98565001D01*
X126679803Y-98565001D01*
X125099802Y-96985000D01*
X125226260Y-96985000D01*
X125513158Y-96927932D01*
X125783411Y-96815990D01*
X126026632Y-96653475D01*
X126233475Y-96446632D01*
X126350000Y-96272240D01*
X126466525Y-96446632D01*
X126673368Y-96653475D01*
X126916589Y-96815990D01*
X127186842Y-96927932D01*
X127473740Y-96985000D01*
X127766260Y-96985000D01*
X128053158Y-96927932D01*
X128323411Y-96815990D01*
X128566632Y-96653475D01*
X128773475Y-96446632D01*
X128935990Y-96203411D01*
X129047932Y-95933158D01*
X129105000Y-95646260D01*
X129105000Y-95353740D01*
X129047932Y-95066842D01*
X128976753Y-94895001D01*
X130327677Y-94895001D01*
X130364999Y-94898677D01*
X130402321Y-94895001D01*
X130402332Y-94895001D01*
X130513985Y-94884004D01*
X130657246Y-94840547D01*
X130789275Y-94769975D01*
X130905000Y-94675002D01*
X130928803Y-94645998D01*
X132240000Y-93334801D01*
X132240001Y-96545091D01*
G37*
%TD.AperFunction*%
D26*
X141614999Y-85165566D02*
X141521680Y-84940273D01*
X141364637Y-84705241D01*
X141164759Y-84505363D01*
X140929727Y-84348320D01*
X140668574Y-84240147D01*
X140391335Y-84185000D01*
X140108665Y-84185000D01*
X139831426Y-84240147D01*
X139570273Y-84348320D01*
X139335241Y-84505363D01*
X139135363Y-84705241D01*
X138978320Y-84940273D01*
X138870147Y-85201426D01*
X138815000Y-85478665D01*
X138815000Y-85761335D01*
X138870147Y-86038574D01*
X138978320Y-86299727D01*
X139135363Y-86534759D01*
X139335241Y-86734637D01*
X139490000Y-86838044D01*
X139490001Y-93997670D01*
X139486324Y-94035002D01*
X139490001Y-94072335D01*
X139497551Y-94148985D01*
X139500998Y-94183987D01*
X139544454Y-94327248D01*
X139615026Y-94459278D01*
X139681296Y-94540027D01*
X139710000Y-94575003D01*
X139738998Y-94598801D01*
X141016197Y-95876001D01*
X141039996Y-95905000D01*
X141155721Y-95999973D01*
X141287750Y-96070545D01*
X141431011Y-96114002D01*
X141542664Y-96124999D01*
X141542672Y-96124999D01*
X141579997Y-96128675D01*
X141617322Y-96124999D01*
X143550198Y-96124999D01*
X143598791Y-96173592D01*
X143555000Y-96393740D01*
X143555000Y-96686260D01*
X143612068Y-96973158D01*
X143724010Y-97243411D01*
X143886525Y-97486632D01*
X144093368Y-97693475D01*
X144336589Y-97855990D01*
X144373091Y-97871110D01*
X143679200Y-98565001D01*
X134535680Y-98565001D01*
X134572168Y-98476912D01*
X134635000Y-98161033D01*
X134635000Y-97838967D01*
X134572168Y-97523088D01*
X134448918Y-97225537D01*
X134269987Y-96957748D01*
X134042252Y-96730013D01*
X133774463Y-96551082D01*
X133760000Y-96545091D01*
X133760000Y-92954909D01*
X133774463Y-92948918D01*
X134042252Y-92769987D01*
X134269987Y-92542252D01*
X134448918Y-92274463D01*
X134572168Y-91976912D01*
X134635000Y-91661033D01*
X134635000Y-91338967D01*
X134572168Y-91023088D01*
X134448918Y-90725537D01*
X134269987Y-90457748D01*
X134042252Y-90230013D01*
X133774463Y-90051082D01*
X133476912Y-89927832D01*
X133161033Y-89865000D01*
X132838967Y-89865000D01*
X132523088Y-89927832D01*
X132225537Y-90051082D01*
X131957748Y-90230013D01*
X131730013Y-90457748D01*
X131551082Y-90725537D01*
X131427832Y-91023088D01*
X131365000Y-91338967D01*
X131365000Y-91661033D01*
X131427832Y-91976912D01*
X131433823Y-91991375D01*
X130916504Y-92508695D01*
X130803937Y-92340226D01*
X130659774Y-92196063D01*
X130490256Y-92082795D01*
X130301898Y-92004774D01*
X130101939Y-91965000D01*
X129898061Y-91965000D01*
X129698102Y-92004774D01*
X129509744Y-92082795D01*
X129340226Y-92196063D01*
X129296289Y-92240000D01*
X128924906Y-92240000D01*
X128773475Y-92013368D01*
X128566632Y-91806525D01*
X128380000Y-91681822D01*
X128380000Y-90683799D01*
X134294710Y-84769090D01*
X134424201Y-84962886D01*
X134617114Y-85155799D01*
X134843957Y-85307371D01*
X135096011Y-85411775D01*
X135363589Y-85465000D01*
X135636411Y-85465000D01*
X135903989Y-85411775D01*
X136156043Y-85307371D01*
X136382886Y-85155799D01*
X136575799Y-84962886D01*
X136727371Y-84736043D01*
X136831775Y-84483989D01*
X136885000Y-84216411D01*
X136885000Y-83943589D01*
X136831775Y-83676011D01*
X136727371Y-83423957D01*
X136575799Y-83197114D01*
X136542244Y-83163559D01*
X139511003Y-80194801D01*
X139540001Y-80171003D01*
X139634974Y-80055278D01*
X139705546Y-79923249D01*
X139749003Y-79779988D01*
X139760000Y-79668335D01*
X139760000Y-79668326D01*
X139763676Y-79631003D01*
X139760000Y-79593680D01*
X139760000Y-79350267D01*
X139831426Y-79379853D01*
X140108665Y-79435000D01*
X140391335Y-79435000D01*
X140668574Y-79379853D01*
X140929727Y-79271680D01*
X141164759Y-79114637D01*
X141364637Y-78914759D01*
X141521680Y-78679727D01*
X141615000Y-78454433D01*
X141614999Y-85165566D01*
%TA.AperFunction,Conductor*%
D27*
G36*
X141614999Y-85165566D02*
G01*
X141521680Y-84940273D01*
X141364637Y-84705241D01*
X141164759Y-84505363D01*
X140929727Y-84348320D01*
X140668574Y-84240147D01*
X140391335Y-84185000D01*
X140108665Y-84185000D01*
X139831426Y-84240147D01*
X139570273Y-84348320D01*
X139335241Y-84505363D01*
X139135363Y-84705241D01*
X138978320Y-84940273D01*
X138870147Y-85201426D01*
X138815000Y-85478665D01*
X138815000Y-85761335D01*
X138870147Y-86038574D01*
X138978320Y-86299727D01*
X139135363Y-86534759D01*
X139335241Y-86734637D01*
X139490000Y-86838044D01*
X139490001Y-93997670D01*
X139486324Y-94035002D01*
X139490001Y-94072335D01*
X139497551Y-94148985D01*
X139500998Y-94183987D01*
X139544454Y-94327248D01*
X139615026Y-94459278D01*
X139681296Y-94540027D01*
X139710000Y-94575003D01*
X139738998Y-94598801D01*
X141016197Y-95876001D01*
X141039996Y-95905000D01*
X141155721Y-95999973D01*
X141287750Y-96070545D01*
X141431011Y-96114002D01*
X141542664Y-96124999D01*
X141542672Y-96124999D01*
X141579997Y-96128675D01*
X141617322Y-96124999D01*
X143550198Y-96124999D01*
X143598791Y-96173592D01*
X143555000Y-96393740D01*
X143555000Y-96686260D01*
X143612068Y-96973158D01*
X143724010Y-97243411D01*
X143886525Y-97486632D01*
X144093368Y-97693475D01*
X144336589Y-97855990D01*
X144373091Y-97871110D01*
X143679200Y-98565001D01*
X134535680Y-98565001D01*
X134572168Y-98476912D01*
X134635000Y-98161033D01*
X134635000Y-97838967D01*
X134572168Y-97523088D01*
X134448918Y-97225537D01*
X134269987Y-96957748D01*
X134042252Y-96730013D01*
X133774463Y-96551082D01*
X133760000Y-96545091D01*
X133760000Y-92954909D01*
X133774463Y-92948918D01*
X134042252Y-92769987D01*
X134269987Y-92542252D01*
X134448918Y-92274463D01*
X134572168Y-91976912D01*
X134635000Y-91661033D01*
X134635000Y-91338967D01*
X134572168Y-91023088D01*
X134448918Y-90725537D01*
X134269987Y-90457748D01*
X134042252Y-90230013D01*
X133774463Y-90051082D01*
X133476912Y-89927832D01*
X133161033Y-89865000D01*
X132838967Y-89865000D01*
X132523088Y-89927832D01*
X132225537Y-90051082D01*
X131957748Y-90230013D01*
X131730013Y-90457748D01*
X131551082Y-90725537D01*
X131427832Y-91023088D01*
X131365000Y-91338967D01*
X131365000Y-91661033D01*
X131427832Y-91976912D01*
X131433823Y-91991375D01*
X130916504Y-92508695D01*
X130803937Y-92340226D01*
X130659774Y-92196063D01*
X130490256Y-92082795D01*
X130301898Y-92004774D01*
X130101939Y-91965000D01*
X129898061Y-91965000D01*
X129698102Y-92004774D01*
X129509744Y-92082795D01*
X129340226Y-92196063D01*
X129296289Y-92240000D01*
X128924906Y-92240000D01*
X128773475Y-92013368D01*
X128566632Y-91806525D01*
X128380000Y-91681822D01*
X128380000Y-90683799D01*
X134294710Y-84769090D01*
X134424201Y-84962886D01*
X134617114Y-85155799D01*
X134843957Y-85307371D01*
X135096011Y-85411775D01*
X135363589Y-85465000D01*
X135636411Y-85465000D01*
X135903989Y-85411775D01*
X136156043Y-85307371D01*
X136382886Y-85155799D01*
X136575799Y-84962886D01*
X136727371Y-84736043D01*
X136831775Y-84483989D01*
X136885000Y-84216411D01*
X136885000Y-83943589D01*
X136831775Y-83676011D01*
X136727371Y-83423957D01*
X136575799Y-83197114D01*
X136542244Y-83163559D01*
X139511003Y-80194801D01*
X139540001Y-80171003D01*
X139634974Y-80055278D01*
X139705546Y-79923249D01*
X139749003Y-79779988D01*
X139760000Y-79668335D01*
X139760000Y-79668326D01*
X139763676Y-79631003D01*
X139760000Y-79593680D01*
X139760000Y-79350267D01*
X139831426Y-79379853D01*
X140108665Y-79435000D01*
X140391335Y-79435000D01*
X140668574Y-79379853D01*
X140929727Y-79271680D01*
X141164759Y-79114637D01*
X141364637Y-78914759D01*
X141521680Y-78679727D01*
X141615000Y-78454433D01*
X141614999Y-85165566D01*
G37*
%TD.AperFunction*%
D26*
X135018791Y-72633592D02*
X134975000Y-72853740D01*
X134975000Y-73146260D01*
X135032068Y-73433158D01*
X135144010Y-73703411D01*
X135306525Y-73946632D01*
X135513368Y-74153475D01*
X135756589Y-74315990D01*
X136026842Y-74427932D01*
X136313740Y-74485000D01*
X136606260Y-74485000D01*
X136893158Y-74427932D01*
X137163411Y-74315990D01*
X137406632Y-74153475D01*
X137538487Y-74021620D01*
X137560498Y-74094180D01*
X137619463Y-74204494D01*
X137698815Y-74301185D01*
X137795506Y-74380537D01*
X137905820Y-74439502D01*
X138025518Y-74475812D01*
X138150000Y-74488072D01*
X138240000Y-74488072D01*
X138240001Y-79316199D01*
X136705290Y-80850911D01*
X136575799Y-80657114D01*
X136382886Y-80464201D01*
X136266517Y-80386445D01*
X136374482Y-80375812D01*
X136494180Y-80339502D01*
X136604494Y-80280537D01*
X136701185Y-80201185D01*
X136780537Y-80104494D01*
X136839502Y-79994180D01*
X136875812Y-79874482D01*
X136888072Y-79750000D01*
X136888072Y-78250000D01*
X136875812Y-78125518D01*
X136839502Y-78005820D01*
X136780537Y-77895506D01*
X136701185Y-77798815D01*
X136604494Y-77719463D01*
X136494180Y-77660498D01*
X136374482Y-77624188D01*
X136250000Y-77611928D01*
X134750000Y-77611928D01*
X134625518Y-77624188D01*
X134505820Y-77660498D01*
X134395506Y-77719463D01*
X134298815Y-77798815D01*
X134219463Y-77895506D01*
X134160498Y-78005820D01*
X134124188Y-78125518D01*
X134111928Y-78250000D01*
X134111928Y-79750000D01*
X134124188Y-79874482D01*
X134160498Y-79994180D01*
X134219463Y-80104494D01*
X134298815Y-80201185D01*
X134395506Y-80280537D01*
X134505820Y-80339502D01*
X134625518Y-80375812D01*
X134733483Y-80386445D01*
X134617114Y-80464201D01*
X134424201Y-80657114D01*
X134342091Y-80780000D01*
X133997323Y-80780000D01*
X133960000Y-80776324D01*
X133922677Y-80780000D01*
X133922667Y-80780000D01*
X133811014Y-80790997D01*
X133667753Y-80834454D01*
X133535723Y-80905026D01*
X133497737Y-80936201D01*
X133419999Y-80999999D01*
X133396201Y-81028997D01*
X122906408Y-91518791D01*
X122686260Y-91475000D01*
X122393740Y-91475000D01*
X122106842Y-91532068D01*
X121836589Y-91644010D01*
X121593368Y-91806525D01*
X121386525Y-92013368D01*
X121224010Y-92256589D01*
X121112068Y-92526842D01*
X121055000Y-92813740D01*
X121055000Y-93106260D01*
X121112068Y-93393158D01*
X121224010Y-93663411D01*
X121386525Y-93906632D01*
X121593368Y-94113475D01*
X121767760Y-94230000D01*
X121593368Y-94346525D01*
X121461513Y-94478380D01*
X121439502Y-94405820D01*
X121380537Y-94295506D01*
X121301185Y-94198815D01*
X121204494Y-94119463D01*
X121094180Y-94060498D01*
X120974482Y-94024188D01*
X120850000Y-94011928D01*
X119586729Y-94011928D01*
X119584999Y-94010198D01*
X119584999Y-86670800D01*
X133670801Y-72584999D01*
X134970198Y-72584999D01*
X135018791Y-72633592D01*
%TA.AperFunction,Conductor*%
D27*
G36*
X135018791Y-72633592D02*
G01*
X134975000Y-72853740D01*
X134975000Y-73146260D01*
X135032068Y-73433158D01*
X135144010Y-73703411D01*
X135306525Y-73946632D01*
X135513368Y-74153475D01*
X135756589Y-74315990D01*
X136026842Y-74427932D01*
X136313740Y-74485000D01*
X136606260Y-74485000D01*
X136893158Y-74427932D01*
X137163411Y-74315990D01*
X137406632Y-74153475D01*
X137538487Y-74021620D01*
X137560498Y-74094180D01*
X137619463Y-74204494D01*
X137698815Y-74301185D01*
X137795506Y-74380537D01*
X137905820Y-74439502D01*
X138025518Y-74475812D01*
X138150000Y-74488072D01*
X138240000Y-74488072D01*
X138240001Y-79316199D01*
X136705290Y-80850911D01*
X136575799Y-80657114D01*
X136382886Y-80464201D01*
X136266517Y-80386445D01*
X136374482Y-80375812D01*
X136494180Y-80339502D01*
X136604494Y-80280537D01*
X136701185Y-80201185D01*
X136780537Y-80104494D01*
X136839502Y-79994180D01*
X136875812Y-79874482D01*
X136888072Y-79750000D01*
X136888072Y-78250000D01*
X136875812Y-78125518D01*
X136839502Y-78005820D01*
X136780537Y-77895506D01*
X136701185Y-77798815D01*
X136604494Y-77719463D01*
X136494180Y-77660498D01*
X136374482Y-77624188D01*
X136250000Y-77611928D01*
X134750000Y-77611928D01*
X134625518Y-77624188D01*
X134505820Y-77660498D01*
X134395506Y-77719463D01*
X134298815Y-77798815D01*
X134219463Y-77895506D01*
X134160498Y-78005820D01*
X134124188Y-78125518D01*
X134111928Y-78250000D01*
X134111928Y-79750000D01*
X134124188Y-79874482D01*
X134160498Y-79994180D01*
X134219463Y-80104494D01*
X134298815Y-80201185D01*
X134395506Y-80280537D01*
X134505820Y-80339502D01*
X134625518Y-80375812D01*
X134733483Y-80386445D01*
X134617114Y-80464201D01*
X134424201Y-80657114D01*
X134342091Y-80780000D01*
X133997323Y-80780000D01*
X133960000Y-80776324D01*
X133922677Y-80780000D01*
X133922667Y-80780000D01*
X133811014Y-80790997D01*
X133667753Y-80834454D01*
X133535723Y-80905026D01*
X133497737Y-80936201D01*
X133419999Y-80999999D01*
X133396201Y-81028997D01*
X122906408Y-91518791D01*
X122686260Y-91475000D01*
X122393740Y-91475000D01*
X122106842Y-91532068D01*
X121836589Y-91644010D01*
X121593368Y-91806525D01*
X121386525Y-92013368D01*
X121224010Y-92256589D01*
X121112068Y-92526842D01*
X121055000Y-92813740D01*
X121055000Y-93106260D01*
X121112068Y-93393158D01*
X121224010Y-93663411D01*
X121386525Y-93906632D01*
X121593368Y-94113475D01*
X121767760Y-94230000D01*
X121593368Y-94346525D01*
X121461513Y-94478380D01*
X121439502Y-94405820D01*
X121380537Y-94295506D01*
X121301185Y-94198815D01*
X121204494Y-94119463D01*
X121094180Y-94060498D01*
X120974482Y-94024188D01*
X120850000Y-94011928D01*
X119586729Y-94011928D01*
X119584999Y-94010198D01*
X119584999Y-86670800D01*
X133670801Y-72584999D01*
X134970198Y-72584999D01*
X135018791Y-72633592D01*
G37*
%TD.AperFunction*%
D26*
X141614999Y-92515375D02*
X141525518Y-92524188D01*
X141405820Y-92560498D01*
X141295506Y-92619463D01*
X141198815Y-92698815D01*
X141119463Y-92795506D01*
X141060498Y-92905820D01*
X141024188Y-93025518D01*
X141011928Y-93150000D01*
X141011928Y-93722129D01*
X141010000Y-93720201D01*
X141010000Y-86838043D01*
X141164759Y-86734637D01*
X141364637Y-86534759D01*
X141521680Y-86299727D01*
X141614999Y-86074434D01*
X141614999Y-92515375D01*
%TA.AperFunction,Conductor*%
D27*
G36*
X141614999Y-92515375D02*
G01*
X141525518Y-92524188D01*
X141405820Y-92560498D01*
X141295506Y-92619463D01*
X141198815Y-92698815D01*
X141119463Y-92795506D01*
X141060498Y-92905820D01*
X141024188Y-93025518D01*
X141011928Y-93150000D01*
X141011928Y-93722129D01*
X141010000Y-93720201D01*
X141010000Y-86838043D01*
X141164759Y-86734637D01*
X141364637Y-86534759D01*
X141521680Y-86299727D01*
X141614999Y-86074434D01*
X141614999Y-92515375D01*
G37*
%TD.AperFunction*%
D26*
X134424201Y-82422886D02*
X134456254Y-82454939D01*
X134443998Y-82464998D01*
X134420200Y-82493996D01*
X127109003Y-89805194D01*
X127079999Y-89828997D01*
X127038263Y-89879853D01*
X126985026Y-89944722D01*
X126928175Y-90051082D01*
X126914454Y-90076752D01*
X126870997Y-90220013D01*
X126860000Y-90331666D01*
X126860000Y-90331676D01*
X126856324Y-90368998D01*
X126860000Y-90406321D01*
X126860001Y-91681821D01*
X126673368Y-91806525D01*
X126466525Y-92013368D01*
X126350000Y-92187760D01*
X126233475Y-92013368D01*
X126026632Y-91806525D01*
X125783411Y-91644010D01*
X125513158Y-91532068D01*
X125226260Y-91475000D01*
X125099801Y-91475000D01*
X134274802Y-82300000D01*
X134342091Y-82300000D01*
X134424201Y-82422886D01*
%TA.AperFunction,Conductor*%
D27*
G36*
X134424201Y-82422886D02*
G01*
X134456254Y-82454939D01*
X134443998Y-82464998D01*
X134420200Y-82493996D01*
X127109003Y-89805194D01*
X127079999Y-89828997D01*
X127038263Y-89879853D01*
X126985026Y-89944722D01*
X126928175Y-90051082D01*
X126914454Y-90076752D01*
X126870997Y-90220013D01*
X126860000Y-90331666D01*
X126860000Y-90331676D01*
X126856324Y-90368998D01*
X126860000Y-90406321D01*
X126860001Y-91681821D01*
X126673368Y-91806525D01*
X126466525Y-92013368D01*
X126350000Y-92187760D01*
X126233475Y-92013368D01*
X126026632Y-91806525D01*
X125783411Y-91644010D01*
X125513158Y-91532068D01*
X125226260Y-91475000D01*
X125099801Y-91475000D01*
X134274802Y-82300000D01*
X134342091Y-82300000D01*
X134424201Y-82422886D01*
G37*
%TD.AperFunction*%
D26*
X141615000Y-74404800D02*
X141615000Y-77545567D01*
X141521680Y-77320273D01*
X141364637Y-77085241D01*
X141164759Y-76885363D01*
X140929727Y-76728320D01*
X140668574Y-76620147D01*
X140391335Y-76565000D01*
X140108665Y-76565000D01*
X139831426Y-76620147D01*
X139760000Y-76649733D01*
X139760000Y-74488072D01*
X139850000Y-74488072D01*
X139974482Y-74475812D01*
X140094180Y-74439502D01*
X140204494Y-74380537D01*
X140301185Y-74301185D01*
X140380537Y-74204494D01*
X140439502Y-74094180D01*
X140475812Y-73974482D01*
X140488072Y-73850000D01*
X140488072Y-73277871D01*
X141615000Y-74404800D01*
%TA.AperFunction,Conductor*%
D27*
G36*
X141615000Y-74404800D02*
G01*
X141615000Y-77545567D01*
X141521680Y-77320273D01*
X141364637Y-77085241D01*
X141164759Y-76885363D01*
X140929727Y-76728320D01*
X140668574Y-76620147D01*
X140391335Y-76565000D01*
X140108665Y-76565000D01*
X139831426Y-76620147D01*
X139760000Y-76649733D01*
X139760000Y-74488072D01*
X139850000Y-74488072D01*
X139974482Y-74475812D01*
X140094180Y-74439502D01*
X140204494Y-74380537D01*
X140301185Y-74301185D01*
X140380537Y-74204494D01*
X140439502Y-74094180D01*
X140475812Y-73974482D01*
X140488072Y-73850000D01*
X140488072Y-73277871D01*
X141615000Y-74404800D01*
G37*
%TD.AperFunction*%
%TD*%
M02*
