M48
; DRILL file {KiCad 5.1.9+dfsg1-1~bpo10+1} date Fri Jul  2 19:43:39 2021
; FORMAT={-:-/ absolute / inch / decimal}
; #@! TF.CreationDate,2021-07-02T19:43:39+00:00
; #@! TF.GenerationSoftware,Kicad,Pcbnew,5.1.9+dfsg1-1~bpo10+1
; #@! TF.FileFunction,Plated,1,2,PTH
FMAT,2
INCH
T1C0.0157
T2C0.0315
T3C0.0394
T4C0.0433
T5C0.0453
T6C0.1260
%
G90
G05
T1
X4.7539Y-3.8681
X4.8622Y-3.8681
X4.9606Y-3.5728
X5.0098Y-3.5236
X5.0098Y-3.8681
X5.1181Y-3.6614
X5.1181Y-3.8681
X5.1378Y-3.3957
X5.2559Y-3.2776
X5.5512Y-2.9134
X5.561Y-3.4646
X5.561Y-3.5827
T2
X5.3346Y-3.1102
X5.3346Y-3.2102
X5.3346Y-3.3102
X5.3346Y-3.4102
X5.5217Y-3.0709
X5.5217Y-3.3709
X5.6496Y-2.8543
X5.6496Y-3.4843
X5.8465Y-2.8543
X5.8465Y-3.4843
T3
X4.7244Y-3.6598
X4.7244Y-3.7598
X4.8244Y-3.6598
X4.8244Y-3.7598
X4.9244Y-3.6598
X4.9244Y-3.7598
X5.0244Y-3.6598
X5.0244Y-3.7598
X5.2724Y-2.874
X5.3724Y-2.874
X5.4724Y-2.874
X5.6102Y-3.7008
X5.6102Y-3.8008
X5.7102Y-3.7008
X5.7102Y-3.8008
X5.8102Y-3.7008
X5.8102Y-3.8008
X5.8465Y-3.0693
X5.8465Y-3.1693
X5.8465Y-3.2693
X5.9102Y-3.7008
X5.9102Y-3.8008
T4
X5.2362Y-3.6024
X5.2362Y-3.8583
X5.4134Y-3.6024
X5.4134Y-3.8583
X6.0039Y-3.1433
X6.0039Y-3.5433
T5
X4.3307Y-3.248
X4.3307Y-3.4449
X6.2992Y-3.248
X6.2992Y-3.4449
T6
X4.1339Y-2.9528
X4.1339Y-3.7402
X6.4961Y-2.9528
X6.4961Y-3.7402
T0
M30
